<svg width="1440" height="1074" fill="none" xmlns="http://www.w3.org/2000/svg"><g opacity=".5"><g opacity=".2" clip-path="url(#clip0_1_935)"><path fill="#030014" d="M1440 0v2016H0V0z"/><path stroke="#292929" stroke-width="2.25" d="M1440 1009.12H0m1440-71.995H0m1440-72H0m1440-72H0m1440-72H0m1440-72H0m1440-72H0m1440-72H0m1440-72H0m1440-72H0m1440-72H0m1440-72H0m1440-72H0m1440-72H0m1440-72H0M-1.125 2016V0m72 2016V0m72 2016l.001-2016m71.999 2016V0m72 2016V0m72 2016V0m72 2016V0m72 2016V0m72 2016V0m72 2016V0m72 2016V0m72 2016V0m72 2016V0m72 2016V0m71.995 2016V0m72.01 2016V0m72 2016V0m71.99 2016l.01-2016m72 2016V0m72 2016V0m72 2016V0"/><path transform="rotate(90 1222.87 145.125)" fill="url(#paint0_linear_1_935)" stroke="#353535" stroke-width="2.25" d="M1222.87 145.125h72v72h-72z"/><path transform="rotate(90 358.875 649.125)" fill="url(#paint1_linear_1_935)" stroke="#353535" stroke-width="2.25" d="M358.875 649.125h72v72h-72z"/><path transform="rotate(90 793.125 433.125)" fill="url(#paint2_linear_1_935)" stroke="#353535" stroke-width="2.25" d="M793.125 433.125h72v72h-72z"/><path transform="rotate(90 502.875 721.125)" fill="url(#paint3_linear_1_935)" stroke="#353535" stroke-width="2.25" d="M502.875 721.125h72v72h-72z"/><path transform="rotate(90 937.125 505.125)" fill="url(#paint4_linear_1_935)" stroke="#353535" stroke-width="2.25" d="M937.125 505.125h72v72h-72z"/><path transform="rotate(90 502.875 793.125)" fill="url(#paint5_linear_1_935)" stroke="#353535" stroke-width="2.25" d="M502.875 793.125h72v72h-72z"/><path transform="rotate(90 937.125 577.125)" fill="url(#paint6_linear_1_935)" stroke="#353535" stroke-width="2.25" d="M937.125 577.125h72v72h-72z"/><path transform="rotate(90 430.875 865.125)" fill="url(#paint7_linear_1_935)" stroke="#353535" stroke-width="2.25" d="M430.875 865.125h72v72h-72z"/><path transform="rotate(90 865.125 649.125)" fill="url(#paint8_linear_1_935)" stroke="#353535" stroke-width="2.25" d="M865.125 649.125h72v72h-72z"/><path transform="rotate(90 1294.88 793.125)" fill="url(#paint9_linear_1_935)" stroke="#353535" stroke-width="2.25" d="M1294.88 793.125h72v72h-72z"/><path transform="rotate(90 1222.87 865.125)" fill="url(#paint10_linear_1_935)" stroke="#353535" stroke-width="2.25" d="M1222.87 865.125h72v72h-72z"/><path transform="rotate(90 430.875 145.125)" fill="url(#paint11_linear_1_935)" stroke="#353535" stroke-width="2.25" d="M430.875 145.125h72v72h-72z"/><path transform="rotate(90 358.875 145.125)" fill="url(#paint12_linear_1_935)" stroke="#353535" stroke-width="2.25" d="M358.875 145.125h72v72h-72z"/><path transform="rotate(90 430.875 217.125)" fill="url(#paint13_linear_1_935)" stroke="#353535" stroke-width="2.25" d="M430.875 217.125h72v72h-72z"/><path transform="rotate(90 358.875 217.125)" fill="url(#paint14_linear_1_935)" stroke="#353535" stroke-width="2.25" d="M358.875 217.125h72v72h-72z"/><path transform="rotate(90 1150.88 937.125)" fill="url(#paint15_linear_1_935)" stroke="#353535" stroke-width="2.25" d="M1150.88 937.125h72v72h-72z"/><path transform="rotate(90 1078.88 1009.12)" fill="url(#paint16_linear_1_935)" stroke="#353535" stroke-width="2.25" d="M1078.88 1009.12h72v72h-72z"/><path transform="rotate(90 1150.88 145.125)" fill="url(#paint17_linear_1_935)" stroke="#353535" stroke-width="2.25" d="M1150.88 145.125h72v72h-72z"/><path transform="rotate(90 286.875 649.125)" fill="url(#paint18_linear_1_935)" stroke="#353535" stroke-width="2.25" d="M286.875 649.125h72v72h-72z"/><path transform="rotate(90 721.125 433.125)" fill="url(#paint19_linear_1_935)" stroke="#353535" stroke-width="2.25" d="M721.125 433.125h72v72h-72z"/><path transform="rotate(90 430.875 721.125)" fill="url(#paint20_linear_1_935)" stroke="#353535" stroke-width="2.25" d="M430.875 721.125h72v72h-72z"/><path transform="rotate(90 865.125 505.125)" fill="url(#paint21_linear_1_935)" stroke="#353535" stroke-width="2.25" d="M865.125 505.125h72v72h-72z"/><path transform="rotate(90 430.875 793.125)" fill="url(#paint22_linear_1_935)" stroke="#353535" stroke-width="2.25" d="M430.875 793.125h72v72h-72z"/><path transform="rotate(90 865.125 577.125)" fill="url(#paint23_linear_1_935)" stroke="#353535" stroke-width="2.25" d="M865.125 577.125h72v72h-72z"/><path transform="rotate(90 358.875 865.125)" fill="url(#paint24_linear_1_935)" stroke="#353535" stroke-width="2.25" d="M358.875 865.125h72v72h-72z"/><path transform="rotate(90 793.125 649.125)" fill="url(#paint25_linear_1_935)" stroke="#353535" stroke-width="2.25" d="M793.125 649.125h72v72h-72z"/><path transform="rotate(90 1078.88 145.125)" fill="url(#paint26_linear_1_935)" stroke="#353535" stroke-width="2.25" d="M1078.88 145.125h72v72h-72z"/><path transform="rotate(90 214.875 649.125)" fill="url(#paint27_linear_1_935)" stroke="#353535" stroke-width="2.25" d="M214.875 649.125h72v72h-72z"/><path transform="rotate(90 358.875 721.125)" fill="url(#paint28_linear_1_935)" stroke="#353535" stroke-width="2.25" d="M358.875 721.125h72v72h-72z"/><path transform="rotate(90 793.125 505.125)" fill="url(#paint29_linear_1_935)" stroke="#353535" stroke-width="2.25" d="M793.125 505.125h72v72h-72z"/><path transform="rotate(90 358.875 793.125)" fill="url(#paint30_linear_1_935)" stroke="#353535" stroke-width="2.25" d="M358.875 793.125h72v72h-72z"/><path transform="rotate(90 793.125 577.125)" fill="url(#paint31_linear_1_935)" stroke="#353535" stroke-width="2.25" d="M793.125 577.125h72v72h-72z"/><path transform="rotate(90 286.875 865.125)" fill="url(#paint32_linear_1_935)" stroke="#353535" stroke-width="2.25" d="M286.875 865.125h72v72h-72z"/><path transform="rotate(90 721.125 649.125)" fill="url(#paint33_linear_1_935)" stroke="#353535" stroke-width="2.25" d="M721.125 649.125h72v72h-72z"/><path transform="rotate(90 1006.87 145.125)" fill="url(#paint34_linear_1_935)" stroke="#353535" stroke-width="2.25" d="M1006.87 145.125h72v72h-72z"/><path transform="rotate(90 142.875 649.125)" fill="url(#paint35_linear_1_935)" stroke="#353535" stroke-width="2.25" d="M142.875 649.125h72v72h-72z"/><path transform="rotate(90 286.875 721.125)" fill="url(#paint36_linear_1_935)" stroke="#353535" stroke-width="2.25" d="M286.875 721.125h72v72h-72z"/><path transform="rotate(90 721.125 505.125)" fill="url(#paint37_linear_1_935)" stroke="#353535" stroke-width="2.25" d="M721.125 505.125h72v72h-72z"/><path transform="rotate(90 286.875 793.125)" fill="url(#paint38_linear_1_935)" stroke="#353535" stroke-width="2.25" d="M286.875 793.125h72v72h-72z"/><path transform="rotate(90 721.125 577.125)" fill="url(#paint39_linear_1_935)" stroke="#353535" stroke-width="2.25" d="M721.125 577.125h72v72h-72z"/><path transform="rotate(90 214.875 865.125)" fill="url(#paint40_linear_1_935)" stroke="#353535" stroke-width="2.25" d="M214.875 865.125h72v72h-72z"/><circle cx="796.5" cy="1008" r="1296" transform="rotate(90 796.5 1008)" fill="url(#paint41_radial_1_935)" fill-opacity=".6"/></g></g><defs><linearGradient id="paint0_linear_1_935" x1="1261.12" y1="144" x2="1261.12" y2="218.25" gradientUnits="userSpaceOnUse"><stop stop-color="#232323"/><stop offset="1" stop-color="#242424"/></linearGradient><linearGradient id="paint1_linear_1_935" x1="397.125" y1="648" x2="397.125" y2="722.25" gradientUnits="userSpaceOnUse"><stop stop-color="#232323"/><stop offset="1" stop-color="#242424"/></linearGradient><linearGradient id="paint2_linear_1_935" x1="831.375" y1="432" x2="831.375" y2="506.25" gradientUnits="userSpaceOnUse"><stop stop-color="#232323"/><stop offset="1" stop-color="#242424"/></linearGradient><linearGradient id="paint3_linear_1_935" x1="541.125" y1="720" x2="541.125" y2="794.25" gradientUnits="userSpaceOnUse"><stop stop-color="#232323"/><stop offset="1" stop-color="#242424"/></linearGradient><linearGradient id="paint4_linear_1_935" x1="975.375" y1="504" x2="975.375" y2="578.25" gradientUnits="userSpaceOnUse"><stop stop-color="#232323"/><stop offset="1" stop-color="#242424"/></linearGradient><linearGradient id="paint5_linear_1_935" x1="541.125" y1="792" x2="541.125" y2="866.25" gradientUnits="userSpaceOnUse"><stop stop-color="#232323"/><stop offset="1" stop-color="#242424"/></linearGradient><linearGradient id="paint6_linear_1_935" x1="975.375" y1="576" x2="975.375" y2="650.25" gradientUnits="userSpaceOnUse"><stop stop-color="#232323"/><stop offset="1" stop-color="#242424"/></linearGradient><linearGradient id="paint7_linear_1_935" x1="469.125" y1="864" x2="469.125" y2="938.25" gradientUnits="userSpaceOnUse"><stop stop-color="#232323"/><stop offset="1" stop-color="#242424"/></linearGradient><linearGradient id="paint8_linear_1_935" x1="903.375" y1="648" x2="903.375" y2="722.25" gradientUnits="userSpaceOnUse"><stop stop-color="#232323"/><stop offset="1" stop-color="#242424"/></linearGradient><linearGradient id="paint9_linear_1_935" x1="1333.13" y1="792" x2="1333.13" y2="866.25" gradientUnits="userSpaceOnUse"><stop stop-color="#232323"/><stop offset="1" stop-color="#242424"/></linearGradient><linearGradient id="paint10_linear_1_935" x1="1261.12" y1="864" x2="1261.12" y2="938.25" gradientUnits="userSpaceOnUse"><stop stop-color="#232323"/><stop offset="1" stop-color="#242424"/></linearGradient><linearGradient id="paint11_linear_1_935" x1="469.125" y1="144" x2="469.125" y2="218.25" gradientUnits="userSpaceOnUse"><stop stop-color="#232323"/><stop offset="1" stop-color="#242424"/></linearGradient><linearGradient id="paint12_linear_1_935" x1="397.125" y1="144" x2="397.125" y2="218.25" gradientUnits="userSpaceOnUse"><stop stop-color="#232323"/><stop offset="1" stop-color="#242424"/></linearGradient><linearGradient id="paint13_linear_1_935" x1="469.125" y1="216" x2="469.125" y2="290.25" gradientUnits="userSpaceOnUse"><stop stop-color="#232323"/><stop offset="1" stop-color="#242424"/></linearGradient><linearGradient id="paint14_linear_1_935" x1="397.125" y1="216" x2="397.125" y2="290.25" gradientUnits="userSpaceOnUse"><stop stop-color="#232323"/><stop offset="1" stop-color="#242424"/></linearGradient><linearGradient id="paint15_linear_1_935" x1="1189.13" y1="936" x2="1189.13" y2="1010.25" gradientUnits="userSpaceOnUse"><stop stop-color="#232323"/><stop offset="1" stop-color="#242424"/></linearGradient><linearGradient id="paint16_linear_1_935" x1="1117.13" y1="1008" x2="1117.13" y2="1082.25" gradientUnits="userSpaceOnUse"><stop stop-color="#232323"/><stop offset="1" stop-color="#242424"/></linearGradient><linearGradient id="paint17_linear_1_935" x1="1189.13" y1="144" x2="1189.13" y2="218.25" gradientUnits="userSpaceOnUse"><stop stop-color="#232323"/><stop offset="1" stop-color="#242424"/></linearGradient><linearGradient id="paint18_linear_1_935" x1="325.125" y1="648" x2="325.125" y2="722.25" gradientUnits="userSpaceOnUse"><stop stop-color="#232323"/><stop offset="1" stop-color="#242424"/></linearGradient><linearGradient id="paint19_linear_1_935" x1="759.375" y1="432" x2="759.375" y2="506.25" gradientUnits="userSpaceOnUse"><stop stop-color="#232323"/><stop offset="1" stop-color="#242424"/></linearGradient><linearGradient id="paint20_linear_1_935" x1="469.125" y1="720" x2="469.125" y2="794.25" gradientUnits="userSpaceOnUse"><stop stop-color="#232323"/><stop offset="1" stop-color="#242424"/></linearGradient><linearGradient id="paint21_linear_1_935" x1="903.375" y1="504" x2="903.375" y2="578.25" gradientUnits="userSpaceOnUse"><stop stop-color="#232323"/><stop offset="1" stop-color="#242424"/></linearGradient><linearGradient id="paint22_linear_1_935" x1="469.125" y1="792" x2="469.125" y2="866.25" gradientUnits="userSpaceOnUse"><stop stop-color="#232323"/><stop offset="1" stop-color="#242424"/></linearGradient><linearGradient id="paint23_linear_1_935" x1="903.375" y1="576" x2="903.375" y2="650.25" gradientUnits="userSpaceOnUse"><stop stop-color="#232323"/><stop offset="1" stop-color="#242424"/></linearGradient><linearGradient id="paint24_linear_1_935" x1="397.125" y1="864" x2="397.125" y2="938.25" gradientUnits="userSpaceOnUse"><stop stop-color="#232323"/><stop offset="1" stop-color="#242424"/></linearGradient><linearGradient id="paint25_linear_1_935" x1="831.375" y1="648" x2="831.375" y2="722.25" gradientUnits="userSpaceOnUse"><stop stop-color="#232323"/><stop offset="1" stop-color="#242424"/></linearGradient><linearGradient id="paint26_linear_1_935" x1="1117.13" y1="144" x2="1117.13" y2="218.25" gradientUnits="userSpaceOnUse"><stop stop-color="#232323"/><stop offset="1" stop-color="#242424"/></linearGradient><linearGradient id="paint27_linear_1_935" x1="253.125" y1="648" x2="253.125" y2="722.25" gradientUnits="userSpaceOnUse"><stop stop-color="#232323"/><stop offset="1" stop-color="#242424"/></linearGradient><linearGradient id="paint28_linear_1_935" x1="397.125" y1="720" x2="397.125" y2="794.25" gradientUnits="userSpaceOnUse"><stop stop-color="#232323"/><stop offset="1" stop-color="#242424"/></linearGradient><linearGradient id="paint29_linear_1_935" x1="831.375" y1="504" x2="831.375" y2="578.25" gradientUnits="userSpaceOnUse"><stop stop-color="#232323"/><stop offset="1" stop-color="#242424"/></linearGradient><linearGradient id="paint30_linear_1_935" x1="397.125" y1="792" x2="397.125" y2="866.25" gradientUnits="userSpaceOnUse"><stop stop-color="#232323"/><stop offset="1" stop-color="#242424"/></linearGradient><linearGradient id="paint31_linear_1_935" x1="831.375" y1="576" x2="831.375" y2="650.25" gradientUnits="userSpaceOnUse"><stop stop-color="#232323"/><stop offset="1" stop-color="#242424"/></linearGradient><linearGradient id="paint32_linear_1_935" x1="325.125" y1="864" x2="325.125" y2="938.25" gradientUnits="userSpaceOnUse"><stop stop-color="#232323"/><stop offset="1" stop-color="#242424"/></linearGradient><linearGradient id="paint33_linear_1_935" x1="759.375" y1="648" x2="759.375" y2="722.25" gradientUnits="userSpaceOnUse"><stop stop-color="#232323"/><stop offset="1" stop-color="#242424"/></linearGradient><linearGradient id="paint34_linear_1_935" x1="1045.12" y1="144" x2="1045.12" y2="218.25" gradientUnits="userSpaceOnUse"><stop stop-color="#232323"/><stop offset="1" stop-color="#242424"/></linearGradient><linearGradient id="paint35_linear_1_935" x1="181.125" y1="648" x2="181.125" y2="722.25" gradientUnits="userSpaceOnUse"><stop stop-color="#232323"/><stop offset="1" stop-color="#242424"/></linearGradient><linearGradient id="paint36_linear_1_935" x1="325.125" y1="720" x2="325.125" y2="794.25" gradientUnits="userSpaceOnUse"><stop stop-color="#232323"/><stop offset="1" stop-color="#242424"/></linearGradient><linearGradient id="paint37_linear_1_935" x1="759.375" y1="504" x2="759.375" y2="578.25" gradientUnits="userSpaceOnUse"><stop stop-color="#232323"/><stop offset="1" stop-color="#242424"/></linearGradient><linearGradient id="paint38_linear_1_935" x1="325.125" y1="792" x2="325.125" y2="866.25" gradientUnits="userSpaceOnUse"><stop stop-color="#232323"/><stop offset="1" stop-color="#242424"/></linearGradient><linearGradient id="paint39_linear_1_935" x1="759.375" y1="576" x2="759.375" y2="650.25" gradientUnits="userSpaceOnUse"><stop stop-color="#232323"/><stop offset="1" stop-color="#242424"/></linearGradient><linearGradient id="paint40_linear_1_935" x1="253.125" y1="864" x2="253.125" y2="938.25" gradientUnits="userSpaceOnUse"><stop stop-color="#232323"/><stop offset="1" stop-color="#242424"/></linearGradient><radialGradient id="paint41_radial_1_935" cx="0" cy="0" r="1" gradientUnits="userSpaceOnUse" gradientTransform="matrix(1348.0992 123.99962 -41.8069 454.51633 796.5 1008)"><stop stop-color="#030014" stop-opacity="0"/><stop offset="1" stop-color="#030014"/></radialGradient><clipPath id="clip0_1_935"><path fill="#fff" transform="rotate(90 720 720)" d="M0 0h2016v1440H0z"/></clipPath></defs></svg>