<svg width="189" height="138" fill="none" xmlns="http://www.w3.org/2000/svg"><rect y="97.954" width="187" height="46" rx="23" transform="rotate(-29.454 0 97.954)" fill="#FFEB1C"/><path d="M57.96 95.164l5.475-3.092c.229.275.539.45.93.523.382.06.839.022 1.37-.112.522-.148 1.104-.403 1.745-.765.835-.472 1.436-.922 1.801-1.349.38-.434.463-.84.25-1.216-.14-.25-.391-.385-.75-.403-.367-.031-.978.157-1.831.566l-2.686 1.296c-2.44 1.176-4.424 1.635-5.949 1.375-1.524-.26-2.68-1.086-3.467-2.48-.66-1.17-.877-2.334-.65-3.492.23-1.158.832-2.27 1.81-3.337.992-1.074 2.296-2.068 3.912-2.98 1.574-.89 3.093-1.453 4.557-1.692 1.47-.26 2.784-.194 3.943.199a5.112 5.112 0 0 1 2.761 2.106l-5.475 3.092c-.184-.227-.445-.364-.784-.412-.325-.055-.724-.013-1.197.125-.473.139-1.01.377-1.608.716-.767.432-1.33.851-1.689 1.256-.345.397-.42.77-.223 1.118.134.237.373.368.719.394.359.018.923-.154 1.693-.515l3.032-1.464c1.588-.768 2.957-1.239 4.11-1.411 1.143-.187 2.108-.089 2.894.294.8.375 1.46 1.022 1.98 1.942.652 1.156.881 2.36.686 3.609-.195 1.249-.774 2.467-1.739 3.655-.958 1.166-2.26 2.214-3.904 3.142-1.7.96-3.32 1.572-4.861 1.836-1.542.264-2.91.183-4.107-.244a5.211 5.211 0 0 1-2.748-2.28zm23.685-10.04l-2.42-4.284 10.68-6.03 2.419 4.283-10.68 6.031zm1.664-18.139l15.726 11.791-5.747 3.246L80.37 71.787l1.38-.779 2.092 16.348-5.746 3.245-1.976-19.556 7.189-4.06zm14.087-7.955l7.506 13.291-3.794-1.055 11.662-6.585 2.714 4.806-14.629 8.261-8.85-15.673 5.39-3.045zm28.918-8.447l2.1 3.72-11.807 6.667-2.101-3.72 11.808-6.667zm-7.058 6.438l2.331 6.374-3.323-1.1 11.891-6.716 2.408 4.263-15.172 8.568-3.276-8.485-5.575-7.188 15.067-8.509 2.408 4.263-11.787 6.656.774-3.413 4.254 5.287z" fill="#151515"/><circle cx="163" cy="31" r="3" fill="#151515"/><circle cx="182" cy="5" r="3" fill="#151515"/><path d="M182.389 3.591c3.503 2.861 5.821 7.123 6.443 11.849.623 4.725-.501 9.527-3.124 13.348-2.623 3.822-6.53 6.35-10.861 7.029-4.332.679-8.733-.547-12.236-3.408l1.312-1.913c3.038 2.482 6.856 3.545 10.612 2.956 3.757-.589 7.145-2.781 9.42-6.096 2.275-3.314 3.249-7.478 2.71-11.576-.54-4.099-2.55-7.795-5.588-10.276l1.312-1.913z" fill="#fff"/></svg>