<svg width="111" height="26" fill="none" xmlns="http://www.w3.org/2000/svg"><mask id="a" style="mask-type:alpha" maskUnits="userSpaceOnUse" x="0" y="0" width="111" height="26"><path fill-rule="evenodd" clip-rule="evenodd" d="M0 .889h110.25v24.5H0V.889z" fill="#fff"/></mask><g mask="url(#a)" fill-rule="evenodd" clip-rule="evenodd"><path d="M7.426 12.665c2.615 0 4.29-.44 5.51-1.42 1.08-.88 1.603-2.065 1.603-3.52 0-1.794-.801-3.012-2.056-3.824-1.36-.88-3.034-1.117-5.858-1.117H2.127v9.881h5.3zM.001.89h6.764c2.928 0 5.195.34 6.973 1.456 1.709 1.083 2.929 2.842 2.929 5.279 0 2.233-1.046 4.06-2.65 5.176-1.15.813-2.51 1.22-4.08 1.456l8.438 11.132h-2.58L7.566 14.426H2.127v10.963H0V.888zm42.874 7.655h1.531V25.39h-1.531V8.545zm8.077 13.37c1.859 1.114 4.243 1.704 6.522 1.704 2.91 0 4.77-.95 4.77-2.883 0-2.425-2.876-2.688-5.576-3.081-2.875-.426-6.137-1.212-6.137-4.49 0-3.047 2.77-4.62 6.698-4.62 2.244 0 4.524.524 6.208 1.377v2.031c-1.824-1.08-4.139-1.638-6.277-1.638-2.7 0-4.56.885-4.56 2.72 0 2.26 2.806 2.49 5.4 2.884 3.122.459 6.313 1.245 6.313 4.653 0 3.179-2.77 4.817-6.944 4.817-2.28 0-4.664-.492-6.417-1.41v-2.064zm19.747-2.421v-8.957h-3.324V8.825H70.7V4.28l2-.329v4.874h5.394v1.712H72.7v8.628c0 2.437.372 4.445 3.018 4.446.882 0 1.73-.23 2.375-.593v1.844c-.645.296-1.629.527-2.646.527-1.221 0-2.612-.33-3.562-1.384-.848-.954-1.187-2.403-1.187-4.511zm21.127 2.264v-3.63c-1.252-.36-2.7-.588-4.018-.588-2.305 0-4.676.719-4.675 3.107 0 2.093 1.81 3.008 3.786 3.009 1.844 0 3.622-.785 4.907-1.898zm-8.99 2.519c-1.054-.785-1.68-1.962-1.68-3.467 0-1.7.79-2.91 2.042-3.729 1.219-.784 2.865-1.078 4.446-1.079 1.482 0 2.831.23 4.182.59v-1.865c0-1.57-.297-2.584-1.186-3.369-.758-.654-1.876-1.014-3.326-1.014-1.91 0-3.655.622-4.972 1.57v-1.93c1.317-.817 3.128-1.438 5.17-1.439 1.943 0 3.523.491 4.61 1.407 1.086.916 1.647 2.355 1.647 4.318v6.966c-.001 1.373.328 2.387 1.646 2.387.395 0 .757-.098 1.054-.261v1.668c-.363.163-.856.261-1.417.261-1.383 0-2.47-.654-2.93-1.897h-.066c-1.218 1.047-3.194 1.995-5.4 1.995-1.384 0-2.767-.327-3.82-1.112zm20.019-4.783l.001-8.957h-3.325V8.825h3.325V4.281l2.001-.33v4.874h5.393v1.712h-5.393v8.628c0 2.437.372 4.446 3.018 4.446.882 0 1.73-.23 2.375-.593l-.001 1.844c-.644.297-1.627.527-2.645.527-1.221 0-2.612-.33-3.562-1.383-.848-.955-1.187-2.404-1.187-4.512z" fill="#fff"/><path d="M32.44 14.572c.47.674.745 1.499.745 2.395 0 2.294-1.777 4.13-4.091 4.13-2.313 0-4.09-1.836-4.09-4.13 0-2.293 1.777-4.129 4.09-4.129 1.032 0 1.956.368 2.664.976l3.008-3.559c-1.538-1.077-3.489-1.71-5.671-1.71-5.265 0-9.188 3.67-9.189 8.422 0 4.752 3.924 8.422 9.188 8.422 5.264 0 9.187-3.67 9.187-8.421 0-1.974-.678-3.76-1.847-5.175l-3.993 2.779zm11.106-9.089l3.923-2.958a8.58 8.58 0 0 0-1.64-1.636l-2.954 3.787c.254.236.478.508.67.807z" fill="#2589FF"/></g></svg>