<svg><defs><font id="Unbounded-Medium" horiz-adv-x="1754" vert-adv-y="1754"><font-face font-family="Unbounded Medium" font-weight="400" ascent="995" descent="-245"/><glyph glyph-name="uni41" unicode="A" d="M200 158v138h520V158H200m373 592L924 0H743L436 681h56L185 0H4l351 750h218z" horiz-adv-x="928" vert-adv-y="1000"/><glyph glyph-name="unic1" unicode="Á" d="M200 158v138h520V158H200m373 592L924 0H743L436 681h56L185 0H4l351 750h218m-69 219h193L528 808H357l147 161z" horiz-adv-x="928" vert-adv-y="1000"/><glyph glyph-name="uni0102" unicode="Ă" d="M200 158v138h520V158H200m373 592L924 0H743L436 681h56L185 0H4l351 750h218M229 972h130q13-32 39-48.5t66-16.5q40 0 66 16.5t39 48.5h130q-22-85-84-127.5T464 802q-88 0-150.5 42.5T229 972z" horiz-adv-x="928" vert-adv-y="1000"/><glyph glyph-name="uni1EAE" unicode="Ắ" d="M200 158v138h520V158H200m373 592L924 0H743L436 681h56L185 0H4l351 750h218m-95 385h156L521 986H390l88 149M229 972h129q14-32 39.5-48.5T463 907q40 0 66 16.5t40 48.5h129q-21-85-83.5-127.5T463 802q-88 0-150.5 42.5T229 972z" horiz-adv-x="928" vert-adv-y="1000"/><glyph glyph-name="uni1EB6" unicode="Ặ" d="M200 158v138h520V158H200m373 592L924 0H743L436 681h56L185 0H4l351 750h218M464-226q-45 0-73.5 23.5T362-140q0 40 28.5 63.5T464-53q46 0 74-23.5t28-63.5q0-39-28-62.5T464-226M229 972h130q13-32 39-48.5t66-16.5q40 0 66 16.5t39 48.5h130q-22-85-84-127.5T464 802q-88 0-150.5 42.5T229 972z" horiz-adv-x="928" vert-adv-y="1000"/><glyph glyph-name="uni1EB0" unicode="Ằ" d="M200 158v138h520V158H200m373 592L924 0H743L436 681h56L185 0H4l351 750h218m-135 385l88-149H395l-113 149h156M229 972h129q14-32 39.5-48.5T463 907q40 0 66 16.5t40 48.5h129q-21-85-83.5-127.5T463 802q-88 0-150.5 42.5T229 972z" horiz-adv-x="928" vert-adv-y="1000"/><glyph glyph-name="uni1EB2" unicode="Ẳ" d="M200 158v138h520V158H200m373 592L924 0H743L436 681h56L185 0H4l351 750h218M451 972l-32 46q32 11 46 23t14 24q0 32-59 32-14 0-30-2t-32-6v89q18 5 45 9t59 4q72 0 112.5-25t40.5-70q0-43-40.5-74T451 972m-222 0h129q14-32 39.5-48.5T463 907q40 0 66 16.5t40 48.5h129q-21-85-83.5-127.5T463 802q-88 0-150.5 42.5T229 972z" horiz-adv-x="928" vert-adv-y="1000"/><glyph glyph-name="uni1EB4" unicode="Ẵ" d="M200 158v138h520V158H200m373 592L924 0H743L436 681h56L185 0H4l351 750h218m-327 256q4 69 37 112t91 43q29 0 51.5-7.5t41-17.5q18.5-10 34-18t30.5-8q19 0 30.5 13t15.5 37h103q-4-71-36.5-113t-91.5-42q-29 0-51.5 8t-41 18q-18.5 10-34 17.5T395 1056q-19 0-30-13t-16-37H246m-17-34h129q14-32 39.5-48.5T463 907q40 0 66 16.5t40 48.5h129q-21-85-83.5-127.5T463 802q-88 0-150.5 42.5T229 972z" horiz-adv-x="928" vert-adv-y="1000"/><glyph glyph-name="uni01CD" unicode="Ǎ" d="M200 158v138h520V158H200m373 592L924 0H743L436 681h56L185 0H4l351 750h218m-18 58H374L224 968h143l135-104h-75l135 104h142L555 808z" horiz-adv-x="928" vert-adv-y="1000"/><glyph glyph-name="unic2" unicode="Â" d="M200 158v138h520V158H200m373 592L924 0H743L436 681h56L185 0H4l351 750h218M373 969h181l150-161H561L426 912h75L366 808H224l149 161z" horiz-adv-x="928" vert-adv-y="1000"/><glyph glyph-name="uni1EA4" unicode="Ấ" d="M200 158v138h520V158H200m373 592L924 0H743L436 681h56L185 0H4l351 750h218m128 335h155L744 937H613l88 148M374 969h180l151-161H561L426 912h76L367 808H224l150 161z" horiz-adv-x="928" vert-adv-y="1000"/><glyph glyph-name="uni1EAC" unicode="Ậ" d="M200 158v138h520V158H200m373 592L924 0H743L436 681h56L185 0H4l351 750h218M464-226q-45 0-73.5 23.5T362-140q0 40 28.5 63.5T464-53q46 0 74-23.5t28-63.5q0-39-28-62.5T464-226M373 969h181l150-161H561L426 912h75L366 808H224l149 161z" horiz-adv-x="928" vert-adv-y="1000"/><glyph glyph-name="uni1EA6" unicode="Ầ" d="M200 158v138h520V158H200m373 592L924 0H743L436 681h56L185 0H4l351 750h218m104 335l88-148H634l-112 148h155M374 969h180l151-161H561L426 912h76L367 808H224l150 161z" horiz-adv-x="928" vert-adv-y="1000"/><glyph glyph-name="uni1EA8" unicode="Ẩ" d="M200 158v138h520V158H200m373 592L924 0H743L436 681h56L185 0H4l351 750h218m86 165l-32 47q32 10 46 22t14 25q0 31-59 31-14 0-30-2t-32-6v89q17 6 44.5 10t59.5 4q72 0 112.5-25.5T823 1039q0-43-40.5-74T659 915m-285 54h180l151-161H561L426 912h76L367 808H224l150 161z" horiz-adv-x="928" vert-adv-y="1000"/><glyph glyph-name="uni1EAA" unicode="Ẫ" d="M200 158v138h520V158H200m373 592L924 0H743L436 681h56L185 0H4l351 750h218m-331 254q4 70 37 113t91 43q29 0 51.5-7.5t40.5-18q18-10.5 34-18t31-7.5q18 0 29.5 13t15.5 37h104q-4-72-37-113.5t-92-41.5q-28 0-51 8t-41 17.5q-18 9.5-34 17.5t-31 8q-18 0-29.5-13t-15.5-38H242m131-35h181l150-161H561L426 912h75L366 808H224l149 161z" horiz-adv-x="928" vert-adv-y="1000"/><glyph glyph-name="uni0200" unicode="Ȁ" d="M200 158v138h520V158H200m373 592L924 0H743L436 681h56L185 0H4l351 750h218m-36 219l122-161H509L373 969h164m-241 0l121-161H268L132 969h164z" horiz-adv-x="928" vert-adv-y="1000"/><glyph glyph-name="unic4" unicode="Ä" d="M200 158v138h520V158H200m373 592L924 0H743L436 681h56L185 0H4l351 750h218m-261 65q-43 0-69 23t-26 61q0 37 26 59.5t69 22.5q44 0 70-22.5t26-59.5q0-38-26-61t-70-23m303 0q-43 0-69.5 23T519 899q0 37 26.5 59.5T615 981q43 0 69.5-22.5T711 899q0-38-26.5-61T615 815z" horiz-adv-x="928" vert-adv-y="1000"/><glyph glyph-name="uni01DE" unicode="Ǟ" d="M200 158v138h520V158H200m373 592L924 0H743L436 681h56L185 0H4l351 750h218m-260 65q-43 0-69 23t-26 61q0 37 26 59.5t69 22.5q44 0 70-22.5t26-59.5q0-38-26-61t-70-23m303 0q-43 0-69.5 23T520 899q0 37 26.5 59.5T616 981q43 0 69.5-22.5T712 899q0-38-26.5-61T616 815m-381 218v104h460v-104H235z" horiz-adv-x="928" vert-adv-y="1000"/><glyph glyph-name="uni0226" unicode="Ȧ" d="M200 158v138h520V158H200m373 592L924 0H743L436 681h56L185 0H4l351 750h218m-109 65q-45 0-73.5 23.5T362 902q0 39 28.5 63t73.5 24q46 0 74-24t28-63q0-40-28-63.5T464 815z" horiz-adv-x="928" vert-adv-y="1000"/><glyph glyph-name="uni1EA0" unicode="Ạ" d="M200 158v138h520V158H200m373 592L924 0H743L436 681h56L185 0H4l351 750h218M464-226q-45 0-73.5 23.5T362-140q0 40 28.5 63.5T464-53q46 0 74-23.5t28-63.5q0-39-28-62.5T464-226z" horiz-adv-x="928" vert-adv-y="1000"/><glyph glyph-name="uni01E0" unicode="Ǡ" d="M200 158v138h520V158H200m373 592L924 0H743L436 681h56L185 0H4l351 750h218m-108 65q-45 0-73.5 23.5T363 902q0 39 28.5 63t73.5 24q46 0 74-24t28-63q0-40-28-63.5T465 815m-231 218v104h460v-104H234z" horiz-adv-x="928" vert-adv-y="1000"/><glyph glyph-name="unic0" unicode="À" d="M200 158v138h520V158H200m373 592L924 0H743L436 681h56L185 0H4l351 750h218M412 969l147-161H388L219 969h193z" horiz-adv-x="928" vert-adv-y="1000"/><glyph glyph-name="uni1EA2" unicode="Ả" d="M200 158v138h520V158H200m373 592L924 0H743L436 681h56L185 0H4l351 750h218m-148 44l-34 57q48 8 68.5 19.5T480 896q0 13-16 19t-47 6q-24 0-44-3t-42-7v90q20 6 53.5 11t69.5 5q82 0 125.5-23.5T623 919q0-46-46-77t-152-48z" horiz-adv-x="928" vert-adv-y="1000"/><glyph glyph-name="uni0202" unicode="Ȃ" d="M200 158v138h520V158H200m373 592L924 0H743L436 681h56L185 0H4l351 750h218m126 55H569q-13 31-39 48t-66 17q-39 0-65.5-17T359 805H229q22 85 84.5 127.5T464 975q90 0 152-42.5T699 805z" horiz-adv-x="928" vert-adv-y="1000"/><glyph glyph-name="uni2C6D" unicode="Ɑ" d="M755 0l-30 277 29 99-29 97 30 277h162l-42-374L917 0H755m48 376q-22-118-75-206T595 33.5Q515-15 412-15q-110 0-193.5 49t-130 136.5Q42 258 42 375t46.5 204.5Q135 667 218.5 716T412 765q103 0 183-47.5t133.5-135Q782 495 803 376m-589 0q0-70 30.5-125t84-86Q382 134 453 134q66 0 121.5 31t97.5 86q42 55 66 125-24 70-66 124t-97.5 85Q519 616 453 616q-70 0-124-31t-84.5-85Q214 446 214 376z" horiz-adv-x="977" vert-adv-y="1000"/><glyph glyph-name="uni2C70" unicode="Ɒ" d="M222 0H59l43 376-43 374h163l30-277-29-97 29-99L222 0m-48 376q21 119 74 206.5t134 135Q463 765 565 765q110 0 193.5-49T888 579.5Q934 492 934 375t-46-204.5Q842 83 758.5 34T565-15q-103 0-183 48.5T249 170q-53 88-75 206m589 0q0 70-30.5 124t-84 85Q595 616 523 616q-65 0-121-31t-97.5-85Q263 446 238 376q25-70 67-125t97.5-86Q458 134 523 134q72 0 125.5 31t84 86Q763 306 763 376z" horiz-adv-x="977" vert-adv-y="1000"/><glyph glyph-name="uni0100" unicode="Ā" d="M200 158v138h520V158H200m373 592L924 0H743L436 681h56L185 0H4l351 750h218m-339 83v104h460V833H234z" horiz-adv-x="928" vert-adv-y="1000"/><glyph glyph-name="uni0104" unicode="Ą" d="M200 158v138h520V158H200m373 592L924 0H743L436 681h56L185 0H4l351 750h218M839 18l63-5V0h22q-36-10-63-22.5t-42.5-25Q803-60 803-74q0-28 61-28 17 0 32 1.5t28 4.5v-95q-13-5-41.5-9t-58.5-4q-66 0-106 26t-40 69q0 43 39.5 74T839 18z" horiz-adv-x="928" vert-adv-y="1000"/><glyph glyph-name="unic5" unicode="Å" d="M200 158v138h520V158H200m373 592L924 0H743L436 681h56L185 0H4l351 750h218m-108 43q-85 0-133 33.5T284 919q0 59 48 92.5t133 33.5q86 0 133-33.5t47-92.5q0-59-47-92.5T465 793m0 77q43 0 63.5 12.5T549 919q0 24-20.5 36.5T465 968q-44 0-64.5-12.5T380 919q0-24 20.5-36.5T465 870z" horiz-adv-x="928" vert-adv-y="1000"/><glyph glyph-name="uni01FA" unicode="Ǻ" d="M468 1200h155l-101-175H397l71 175M200 158v138h520V158H200m373 592L924 0H743L436 681h56L185 0H4l351 750h218m-109 43q-85 0-132.5 33.5T284 919q0 59 47.5 92.5T464 1045q86 0 133.5-33.5T645 919q0-59-47.5-92.5T464 793m0 77q44 0 64.5 12.5T549 919q0 24-20.5 36.5T464 968q-43 0-63.5-12.5T380 919q0-24 20.5-36.5T464 870z" horiz-adv-x="928" vert-adv-y="1000"/><glyph glyph-name="uni1E00" unicode="Ḁ" d="M200 158v138h520V158H200m373 592L924 0H743L436 681h56L185 0H4l351 750h218M464-303q-80 0-127 35t-47 96q0 60 47 95t127 35q82 0 128-35t46-95q0-61-46-96t-128-35m0 73q37 0 57.5 15t20.5 42q0 29-20 44t-58 15q-36 0-56.5-15T387-173q0-27 20.5-42t56.5-15z" horiz-adv-x="928" vert-adv-y="1000"/><glyph glyph-name="uni023A" unicode="Ⱥ" d="M629 872h116L346-122H230l399 994M201 158v138h520V158H201m373 592L925 0H744L437 681h55L186 0H5l350 750h219z" horiz-adv-x="929" vert-adv-y="1000"/><glyph glyph-name="unic3" unicode="Ã" d="M200 158v138h520V158H200m373 592L924 0H743L436 681h56L185 0H4l351 750h218m-364 64q9 73 47.5 115.5T367 972q28 0 53.5-8t49.5-17.5q24-9.5 45-17.5t39-8q22 0 36 12t17 35h112q-9-72-48-115t-111-43q-27 0-53 8t-49.5 18q-23.5 10-45 18t-38.5 8q-22 0-36-12.5T321 814H209z" horiz-adv-x="928" vert-adv-y="1000"/><glyph glyph-name="uni2C6F" unicode="Ɐ" d="M729 592V454H208v138h521M355 0L5 750h181L492 69h-55l307 681h181L574 0H355z" horiz-adv-x="929" vert-adv-y="1000"/><glyph glyph-name="unic6" unicode="Æ" d="M751 310l70-169h396V0H702L420 708h63L188 0H7l325 750h855V609H631l69-169h461V310H751M187 158v138h499V158H187z" horiz-adv-x="1253" vert-adv-y="1000"/><glyph glyph-name="uni01FC" unicode="Ǽ" d="M751 310l70-169h396V0H702L420 708h63L188 0H7l325 750h855V609H631l69-169h461V310H751M187 158v138h499V158H187m593 811h193L804 808H633l147 161z" horiz-adv-x="1253" vert-adv-y="1000"/><glyph glyph-name="uni01E2" unicode="Ǣ" d="M751 310l70-169h396V0H702L420 708h63L188 0H7l325 750h855V609H631l69-169h461V310H751M187 158v138h499V158H187m323 675v104h460V833H510z" horiz-adv-x="1253" vert-adv-y="1000"/><glyph glyph-name="uni42" unicode="B" d="M558 370l16 34q87-2 144-27.5t84-69q27-43.5 27-99.5 0-60-28.5-107T717 27Q662 0 579 0H53l58 385-58 365h507q104 0 161.5-48.5T779 568q0-46-21.5-89t-70-72.5Q639 377 558 370M221 43l-65 82h388q54 0 83.5 25.5T657 222q0 47-34 74.5T523 324H207v122h296q45 0 74.5 25.5T607 543q0 35-25 58.5T510 625H156l65 82 53-322-53-342z" horiz-adv-x="865" vert-adv-y="1000"/><glyph glyph-name="uni1E02" unicode="Ḃ" d="M558 370l16 34q87-2 144-27.5t84-69q27-43.5 27-99.5 0-60-28.5-107T717 27Q662 0 579 0H53l58 385-58 365h507q104 0 161.5-48.5T779 568q0-46-21.5-89t-70-72.5Q639 377 558 370M221 43l-65 82h388q54 0 83.5 25.5T657 222q0 47-34 74.5T523 324H207v122h296q45 0 74.5 25.5T607 543q0 35-25 58.5T510 625H156l65 82 53-322-53-342m197 772q-45 0-73.5 23.5T316 902q0 39 28.5 63t73.5 24q46 0 74-24t28-63q0-40-28-63.5T418 815z" horiz-adv-x="865" vert-adv-y="1000"/><glyph glyph-name="uni1E04" unicode="Ḅ" d="M558 370l16 34q87-2 144-27.5t84-69q27-43.5 27-99.5 0-60-28.5-107T717 27Q662 0 579 0H53l58 385-58 365h507q104 0 161.5-48.5T779 568q0-46-21.5-89t-70-72.5Q639 377 558 370M221 43l-65 82h388q54 0 83.5 25.5T657 222q0 47-34 74.5T523 324H207v122h296q45 0 74.5 25.5T607 543q0 35-25 58.5T510 625H156l65 82 53-322-53-342m218-269q-45 0-73.5 23.5T337-140q0 40 28.5 63.5T439-53q46 0 74-23.5t28-63.5q0-39-28-62.5T439-226z" horiz-adv-x="865" vert-adv-y="1000"/><glyph glyph-name="uniA7B4" unicode="Ꞵ" d="M671 394q58-12 95-38.5t55-64q18-37.5 18-83.5 0-60-28-107t-83.5-74Q672 0 590 0H244v-165H77v915h494q104 0 161-48.5T789 568q0-34-12-67.5t-38-61Q713 412 671 394m-53 149q0 35-25 58.5T520 625H244V444h269q45 0 75 26t30 73M244 125h310q54 0 84 25.5t30 71.5q0 47-34 75.5T534 326H244V125z" horiz-adv-x="875" vert-adv-y="1000"/><glyph glyph-name="uni0181" unicode="Ɓ" d="M205 750h548q104 0 161.5-48.5T972 568q0-46-22-89t-70-72.5Q832 377 751 370l15 34q88-2 144.5-27.5t84-69Q1022 264 1022 208q0-60-28.5-107T910 27Q855 0 772 0H245l59 385-52 323 64-84h-73q-37 0-57-18.5T166 545q0-32 6.5-60t15.5-54H59q-14 29-26 67.5T21 580q0 80 47.5 125T205 750M414 43l-65 82h388q53 0 83 25.5t30 71.5q0 47-34 74.5T716 324H400v122h296q44 0 74 25.5t30 71.5q0 35-25 58.5T703 625H349l65 82 52-322-52-342z" horiz-adv-x="1058" vert-adv-y="1000"/><glyph glyph-name="uni1E06" unicode="Ḇ" d="M558 370l16 34q87-2 144-27.5t84-69q27-43.5 27-99.5 0-60-28.5-107T717 27Q662 0 579 0H53l58 385-58 365h507q104 0 161.5-48.5T779 568q0-46-21.5-89t-70-72.5Q639 377 558 370M221 43l-65 82h388q54 0 83.5 25.5T657 222q0 47-34 74.5T523 324H207v122h296q45 0 74.5 25.5T607 543q0 35-25 58.5T510 625H156l65 82 53-322-53-342m-7-214v104h460v-104H214z" horiz-adv-x="865" vert-adv-y="1000"/><glyph glyph-name="uni0243" unicode="Ƀ" d="M23 276h501V169H23v107m589 94l15 34q88-2 144.5-27.5t83.5-69q27-43.5 27-99.5 0-60-28-107t-83.5-74Q715 0 633 0H106l58 385-58 365h508q104 0 161-48.5T832 568q0-46-21.5-89T741 406.5Q693 377 612 370M275 43l-65 80h386q54 0 84 25.5t30 73.5q0 48-34 76.5T575 327H260v116h295q45 0 75 26t30 74q0 37-25 60.5T562 627H210l65 80 52-322-52-342z" horiz-adv-x="918" vert-adv-y="1000"/><glyph glyph-name="uni43" unicode="C" d="M889 305q-11-95-66.5-167.5T676.5 25Q586-15 470-15q-128 0-224.5 49T95 170.5Q41 258 41 375t54 204.5Q149 667 245.5 716T470 765q116 0 206.5-40t146-112Q878 541 889 445H718q-10 53-43 91.5T590 596q-52 21-121 21-79 0-136.5-29.5t-88.5-84Q213 449 213 375t31-128.5q31-54.5 88.5-84T469 133q69 0 121 20.5t85 59q33 38.5 43 92.5h171z" horiz-adv-x="923" vert-adv-y="1000"/><glyph glyph-name="uni0106" unicode="Ć" d="M889 305q-11-95-66.5-167.5T676.5 25Q586-15 470-15q-128 0-224.5 49T95 170.5Q41 258 41 375t54 204.5Q149 667 245.5 716T470 765q116 0 206.5-40t146-112Q878 541 889 445H718q-10 53-43 91.5T590 596q-52 21-121 21-79 0-136.5-29.5t-88.5-84Q213 449 213 375t31-128.5q31-54.5 88.5-84T469 133q69 0 121 20.5t85 59q33 38.5 43 92.5h171M505 969h193L529 808H358l147 161z" horiz-adv-x="923" vert-adv-y="1000"/><glyph glyph-name="uni010C" unicode="Č" d="M889 305q-11-95-66.5-167.5T676.5 25Q586-15 470-15q-128 0-224.5 49T95 170.5Q41 258 41 375t54 204.5Q149 667 245.5 716T470 765q116 0 206.5-40t146-112Q878 541 889 445H718q-10 53-43 91.5T590 596q-52 21-121 21-79 0-136.5-29.5t-88.5-84Q213 449 213 375t31-128.5q31-54.5 88.5-84T469 133q69 0 121 20.5t85 59q33 38.5 43 92.5h171M555 808H375L225 968h143l135-104h-75l134 104h143L555 808z" horiz-adv-x="923" vert-adv-y="1000"/><glyph glyph-name="unic7" unicode="Ç" d="M889 305q-11-95-66.5-167.5T676.5 25Q586-15 470-15q-128 0-224.5 49T95 170.5Q41 258 41 375t54 204.5Q149 667 245.5 716T470 765q116 0 206.5-40t146-112Q878 541 889 445H718q-10 53-43 91.5T590 596q-52 21-121 21-79 0-136.5-29.5t-88.5-84Q213 449 213 375t31-128.5q31-54.5 88.5-84T469 133q69 0 121 20.5t85 59q33 38.5 43 92.5h171M431 16h87l-51-87-43 3q24 13 49 20t58 7q65 0 100-25.5t35-69.5q0-47-45.5-77T489-243q-76 0-127.5 27.5T295-139h114q9-14 28-22t52-8q34 0 50.5 10.5T556-132q0 14-14 23t-43 9q-18 0-33.5-2.5T438-110h-87l80 126z" horiz-adv-x="923" vert-adv-y="1000"/><glyph glyph-name="uni1E08" unicode="Ḉ" d="M889 305q-11-95-66.5-167.5T676.5 25Q586-15 470-15q-128 0-224.5 49T95 170.5Q41 258 41 375t54 204.5Q149 667 245.5 716T470 765q116 0 206.5-40t146-112Q878 541 889 445H718q-10 53-43 91.5T590 596q-52 21-121 21-79 0-136.5-29.5t-88.5-84Q213 449 213 375t31-128.5q31-54.5 88.5-84T469 133q69 0 121 20.5t85 59q33 38.5 43 92.5h171M431 16h87l-51-87-43 3q24 13 49 20t58 7q65 0 100-25.5t35-69.5q0-47-45.5-77T489-243q-76 0-127.5 27.5T295-139h114q9-14 28-22t52-8q34 0 50.5 10.5T556-132q0 14-14 23t-43 9q-18 0-33.5-2.5T438-110h-87l80 126m74 953h193L529 808H358l147 161z" horiz-adv-x="923" vert-adv-y="1000"/><glyph glyph-name="uni0108" unicode="Ĉ" d="M889 305q-11-95-66.5-167.5T676.5 25Q586-15 470-15q-128 0-224.5 49T95 170.5Q41 258 41 375t54 204.5Q149 667 245.5 716T470 765q116 0 206.5-40t146-112Q878 541 889 445H718q-10 53-43 91.5T590 596q-52 21-121 21-79 0-136.5-29.5t-88.5-84Q213 449 213 375t31-128.5q31-54.5 88.5-84T469 133q69 0 121 20.5t85 59q33 38.5 43 92.5h171M374 969h181l150-161H562L427 912h75L367 808H225l149 161z" horiz-adv-x="923" vert-adv-y="1000"/><glyph glyph-name="uni010A" unicode="Ċ" d="M889 305q-11-95-66.5-167.5T676.5 25Q586-15 470-15q-128 0-224.5 49T95 170.5Q41 258 41 375t54 204.5Q149 667 245.5 716T470 765q116 0 206.5-40t146-112Q878 541 889 445H718q-10 53-43 91.5T590 596q-52 21-121 21-79 0-136.5-29.5t-88.5-84Q213 449 213 375t31-128.5q31-54.5 88.5-84T469 133q69 0 121 20.5t85 59q33 38.5 43 92.5h171M465 815q-45 0-73.5 23.5T363 902q0 39 28.5 63t73.5 24q46 0 74-24t28-63q0-40-28-63.5T465 815z" horiz-adv-x="923" vert-adv-y="1000"/><glyph glyph-name="uniA7B3" unicode="Ꭓ" d="M448 257v109l344-531H610L355 243h72L171-165H-9l344 529V260L13 750h184l232-368h-72l231 368h181L448 257z" horiz-adv-x="784" vert-adv-y="1000"/><glyph glyph-name="uni0187" unicode="Ƈ" d="M464 765q128 0 208.5-49T796 581l-47 8q-23 36-43 76t-20 84q0 43 21 77.5t63.5 55Q813 902 878 902q36 0 67.5-5.5T1004 881V752q-21 7-42 11.5t-45 4.5q-49 0-71.5-21.5T823 690q0-23 9-52t23-65q8-23 19-58t15-70H719q-10 53-43 91.5T590.5 596Q538 617 470 617q-79 0-137-29.5T244 504q-31-54-31-128 0-75 31-129t89-84q58-30 137-30 68 0 120.5 20.5t85.5 59q33 38.5 43 92.5h170q-10-95-66-167.5T677 25q-90-40-207-40-128 0-224.5 49T95 170.5Q41 258 41 375t54 204.5Q149 667 244.5 716T464 765z" horiz-adv-x="950" vert-adv-y="1000"/><glyph glyph-name="uni023B" unicode="Ȼ" d="M597 872h136L334-122H198l399 994m292-567q-10-95-66-167.5T677 25q-90-40-207-40-128 0-224.5 49T95 170.5Q41 258 41 375t54 204.5Q149 667 245.5 716T470 765q117 0 207-40t146-112q56-72 66-168H719q-11 53-43.5 91.5t-85 59.5Q538 617 470 617q-79 0-137-29.5t-89-84Q213 449 213 375t31-128.5q31-54.5 89-84T470 133q68 0 120.5 20.5t85 59Q708 251 719 305h170z" horiz-adv-x="923" vert-adv-y="1000"/><glyph glyph-name="uni44" unicode="D" d="M433 750q131 0 229.5-47T816 572q55-84 55-197 0-112-55-196.5T662.5 47Q564 0 433 0H77v750h356M246 67l-86 83h286q76 0 133.5 28t88.5 79q31 51 31 118 0 68-31 118.5T579.5 572Q522 600 446 600H160l86 83V67z" horiz-adv-x="911" vert-adv-y="1000"/><glyph glyph-name="uni01F1" unicode="Ǳ" d="M433 750q131 0 229.5-47T816 572q55-84 55-197 0-112-55-196.5T662.5 47Q564 0 433 0H77v750h356M246 67l-86 83h286q76 0 133.5 28t88.5 79q31 51 31 118 0 68-31 118.5T579.5 572Q522 600 446 600H160l86 83V67M914 0v126l522 532 118-44H918v136h702V625L1097 91l-101 45h627V0H914z" horiz-adv-x="1664" vert-adv-y="1000"/><glyph glyph-name="uni01C4" unicode="Ǆ" d="M433 750q131 0 229.5-47T816 572q55-84 55-197 0-112-55-196.5T662.5 47Q564 0 433 0H77v750h356M246 67l-86 83h286q76 0 133.5 28t88.5 79q31 51 31 118 0 68-31 118.5T579.5 572Q522 600 446 600H160l86 83V67M914 0v126l522 532 118-44H917v136h703V625L1097 91l-101 45h627V0H914m445 808h-180l-151 160h144l135-104h-76l135 104h143l-150-160z" horiz-adv-x="1664" vert-adv-y="1000"/><glyph glyph-name="uni0189" unicode="Ɖ" d="M27 435h436V317H27v118m436 315q130 0 228.5-47T845 572q55-84 55-197 0-112-55-196.5T691.5 47Q593 0 463 0H106v750h357M275 67l-86 83h286q77 0 134 28t88 79q31 51 31 118 0 68-31 118.5T609 572q-57 28-134 28H189l86 83V67z" horiz-adv-x="940" vert-adv-y="1000"/><glyph glyph-name="unid0" unicode="Ð" d="M27 435h436V317H27v118m436 315q130 0 228.5-47T845 572q55-84 55-197 0-112-55-196.5T691.5 47Q593 0 463 0H106v750h357M275 67l-86 83h286q77 0 134 28t88 79q31 51 31 118 0 68-31 118.5T609 572q-57 28-134 28H189l86 83V67z" horiz-adv-x="940" vert-adv-y="1000"/><glyph glyph-name="uni010E" unicode="Ď" d="M433 750q131 0 229.5-47T816 572q55-84 55-197 0-112-55-196.5T662.5 47Q564 0 433 0H77v750h356M246 67l-86 83h286q76 0 133.5 28t88.5 79q31 51 31 118 0 68-31 118.5T579.5 572Q522 600 446 600H160l86 83V67m272 741H337L187 968h143l135-104h-75l135 104h142L518 808z" horiz-adv-x="911" vert-adv-y="1000"/><glyph glyph-name="uni1E10" unicode="Ḑ" d="M433 750q131 0 229.5-47T816 572q55-84 55-197 0-112-55-196.5T662.5 47Q564 0 433 0H77v750h356M246 67l-86 83h286q76 0 133.5 28t88.5 79q31 51 31 118 0 68-31 118.5T579.5 572Q522 600 446 600H160l86 83V67m103-353l81 138 7-46q-42 0-68 20.5T343-120q0 34 25.5 54T437-46q43 0 68.5-20.5T531-122q0-24-11.5-44T479-225l-47-61h-83z" horiz-adv-x="911" vert-adv-y="1000"/><glyph glyph-name="uni1E12" unicode="Ḓ" d="M433 750q131 0 229.5-47T816 572q55-84 55-197 0-112-55-196.5T662.5 47Q564 0 433 0H77v750h356M246 67l-86 83h286q76 0 133.5 28t88.5 79q31 51 31 118 0 68-31 118.5T579.5 572Q522 600 446 600H160l86 83V67M349-42h175l143-180H531L399-87h75L343-222H206L349-42z" horiz-adv-x="911" vert-adv-y="1000"/><glyph glyph-name="uni0110" unicode="Đ" d="M27 435h436V317H27v118m436 315q130 0 228.5-47T845 572q55-84 55-197 0-112-55-196.5T691.5 47Q593 0 463 0H106v750h357M275 67l-86 83h286q77 0 134 28t88 79q31 51 31 118 0 68-31 118.5T609 572q-57 28-134 28H189l86 83V67z" horiz-adv-x="940" vert-adv-y="1000"/><glyph glyph-name="uni1E0A" unicode="Ḋ" d="M433 750q131 0 229.5-47T816 572q55-84 55-197 0-112-55-196.5T662.5 47Q564 0 433 0H77v750h356M246 67l-86 83h286q76 0 133.5 28t88.5 79q31 51 31 118 0 68-31 118.5T579.5 572Q522 600 446 600H160l86 83V67m182 748q-45 0-73.5 23.5T326 902q0 39 28.5 63t73.5 24q46 0 74-24t28-63q0-40-28-63.5T428 815z" horiz-adv-x="911" vert-adv-y="1000"/><glyph glyph-name="uni1E0C" unicode="Ḍ" d="M433 750q131 0 229.5-47T816 572q55-84 55-197 0-112-55-196.5T662.5 47Q564 0 433 0H77v750h356M246 67l-86 83h286q76 0 133.5 28t88.5 79q31 51 31 118 0 68-31 118.5T579.5 572Q522 600 446 600H160l86 83V67m191-293q-45 0-73.5 23.5T335-140q0 40 28.5 63.5T437-53q46 0 74-23.5t28-63.5q0-39-28-62.5T437-226z" horiz-adv-x="911" vert-adv-y="1000"/><glyph glyph-name="uni018A" unicode="Ɗ" d="M215 750h435q131 0 229-47t153-131q55-84 55-197 0-112-55-196.5T879 47Q781 0 650 0H293v670l50-63h-96q-37 0-58.5-16.5T167 532q0-27 6.5-53t14.5-48H59q-14 29-26 67t-12 81q0 80 48 125.5T215 750M463 67l-86 83h285q77 0 134 28t88 79q31 51 31 118 0 68-31 118.5T796 572q-57 28-134 28H396l67 70V67z" horiz-adv-x="1128" vert-adv-y="1000"/><glyph glyph-name="uni1E0E" unicode="Ḏ" d="M433 750q131 0 229.5-47T816 572q55-84 55-197 0-112-55-196.5T662.5 47Q564 0 433 0H77v750h356M246 67l-86 83h286q76 0 133.5 28t88.5 79q31 51 31 118 0 68-31 118.5T579.5 572Q522 600 446 600H160l86 83V67m-33-238v104h460v-104H213z" horiz-adv-x="911" vert-adv-y="1000"/><glyph glyph-name="uni01F2" unicode="ǲ" d="M433 750q131 0 229.5-47T816 572q55-84 55-197 0-112-55-196.5T662.5 47Q564 0 433 0H77v750h356M246 67l-86 83h286q76 0 133.5 28t88.5 79q31 51 31 118 0 68-31 118.5T579.5 572Q522 600 446 600H160l86 83V67M944 0v118l418 357 112-30H947v124h591V451L1120 94l-96 29h516V0H944z" horiz-adv-x="1578" vert-adv-y="1000"/><glyph glyph-name="uni01C5" unicode="ǅ" d="M434 750q130 0 228.5-47T816 572q55-84 55-197 0-112-55-196.5T662.5 47Q564 0 434 0H77v750h357M246 67l-86 83h286q77 0 134 28t88 79q31 51 31 118 0 68-31 118.5T580 572q-57 28-134 28H160l86 83V67M944 0v118l418 357 112-30H947v124h591V451L1120 94l-95 29h515V0H944m386 627h-175l-143 180h136l132-135h-75l131 135h137l-143-180z" horiz-adv-x="1578" vert-adv-y="1000"/><glyph glyph-name="uni45" unicode="E" d="M697 440V310H160v130h537m-423-65L224 57l-74 84h578V0H53l58 375-58 375h670V609H150l74 84 50-318z" horiz-adv-x="780" vert-adv-y="1000"/><glyph glyph-name="unic9" unicode="É" d="M697 440V310H160v130h537m-423-65L224 57l-74 84h578V0H53l58 375-58 375h670V609H150l74 84 50-318m159 594h193L457 808H286l147 161z" horiz-adv-x="780" vert-adv-y="1000"/><glyph glyph-name="uni0114" unicode="Ĕ" d="M697 440V310H160v130h537m-423-65L224 57l-74 84h578V0H53l58 375-58 375h670V609H150l74 84 50-318M158 972h130q13-32 39-48.5t66-16.5q40 0 66 16.5t39 48.5h130q-22-85-84-127.5T393 802q-88 0-150.5 42.5T158 972z" horiz-adv-x="780" vert-adv-y="1000"/><glyph glyph-name="uni011A" unicode="Ě" d="M697 440V310H160v130h537m-423-65L224 57l-74 84h578V0H53l58 375-58 375h670V609H150l74 84 50-318m210 433H303L153 968h143l135-104h-75l135 104h142L484 808z" horiz-adv-x="780" vert-adv-y="1000"/><glyph glyph-name="uni0228" unicode="Ȩ" d="M697 440V310H160v130h537m-423-65L224 57l-74 84h578V0H53l58 375-58 375h670V609H150l74 84 50-318M374 16h87l-51-87-43 3q24 13 49 20t58 7q65 0 100-25.5t35-69.5q0-47-45.5-77T432-243q-76 0-127.5 27.5T238-139h114q9-14 28-22t52-8q34 0 50.5 10.5T499-132q0 14-14 23t-43 9q-18 0-33.5-2.5T381-110h-87l80 126z" horiz-adv-x="780" vert-adv-y="1000"/><glyph glyph-name="uni1E1C" unicode="Ḝ" d="M697 440V310H160v130h537m-423-65L224 57l-74 84h578V0H53l58 375-58 375h670V609H150l74 84 50-318M374 16h87l-51-87-43 3q24 13 49 20t58 7q65 0 100-25.5t35-69.5q0-47-45.5-77T432-243q-76 0-127.5 27.5T238-139h114q9-14 28-22t52-8q34 0 50.5 10.5T499-132q0 14-14 23t-43 9q-18 0-33.5-2.5T381-110h-87l80 126M158 972h130q13-32 39-48.5t66-16.5q40 0 66 16.5t39 48.5h130q-22-85-84-127.5T393 802q-88 0-150.5 42.5T158 972z" horiz-adv-x="780" vert-adv-y="1000"/><glyph glyph-name="unica" unicode="Ê" d="M697 440V310H160v130h537m-423-65L224 57l-74 84h578V0H53l58 375-58 375h670V609H150l74 84 50-318m28 594h181l150-161H490L355 912h75L295 808H153l149 161z" horiz-adv-x="780" vert-adv-y="1000"/><glyph glyph-name="uni1EBE" unicode="Ế" d="M697 440V310H160v130h537m-423-65L224 57l-74 84h578V0H53l58 375-58 375h670V609H150l74 84 50-318m357 710h155L674 937H543l88 148M304 969h180l151-161H491L356 912h76L297 808H154l150 161z" horiz-adv-x="780" vert-adv-y="1000"/><glyph glyph-name="uni1E18" unicode="Ḙ" d="M697 440V310H160v130h537m-423-65L224 57l-74 84h578V0H53l58 375-58 375h670V609H150l74 84 50-318m50-417h175l143-180H506L374-87h75L318-222H181L324-42z" horiz-adv-x="780" vert-adv-y="1000"/><glyph glyph-name="uni1EC6" unicode="Ệ" d="M697 440V310H160v130h537m-423-65L224 57l-74 84h578V0H53l58 375-58 375h670V609H150l74 84 50-318m137-601q-45 0-73.5 23.5T309-140q0 40 28.5 63.5T411-53q46 0 74-23.5t28-63.5q0-39-28-62.5T411-226M302 969h181l150-161H490L355 912h75L295 808H153l149 161z" horiz-adv-x="780" vert-adv-y="1000"/><glyph glyph-name="uni1EC0" unicode="Ề" d="M697 440V310H160v130h537m-423-65L224 57l-74 84h578V0H53l58 375-58 375h670V609H150l74 84 50-318m333 710l88-148H564l-112 148h155M304 969h180l151-161H491L356 912h76L297 808H154l150 161z" horiz-adv-x="780" vert-adv-y="1000"/><glyph glyph-name="uni1EC2" unicode="Ể" d="M697 440V310H160v130h537m-423-65L224 57l-74 84h578V0H53l58 375-58 375h670V609H150l74 84 50-318m315 540l-32 47q32 10 46 22t14 25q0 31-59 31-14 0-30-2t-32-6v89q17 6 44.5 10t59.5 4q72 0 112.5-25.5T753 1039q0-43-40.5-74T589 915m-285 54h180l151-161H491L356 912h76L297 808H154l150 161z" horiz-adv-x="780" vert-adv-y="1000"/><glyph glyph-name="uni1EC4" unicode="Ễ" d="M697 440V310H160v130h537m-423-65L224 57l-74 84h578V0H53l58 375-58 375h670V609H150l74 84 50-318m-103 629q4 70 37 113t91 43q29 0 51.5-7.5t40.5-18q18-10.5 34-18t31-7.5q18 0 29.5 13t15.5 37h104q-4-72-37-113.5t-92-41.5q-28 0-51 8t-41 17.5q-18 9.5-34 17.5t-31 8q-18 0-29.5-13t-15.5-38H171m131-35h181l150-161H490L355 912h75L295 808H153l149 161z" horiz-adv-x="780" vert-adv-y="1000"/><glyph glyph-name="uni0204" unicode="Ȅ" d="M697 440V310H160v130h537m-423-65L224 57l-74 84h578V0H53l58 375-58 375h670V609H150l74 84 50-318m192 594l122-161H438L303 969h163m-241 0l121-161H197L61 969h164z" horiz-adv-x="780" vert-adv-y="1000"/><glyph glyph-name="unicb" unicode="Ë" d="M697 440V310H160v130h537m-423-65L224 57l-74 84h578V0H53l58 375-58 375h670V609H150l74 84 50-318m-32 440q-43 0-69 23t-26 61q0 37 26 59.5t69 22.5q44 0 70-22.5t26-59.5q0-38-26-61t-70-23m303 0q-43 0-69.5 23T449 899q0 37 26.5 59.5T545 981q43 0 69.5-22.5T641 899q0-38-26.5-61T545 815z" horiz-adv-x="780" vert-adv-y="1000"/><glyph glyph-name="uni0116" unicode="Ė" d="M697 440V310H160v130h537m-423-65L224 57l-74 84h578V0H53l58 375-58 375h670V609H150l74 84 50-318m119 440q-45 0-73.5 23.5T291 902q0 39 28.5 63t73.5 24q46 0 74-24t28-63q0-40-28-63.5T393 815z" horiz-adv-x="780" vert-adv-y="1000"/><glyph glyph-name="uni1EB8" unicode="Ẹ" d="M697 440V310H160v130h537m-423-65L224 57l-74 84h578V0H53l58 375-58 375h670V609H150l74 84 50-318m137-601q-45 0-73.5 23.5T309-140q0 40 28.5 63.5T411-53q46 0 74-23.5t28-63.5q0-39-28-62.5T411-226z" horiz-adv-x="780" vert-adv-y="1000"/><glyph glyph-name="unic8" unicode="È" d="M697 440V310H160v130h537m-423-65L224 57l-74 84h578V0H53l58 375-58 375h670V609H150l74 84 50-318m67 594l147-161H317L148 969h193z" horiz-adv-x="780" vert-adv-y="1000"/><glyph glyph-name="uni1EBA" unicode="Ẻ" d="M697 440V310H160v130h537m-423-65L224 57l-74 84h578V0H53l58 375-58 375h670V609H150l74 84 50-318m80 419l-34 57q48 8 68.5 19.5T409 896q0 13-16 19t-47 6q-24 0-44-3t-42-7v90q20 6 53.5 11t69.5 5q82 0 125.5-23.5T552 919q0-46-46-77t-152-48z" horiz-adv-x="780" vert-adv-y="1000"/><glyph glyph-name="uni0206" unicode="Ȇ" d="M697 440V310H160v130h537m-423-65L224 57l-74 84h578V0H53l58 375-58 375h670V609H150l74 84 50-318m354 430H498q-13 31-39 48t-65 17q-40 0-66.5-17T288 805H158q22 85 84.5 127.5T394 975q89 0 151-42.5T628 805z" horiz-adv-x="780" vert-adv-y="1000"/><glyph glyph-name="uni0112" unicode="Ē" d="M697 440V310H160v130h537m-423-65L224 57l-74 84h578V0H53l58 375-58 375h670V609H150l74 84 50-318M163 833v104h460V833H163z" horiz-adv-x="780" vert-adv-y="1000"/><glyph glyph-name="uni1E16" unicode="Ḗ" d="M697 440V310H160v130h537m-423-65L224 57l-74 84h578V0H53l58 375-58 375h670V609H150l74 84 50-318M163 833v104h460V833H163m270 324h193L457 996H286l147 161z" horiz-adv-x="780" vert-adv-y="1000"/><glyph glyph-name="uni1E14" unicode="Ḕ" d="M697 440V310H160v130h537m-423-65L224 57l-74 84h578V0H53l58 375-58 375h670V609H150l74 84 50-318M164 833v104h459V833H164m177 323l147-160H317l-169 160h193z" horiz-adv-x="780" vert-adv-y="1000"/><glyph glyph-name="uni0118" unicode="Ę" d="M697 440V310H160v130h537m-423-65L224 57l-74 84h578V0H53l58 375-58 375h670V609H150l74 84 50-318M643 18l63-5V0h22q-36-10-63-22.5t-42.5-25Q607-60 607-74q0-28 61-28 17 0 32 1.5t28 4.5v-95q-13-5-41.5-9t-58.5-4q-66 0-106 26t-40 69q0 43 39.5 74T643 18z" horiz-adv-x="780" vert-adv-y="1000"/><glyph glyph-name="uni0190" unicode="Ɛ" d="M765 513H595q-9 57-58.5 87.5T400 631q-85 0-126.5-25T232 535q0-41 36.5-67T391 442h133V323H391q-65 0-104-10.5T232 281q-16-21-16-52 0-52 48.5-81T406 119q98 0 150 32t60 92h170q-4-78-51.5-136T603 17q-84-32-197-32-115 0-196 30T86.5 97.5Q44 150 44 217q0 62 36.5 103t105 60.5Q254 400 348 395v-19q-99-1-162.5 23.5t-94 66Q61 507 61 558q0 63 40.5 109t115 72Q291 765 391 765q117 0 198-33.5T715 641q45-57 50-128z" horiz-adv-x="811" vert-adv-y="1000"/><glyph glyph-name="uni018E" unicode="Ǝ" d="M83 440h536V310H83v130m422-65l51 318 74-84H57v141h670l-58-375L727 0H52v141h578l-74-84-51 318z" horiz-adv-x="780" vert-adv-y="1000"/><glyph glyph-name="uni01A9" unicode="Ʃ" d="M38 0v126l336 275v-51L48 625v125h670V612H113l61 92 322-271V317L194 71l-73 67h610V0H38z" horiz-adv-x="767" vert-adv-y="1000"/><glyph glyph-name="uni0246" unicode="Ɇ" d="M547 872h137L354-122H218l329 994m150-432V310H160v130h537m-423-65L224 57l-74 84h578V0H53l58 375-58 375h670V609H150l74 84 50-318z" horiz-adv-x="780" vert-adv-y="1000"/><glyph glyph-name="uni1EBC" unicode="Ẽ" d="M697 440V310H160v130h537m-423-65L224 57l-74 84h578V0H53l58 375-58 375h670V609H150l74 84 50-318M138 814q9 73 47.5 115.5T296 972q28 0 53.5-8t49.5-17.5q24-9.5 45-17.5t39-8q22 0 36 12t17 35h112q-9-72-48-115t-111-43q-27 0-53 8t-49.5 18q-23.5 10-45 18t-38.5 8q-22 0-36-12.5T250 814H138z" horiz-adv-x="780" vert-adv-y="1000"/><glyph glyph-name="uni1E1A" unicode="Ḛ" d="M697 440V310H160v130h537m-423-65L224 57l-74 84h578V0H53l58 375-58 375h670V609H150l74 84 50-318M173-212q5 79 39 126t101 47q26 0 51-8.5t47.5-19Q434-77 454-85.5t37-8.5q21 0 35.5 14T545-41h105q-4-77-38-124.5T511-213q-27 0-52 8.5t-47.5 19q-22.5 10.5-42 19T333-158q-21 0-35-14t-19-40H173z" horiz-adv-x="780" vert-adv-y="1000"/><glyph glyph-name="uni018F" unicode="Ə" d="M457 765q102 0 180.5-30t133-83.5Q825 598 853 527t28-153q0-117-53.5-204T679 34q-95-49-220-49-102 0-180 32.5T147.5 108q-53.5 58-81 137T39 417h692V298H151l63 42q5-63 35.5-111t83-75.5Q385 126 458 126q77 0 133 29t87 84q31 55 31 133 0 79-30.5 134.5t-87 85.5Q535 622 457 622q-67 0-115.5-19T262 551q-31-33-45-76H47q16 86 70.5 151.5t141 102Q345 765 457 765z" horiz-adv-x="922" vert-adv-y="1000"/><glyph glyph-name="uni01B7" unicode="Ʒ" d="M63 750h661V625L396 391l-21 51h73q108 0 176.5-25.5t102-73.5Q760 295 760 229q0-71-41.5-126t-122-86.5Q516-15 398-15q-113 0-196.5 32t-131 90Q23 165 18 243h170q9-60 60.5-92T398 119q93 0 141.5 30.5T588 237q0 33-17.5 57T513 331q-40 13-108 13H292v116l339 241 27-86H63v135z" horiz-adv-x="801" vert-adv-y="1000"/><glyph glyph-name="uni01EE" unicode="Ǯ" d="M63 750h661V625L396 391l-21 51h73q108 0 176.5-25.5t102-73.5Q760 295 760 229q0-71-41.5-126t-122-86.5Q516-15 398-15q-113 0-196.5 32t-131 90Q23 165 18 243h170q9-60 60.5-92T398 119q93 0 141.5 30.5T588 237q0 33-17.5 57T513 331q-40 13-108 13H292v116l339 241 27-86H63v135m411 58H293L143 968h144l134-104h-75l135 104h143L474 808z" horiz-adv-x="801" vert-adv-y="1000"/><glyph glyph-name="uni01B8" unicode="Ƹ" d="M738 750V615H143l27 86 339-241V344H396q-67 0-107.5-13t-58-37Q213 270 213 237q0-57 48.5-87.5T403 119q98 0 149.5 32t60.5 92h170q-5-78-52.5-136t-131-90Q516-15 403-15q-118 0-198.5 31.5T82.5 103Q41 158 41 229q0 66 33.5 114T177 416.5Q246 442 353 442h73l-21-51L77 625v125h661z" horiz-adv-x="801" vert-adv-y="1000"/><glyph glyph-name="uni46" unicode="F" d="M159 432h542V287H159v145m559 318V604H161l86 87V0H77v750h641z" horiz-adv-x="755" vert-adv-y="1000"/><glyph glyph-name="uni1E1E" unicode="Ḟ" d="M159 432h542V287H159v145m559 318V604H161l86 87V0H77v750h641m-329 65q-45 0-73.5 23.5T287 902q0 39 28.5 63t73.5 24q46 0 74-24t28-63q0-40-28-63.5T389 815z" horiz-adv-x="755" vert-adv-y="1000"/><glyph glyph-name="uni0191" unicode="Ƒ" d="M159 432h542V287H159v145m88-378q0-112-59-173T12-180q-34 0-68.5 5t-62.5 16v129q18-7 41-12t51-5q53 0 78.5 29T77 69v681h641V604H161l86 87V54z" horiz-adv-x="755" vert-adv-y="1000"/><glyph glyph-name="uni47" unicode="G" d="M836 325q-1-68-26.5-129.5T737 86.5Q690 39 621 12T461-15q-88 0-164.5 26.5T162.5 88Q105 138 73 210.5T41 375q0 92 32.5 164.5T164 662q58 50 136 76.5T470 765q120 0 208-37.5T820.5 624Q875 558 888 473H717q-10 46-43.5 79t-85 51Q537 621 470 621q-79 0-136.5-28.5t-89-83.5Q213 454 213 375t33-135q33-56 94-85.5T484 125q81 0 142 25.5t96.5 72Q758 269 763 333l73-8m-329-69v123h389V0H774l-23 304 35-48H507z" horiz-adv-x="955" vert-adv-y="1000"/><glyph glyph-name="uni01F4" unicode="Ǵ" d="M836 325q-1-68-26.5-129.5T737 86.5Q690 39 621 12T461-15q-88 0-164.5 26.5T162.5 88Q105 138 73 210.5T41 375q0 92 32.5 164.5T164 662q58 50 136 76.5T470 765q120 0 208-37.5T820.5 624Q875 558 888 473H717q-10 46-43.5 79t-85 51Q537 621 470 621q-79 0-136.5-28.5t-89-83.5Q213 454 213 375t33-135q33-56 94-85.5T484 125q81 0 142 25.5t96.5 72Q758 269 763 333l73-8m-329-69v123h389V0H774l-23 304 35-48H507m3 713h193L534 808H363l147 161z" horiz-adv-x="955" vert-adv-y="1000"/><glyph glyph-name="uni011E" unicode="Ğ" d="M836 325q-1-68-26.5-129.5T737 86.5Q690 39 621 12T461-15q-88 0-164.5 26.5T162.5 88Q105 138 73 210.5T41 375q0 92 32.5 164.5T164 662q58 50 136 76.5T470 765q120 0 208-37.5T820.5 624Q875 558 888 473H717q-10 46-43.5 79t-85 51Q537 621 470 621q-79 0-136.5-28.5t-89-83.5Q213 454 213 375t33-135q33-56 94-85.5T484 125q81 0 142 25.5t96.5 72Q758 269 763 333l73-8m-329-69v123h389V0H774l-23 304 35-48H507M235 972h130q13-32 39-48.5t66-16.5q40 0 66 16.5t39 48.5h130q-22-85-84-127.5T470 802q-88 0-150.5 42.5T235 972z" horiz-adv-x="955" vert-adv-y="1000"/><glyph glyph-name="uni01E6" unicode="Ǧ" d="M836 325q-1-68-26.5-129.5T737 86.5Q690 39 621 12T461-15q-88 0-164.5 26.5T162.5 88Q105 138 73 210.5T41 375q0 92 32.5 164.5T164 662q58 50 136 76.5T470 765q120 0 208-37.5T820.5 624Q875 558 888 473H717q-10 46-43.5 79t-85 51Q537 621 470 621q-79 0-136.5-28.5t-89-83.5Q213 454 213 375t33-135q33-56 94-85.5T484 125q81 0 142 25.5t96.5 72Q758 269 763 333l73-8m-329-69v123h389V0H774l-23 304 35-48H507m54 552H380L230 968h143l135-104h-75l135 104h142L561 808z" horiz-adv-x="955" vert-adv-y="1000"/><glyph glyph-name="uni011C" unicode="Ĝ" d="M836 325q-1-68-26.5-129.5T737 86.5Q690 39 621 12T461-15q-88 0-164.5 26.5T162.5 88Q105 138 73 210.5T41 375q0 92 32.5 164.5T164 662q58 50 136 76.5T470 765q120 0 208-37.5T820.5 624Q875 558 888 473H717q-10 46-43.5 79t-85 51Q537 621 470 621q-79 0-136.5-28.5t-89-83.5Q213 454 213 375t33-135q33-56 94-85.5T484 125q81 0 142 25.5t96.5 72Q758 269 763 333l73-8m-329-69v123h389V0H774l-23 304 35-48H507M379 969h181l150-161H567L432 912h75L372 808H230l149 161z" horiz-adv-x="955" vert-adv-y="1000"/><glyph glyph-name="uni0122" unicode="Ģ" d="M836 325q-1-68-26.5-129.5T737 86.5Q690 39 621 12T461-15q-88 0-164.5 26.5T162.5 88Q105 138 73 210.5T41 375q0 92 32.5 164.5T164 662q58 50 136 76.5T470 765q120 0 208-37.5T820.5 624Q875 558 888 473H717q-10 46-43.5 79t-85 51Q537 621 470 621q-79 0-136.5-28.5t-89-83.5Q213 454 213 375t33-135q33-56 94-85.5T484 125q81 0 142 25.5t96.5 72Q758 269 763 333l73-8m-329-69v123h389V0H774l-23 304 35-48H507M389-286l81 138 7-46q-42 0-68 20.5T383-120q0 34 25.5 54T477-46q43 0 68.5-20.5T571-122q0-24-11.5-44T519-225l-47-61h-83z" horiz-adv-x="955" vert-adv-y="1000"/><glyph glyph-name="uni0120" unicode="Ġ" d="M836 325q-1-68-26.5-129.5T737 86.5Q690 39 621 12T461-15q-88 0-164.5 26.5T162.5 88Q105 138 73 210.5T41 375q0 92 32.5 164.5T164 662q58 50 136 76.5T470 765q120 0 208-37.5T820.5 624Q875 558 888 473H717q-10 46-43.5 79t-85 51Q537 621 470 621q-79 0-136.5-28.5t-89-83.5Q213 454 213 375t33-135q33-56 94-85.5T484 125q81 0 142 25.5t96.5 72Q758 269 763 333l73-8m-329-69v123h389V0H774l-23 304 35-48H507m-36 559q-45 0-73.5 23.5T369 902q0 39 28.5 63t73.5 24q46 0 74-24t28-63q0-40-28-63.5T471 815z" horiz-adv-x="955" vert-adv-y="1000"/><glyph glyph-name="uni0193" unicode="Ɠ" d="M463-15q-89 0-165.5 26.5T164 88q-57 50-89 122.5T43 375q0 93 32.5 165.5T166 663q58 50 134.5 76T465 765q123 0 201-44.5T794 584l-41 5q-24 36-43.5 76T690 749q0 43 20.5 78t63.5 55q43 20 108 20 36 0 67.5-5.5T1008 881V752q-21 7-42 11.5t-45 4.5q-49 0-71.5-21.5T827 690q0-23 9-52t22-65q8-23 17-49t14-51H718q-11 46-44 79t-84.5 51Q538 621 472 621q-79 0-137-28.5T245.5 509Q214 454 214 375q0-80 33-135.5t94.5-85Q403 125 486 125q80 0 141 25t97 72q36 47 40 111l74-8q-2-68-27.5-129.5T738 86.5Q691 39 622 12T463-15m46 280v114h388V0H775l-23 304 35-39H509z" horiz-adv-x="971" vert-adv-y="1000"/><glyph glyph-name="uni0241" unicode="Ɂ" d="M383 765q110 0 183.5-29.5t111-80.5Q715 604 715 537q0-41-11.5-73.5T665 402q-27-29-73-63l-63-47q-35-25-54-48.5t-26.5-53Q441 161 441 119V0H272v145q0 56 12 96t37.5 71.5Q347 344 387 373l68 50q34 26 53.5 42.5t27 32Q543 513 543 534q0 47-43.5 72T375 631q-88 0-136.5-31T179 510H10q6 71 50.5 129T186 731q81 34 197 34z" horiz-adv-x="731" vert-adv-y="1000"/><glyph glyph-name="uni1E20" unicode="Ḡ" d="M836 325q-1-68-26.5-129.5T737 86.5Q690 39 621 12T461-15q-88 0-164.5 26.5T162.5 88Q105 138 73 210.5T41 375q0 92 32.5 164.5T164 662q58 50 136 76.5T470 765q120 0 208-37.5T820.5 624Q875 558 888 473H717q-10 46-43.5 79t-85 51Q537 621 470 621q-79 0-136.5-28.5t-89-83.5Q213 454 213 375t33-135q33-56 94-85.5T484 125q81 0 142 25.5t96.5 72Q758 269 763 333l73-8m-329-69v123h389V0H774l-23 304 35-48H507M241 833v104h460V833H241z" horiz-adv-x="955" vert-adv-y="1000"/><glyph glyph-name="uniA7AC" unicode="Ɡ" d="M692 217v122l7 27v153l-7 26v205h169V231q0-103-31-180.5T742-78q-57-51-136-76.5T433-180q-93 0-173 25.5T111-81V72q79-60 159.5-84T421-36q86 0 147 29t92.5 85.5Q692 135 692 217M370 102q-70 0-130 23.5t-104.5 67Q91 236 66 297.5T41 433q0 76 25 137t69.5 104.5Q180 718 240 741.5T370 765q73 0 133.5-22.5t107-59.5q46.5-37 79-82t49.5-89q17-44 17-80 0-39-17-83.5T689.5 260q-32.5-44-79-79.5t-107-57Q443 102 370 102m52 139q87 0 156.5 47T699 433q-50 99-121 146t-156 47q-65 0-112-24t-72-67.5Q213 491 213 433q0-56 25-99.5t72-68Q357 241 422 241z" horiz-adv-x="934" vert-adv-y="1000"/><glyph glyph-name="uni01E4" unicode="Ǥ" d="M474 274h510v-95H474v95m46 140h376v-56h-55q0-82-23.5-150.5T747 89q-47-50-117.5-77T465-15q-125 0-220.5 48T95 168.5Q41 256 41 375q0 92 32.5 164.5T164 662q58 50 136 76.5T470 765q118 0 203-35.5t138-97Q864 571 884 491H706q-10 37-41 66.5t-79.5 47Q537 622 474 622q-79 0-138-29t-91-84q-32-55-32-134 0-75 30.5-131.5t90-88.5Q393 123 482 123t150.5 23.5q61.5 23.5 94 66.5T759 317v32l29-44H520v109m246-24h130V1H785l-19 389z" horiz-adv-x="985" vert-adv-y="1000"/><glyph glyph-name="uni021C" unicode="Ȝ" d="M63 750h661V625L396 391l-21 51h73q108 0 176.5-25.5t102-73.5Q760 295 760 229q0-71-41.5-126t-122-86.5Q516-15 398-15q-113 0-196.5 32t-131 90Q23 165 18 243h170q9-60 60.5-92T398 119q93 0 141.5 30.5T588 237q0 33-17.5 57T513 331q-40 13-108 13H292v116l339 241 27-86H63v135z" horiz-adv-x="801" vert-adv-y="1000"/><glyph glyph-name="uni48" unicode="H" d="M77 750h170V0H77v750m600 0h170V0H677v750M170 454h582V305H170v149z" horiz-adv-x="924" vert-adv-y="1000"/><glyph glyph-name="uni0126" unicode="Ħ" d="M93 750h170V0H93v750m601 0h170V0H694v750M175 435h582V291H175v144M23 667h911V549H23v118z" horiz-adv-x="957" vert-adv-y="1000"/><glyph glyph-name="uni1E2A" unicode="Ḫ" d="M77 750h170V0H77v750m600 0h170V0H677v750M170 454h582V305H170v149m74-496h127q7-39 33.5-60.5T471-124q40 0 66 21.5T572-42h125q-12-87-70.5-136.5T471-228q-96 0-154.5 49.5T244-42z" horiz-adv-x="924" vert-adv-y="1000"/><glyph glyph-name="uni021E" unicode="Ȟ" d="M77 750h170V0H77v750m600 0h170V0H677v750M170 454h582V305H170v149m382 354H372L221 968h144l134-104h-75l135 104h143L552 808z" horiz-adv-x="924" vert-adv-y="1000"/><glyph glyph-name="uni1E28" unicode="Ḩ" d="M77 750h170V0H77v750m600 0h170V0H677v750M170 454h582V305H170v149M124 16h87l-51-87-43 3q24 13 49 20t58 7q65 0 100-25.5t35-69.5q0-47-45.5-77T182-243q-76 0-127.5 27.5T-12-139h114q9-14 28-22t52-8q34 0 50.5 10.5T249-132q0 14-14 23t-43 9q-18 0-33.5-2.5T131-110H44l80 126z" horiz-adv-x="924" vert-adv-y="1000"/><glyph glyph-name="uni0124" unicode="Ĥ" d="M77 750h170V0H77v750m600 0h170V0H677v750M170 454h582V305H170v149m201 515h181l150-161H559L424 912h75L364 808H222l149 161z" horiz-adv-x="924" vert-adv-y="1000"/><glyph glyph-name="uni1E26" unicode="Ḧ" d="M77 750h170V0H77v750m600 0h170V0H677v750M170 454h582V305H170v149m140 361q-43 0-69 23t-26 61q0 37 26 59.5t69 22.5q44 0 70-22.5t26-59.5q0-38-26-61t-70-23m303 0q-43 0-69.5 23T517 899q0 37 26.5 59.5T613 981q43 0 69.5-22.5T709 899q0-38-26.5-61T613 815z" horiz-adv-x="924" vert-adv-y="1000"/><glyph glyph-name="uni1E22" unicode="Ḣ" d="M77 750h170V0H77v750m600 0h170V0H677v750M170 454h582V305H170v149m292 361q-45 0-73.5 23.5T360 902q0 39 28.5 63t73.5 24q46 0 74-24t28-63q0-40-28-63.5T462 815z" horiz-adv-x="924" vert-adv-y="1000"/><glyph glyph-name="uni1E24" unicode="Ḥ" d="M77 750h170V0H77v750m600 0h170V0H677v750M170 454h582V305H170v149m292-680q-45 0-73.5 23.5T360-140q0 40 28.5 63.5T462-53q46 0 74-23.5t28-63.5q0-39-28-62.5T462-226z" horiz-adv-x="924" vert-adv-y="1000"/><glyph glyph-name="uniA726" unicode="Ꜧ" d="M77 750h170V0H77v750m93-296h582V305H170v149m507 296h170V42q0-67-26.5-117t-82-77.5Q683-180 593-180q-51 0-96 9.5T424-150v131q30-14 66.5-21.5T566-48q62 0 86.5 25.5T677 66v684z" horiz-adv-x="924" vert-adv-y="1000"/><glyph glyph-name="uniA7AA" unicode="Ɦ" d="M462 750V0H293v683l67-76H247q-37 0-58-16.5T168 532q0-27 6-53t14-48H59q-16 29-27 67t-11 81q0 80 48 125.5T215 750h247m431 0h170V0H893v750M386 454h581V305H386v149z" horiz-adv-x="1140" vert-adv-y="1000"/><glyph glyph-name="uniA78D" unicode="Ɥ" d="M59 750h169V304H59v446m537 0h170V0H596v750M153 454h517V304H153v150z" horiz-adv-x="843" vert-adv-y="1000"/><glyph glyph-name="uni49" unicode="I" d="M77 750h170V0H77v750z" horiz-adv-x="323" vert-adv-y="1000"/><glyph glyph-name="uni0132" unicode="Ĳ" d="M59 750h170V411H59v339m2-406h167v-29q0-88 42.5-136T411 131q97 0 140.5 45.5T595 303v447h170V295q0-100-44.5-169T596 21q-80-36-185-36T227.5 22Q149 59 106 130T61 303v41z" horiz-adv-x="833" vert-adv-y="1000"/><glyph glyph-name="unicd" unicode="Í" d="M77 750h170V0H77v750m124 219h193L225 808H54l147 161z" horiz-adv-x="323" vert-adv-y="1000"/><glyph glyph-name="uni012C" unicode="Ĭ" d="M-32 969H87q5-34 23.5-52.5T162 898q32 0 50.5 18.5T237 969h118q-8-77-59-122t-134-45q-83 0-134.5 45T-32 969M77 750h170V0H77v750z" horiz-adv-x="323" vert-adv-y="1000"/><glyph glyph-name="uni01CF" unicode="Ǐ" d="M77 750h170V0H77v750m175 58H71L-79 968H64l135-104h-75l135 104h142L252 808z" horiz-adv-x="323" vert-adv-y="1000"/><glyph glyph-name="unice" unicode="Î" d="M74 969h175l111-161H237l-96 103h41L86 808H-36L74 969m3-219h170V0H77v750z" horiz-adv-x="323" vert-adv-y="1000"/><glyph glyph-name="uni0208" unicode="Ȉ" d="M259 969l91-161H219l-99 161h139m-202 0l91-161H17l-98 161H57m20-219h170V0H77v750z" horiz-adv-x="323" vert-adv-y="1000"/><glyph glyph-name="unicf" unicode="Ï" d="M58 815q-38 0-59.5 22.5T-23 898q0 38 21.5 60.5T58 981q37 0 59-22.5t22-60.5q0-38-22-60.5T58 815m208 0q-37 0-59 22.5T185 898q0 38 22 60.5t59 22.5q37 0 59-22.5t22-60.5q0-38-22-60.5T266 815M77 750h170V0H77v750z" horiz-adv-x="323" vert-adv-y="1000"/><glyph glyph-name="uni1E2E" unicode="Ḯ" d="M58 815q-38 0-59.5 22.5T-23 898q0 38 21.5 60.5T58 981q37 0 59-22.5t22-60.5q0-38-22-60.5T58 815m208 0q-37 0-59 22.5T185 898q0 38 22 60.5t59 22.5q37 0 59-22.5t22-60.5q0-38-22-60.5T266 815M77 750h170V0H77v750m124 436h193l-169-161H55l146 161z" horiz-adv-x="323" vert-adv-y="1000"/><glyph glyph-name="uni0130" unicode="İ" d="M77 750h170V0H77v750m85 65q-45 0-73.5 23.5T60 902q0 39 28.5 63t73.5 24q46 0 74-24t28-63q0-40-28-63.5T162 815z" horiz-adv-x="323" vert-adv-y="1000"/><glyph glyph-name="uni1ECA" unicode="Ị" d="M77 750h170V0H77v750m85-976q-45 0-73.5 23.5T60-140q0 40 28.5 63.5T162-53q46 0 74-23.5t28-63.5q0-39-28-62.5T162-226z" horiz-adv-x="323" vert-adv-y="1000"/><glyph glyph-name="unicc" unicode="Ì" d="M77 750h170V0H77v750m32 219l147-161H85L-84 969h193z" horiz-adv-x="323" vert-adv-y="1000"/><glyph glyph-name="uni1EC8" unicode="Ỉ" d="M77 750h170V0H77v750m46 44l-34 57q48 8 68.5 19.5T178 896q0 13-16 19t-47 6q-24 0-44-3t-42-7v90q20 6 53.5 11t69.5 5q82 0 125.5-23.5T321 919q0-46-46-77t-152-48z" horiz-adv-x="323" vert-adv-y="1000"/><glyph glyph-name="uni020A" unicode="Ȋ" d="M77 750h170V0H77v750m319 55H266q-13 31-39 48t-65 17q-40 0-66.5-17T56 805H-73q22 85 84 127.5T162 975q89 0 151-42.5T396 805z" horiz-adv-x="323" vert-adv-y="1000"/><glyph glyph-name="uni012A" unicode="Ī" d="M-16 832v105h356V832H-16m93-82h170V0H77v750z" horiz-adv-x="323" vert-adv-y="1000"/><glyph glyph-name="uni012E" unicode="Į" d="M163 13h61V0h23q-41-17-65.5-34.5T157-74q0-28 55-28 13 0 29 1.5t29 4.5v-95q-13-5-41-9t-57-4q-65 0-105 25t-40 68q0 41 35.5 71.5T163 13M77 750h170V0H77v750z" horiz-adv-x="323" vert-adv-y="1000"/><glyph glyph-name="uni0196" unicode="Ɩ" d="M73 750h170V209q0-47 16.5-69t58.5-22q16 0 32 3.5t32 7.5V0q-22-6-49.5-10.5T272-15q-103 0-151 55.5T73 200v550z" horiz-adv-x="402" vert-adv-y="1000"/><glyph glyph-name="uni0197" unicode="Ɨ" d="M19 327v119h347V327H19m89 423h169V0H108v750z" horiz-adv-x="385" vert-adv-y="1000"/><glyph glyph-name="uni0128" unicode="Ĩ" d="M-27 813q5 71 34 112.5T91 967q24 0 41.5-8t31.5-19q14-11 27.5-19t28.5-8q18 0 28.5 14t14.5 39h87q-4-70-33.5-112T233 812q-24 0-41.5 8t-32 19q-14.5 11-28 19t-28.5 8q-16 0-27-13.5T61 813h-88m104-63h170V0H77v750z" horiz-adv-x="323" vert-adv-y="1000"/><glyph glyph-name="uni1E2C" unicode="Ḭ" d="M-27-194q5 71 34 112.5T91-40q24 0 41.5-8T164-67q14-11 27.5-19t28.5-8q18 0 28.5 13.5T263-41h87q-4-70-33.5-112T233-195q-24 0-41.5 8t-32 19q-14.5 11-28 19t-28.5 8q-16 0-27-14t-15-39h-88M77 750h170V0H77v750z" horiz-adv-x="323" vert-adv-y="1000"/><glyph glyph-name="uni4a" unicode="J" d="M21 364h167v-29q0-97 42.5-149.5T371 133q97 0 140.5 50.5T555 323v427h170V315q0-106-44.5-180T556 23q-80-38-185-38-104 0-183 39T65.5 138.5Q22 214 22 323l-1 41z" horiz-adv-x="792" vert-adv-y="1000"/><glyph glyph-name="uni0134" unicode="Ĵ" d="M552 969h175l111-161H715l-96 103h41l-96-103H442l110 161M21 364h167v-29q0-97 42.5-149.5T371 133q97 0 140.5 50.5T555 323v427h170V315q0-106-44.5-180T556 23q-80-38-185-38-104 0-183 39T65.5 138.5Q22 214 22 323l-1 41z" horiz-adv-x="792" vert-adv-y="1000"/><glyph glyph-name="uniA7B2" unicode="Ʝ" d="M731 315q0-100-42-174.5t-126.5-115Q478-15 351-15q-109 0-184 29.5t-113.5 78Q15 141 15 200q0 46 22 84t65 65.5Q145 377 209 392t148 15q91 0 175.5-23.5t156-60Q760 287 811 246V98q-39 36-90.5 69t-111 58.5Q550 251 486 265.5T358 280q-88 0-131-23t-43-57q0-20 18-37.5t54-28q36-10.5 91-10.5 111 0 162.5 48T561 311v439h170V315z" horiz-adv-x="852" vert-adv-y="1000"/><glyph glyph-name="uni0248" unicode="Ɉ" d="M372 501h442V381H372v120M21 364h167v-29q0-97 42.5-149.5T371 133q97 0 140.5 50.5T555 323v427h170V315q0-106-44.5-180T556 23q-80-38-185-38-104 0-183 39T65.5 138.5Q22 214 22 323l-1 41z" horiz-adv-x="836" vert-adv-y="1000"/><glyph glyph-name="uni4b" unicode="K" d="M77 0v750h169V138l-48 34 464 578h181L230 0H77m358 367l122 109L854 0H660L435 367z" horiz-adv-x="851" vert-adv-y="1000"/><glyph glyph-name="uni1E30" unicode="Ḱ" d="M77 0v750h169V138l-48 34 464 578h181L230 0H77m358 367l122 109L854 0H660L435 367m56 602h193L515 808H344l147 161z" horiz-adv-x="851" vert-adv-y="1000"/><glyph glyph-name="uni01E8" unicode="Ǩ" d="M77 0v750h169V138l-48 34 464 578h181L230 0H77m358 367l122 109L854 0H660L435 367m107 441H361L211 968h143l135-104h-75l134 104h143L542 808z" horiz-adv-x="851" vert-adv-y="1000"/><glyph glyph-name="uni0136" unicode="Ķ" d="M77 0v750h169V138l-48 34 464 578h181L230 0H77m358 367l122 109L854 0H660L435 367m-77-653l81 138 7-46q-42 0-68 20.5T352-120q0 34 25.5 54T446-46q43 0 68.5-20.5T540-122q0-24-11.5-44T488-225l-47-61h-83z" horiz-adv-x="851" vert-adv-y="1000"/><glyph glyph-name="uni1E32" unicode="Ḳ" d="M77 0v750h169V138l-48 34 464 578h181L230 0H77m358 367l122 109L854 0H660L435 367m11-593q-45 0-73.5 23.5T344-140q0 40 28.5 63.5T446-53q46 0 74-23.5t28-63.5q0-39-28-62.5T446-226z" horiz-adv-x="851" vert-adv-y="1000"/><glyph glyph-name="uni0198" unicode="Ƙ" d="M425 373l121 108L855 0H660L425 373M77 0v750h169V138l-49 34 377 501q21 27 44.5 48t54.5 32.5q31 11.5 74 11.5 31 0 56.5-4.5T849 750V621q-23 6-40.5 8.5T773 632q-35 0-55.5-15T679 580L230 0H77z" horiz-adv-x="869" vert-adv-y="1000"/><glyph glyph-name="uni1E34" unicode="Ḵ" d="M77 0v750h169V138l-48 34 464 578h181L230 0H77m358 367l122 109L854 0H660L435 367M222-171v104h460v-104H222z" horiz-adv-x="851" vert-adv-y="1000"/><glyph glyph-name="uni4c" unicode="L" d="M247 750V75l-77 75h563V0H77v750h170z" horiz-adv-x="751" vert-adv-y="1000"/><glyph glyph-name="uni01C7" unicode="Ǉ" d="M247 750V75l-77 75h563V0H77v750h170m525-386h167v-29q0-97 42.5-149.5T1122 133q97 0 140.5 50.5T1306 323v427h170V315q0-106-44.5-180T1307 23q-80-38-185-38-104 0-183 39T816.5 138.5Q773 214 773 323l-1 41z" horiz-adv-x="1543" vert-adv-y="1000"/><glyph glyph-name="uni0139" unicode="Ĺ" d="M247 750V75l-77 75h563V0H77v750h170m-46 219h193L225 808H54l147 161z" horiz-adv-x="751" vert-adv-y="1000"/><glyph glyph-name="uni023D" unicode="Ƚ" d="M20 476h508V357H20v119m258 274V75l-76 75h563V0H108v750h170z" horiz-adv-x="783" vert-adv-y="1000"/><glyph glyph-name="uniA7AD" unicode="Ɬ" d="M158 560q55 0 92.5-23.5T308 472q20-41 20-93V259h-68v114q0 50-25.5 72.5T176 468q-25 0-38.5-11.5T124 426q0-21 18.5-35.5T206 376q22 0 45 4t49 9l63 19q53 14 110.5 42.5T596 521V403q-54-33-113-60t-117-43l-58-14q-25-5-53-8t-54-3q-91 0-141.5 39.5T9 423q0 59 38.5 98T158 560m250 190V75l-76 75h563V0H238v750h170z" horiz-adv-x="912" vert-adv-y="1000"/><glyph glyph-name="uni013D" unicode="Ľ" d="M247 750V75l-77 75h563V0H77v750h170m160 0h148l-58-232H379l28 232z" horiz-adv-x="752" vert-adv-y="1000"/><glyph glyph-name="uni1E3C" unicode="Ḽ" d="M247 750V75l-77 75h563V0H77v750h170m87-792h175l143-180H516L384-87h75L328-222H191L334-42z" horiz-adv-x="751" vert-adv-y="1000"/><glyph glyph-name="uni013B" unicode="Ļ" d="M247 750V75l-77 75h563V0H77v750h170m87-1036l81 138 7-46q-42 0-68 20.5T328-120q0 34 25.5 54T422-46q43 0 68.5-20.5T516-122q0-24-11.5-44T464-225l-47-61h-83z" horiz-adv-x="751" vert-adv-y="1000"/><glyph glyph-name="uni013F" unicode="Ŀ" d="M247 750V75l-77 75h563V0H77v750h170m290-398q-29 0-52.5 13.5t-37 37Q434 426 434 455t13.5 52.5q13.5 23.5 37 37T537 558q29 0 52.5-13.5t37-37Q640 484 640 455t-13.5-52.5q-13.5-23.5-37-37T537 352z" horiz-adv-x="752" vert-adv-y="1000"/><glyph glyph-name="uni1E36" unicode="Ḷ" d="M247 750V75l-77 75h563V0H77v750h170m175-976q-45 0-73.5 23.5T320-140q0 40 28.5 63.5T422-53q46 0 74-23.5t28-63.5q0-39-28-62.5T422-226z" horiz-adv-x="751" vert-adv-y="1000"/><glyph glyph-name="uni1E38" unicode="Ḹ" d="M247 750V75l-77 75h563V0H77v750h170m175-976q-45 0-73.5 23.5T320-140q0 40 28.5 63.5T422-53q46 0 74-23.5t28-63.5q0-39-28-62.5T422-226M-69 833v104h460V833H-69z" horiz-adv-x="751" vert-adv-y="1000"/><glyph glyph-name="uni01C8" unicode="ǈ" d="M247 750V75l-77 75h563V0H77v750h170m560-175l83-16 84 16v-740H807v740m83 59q-45 0-73.5 23.5T788 720q0 40 28.5 63.5T890 807q46 0 74-23.5t28-63.5q0-39-28-62.5T890 634z" horiz-adv-x="1036" vert-adv-y="1000"/><glyph glyph-name="uni1E3A" unicode="Ḻ" d="M247 750V75l-77 75h563V0H77v750h170m-49-921v104h460v-104H198z" horiz-adv-x="751" vert-adv-y="1000"/><glyph glyph-name="uni0141" unicode="Ł" d="M36 427l492 130V439L36 308v119m249 323V75l-76 75h563V0H115v750h170z" horiz-adv-x="790" vert-adv-y="1000"/><glyph glyph-name="uni4d" unicode="M" d="M1130 750V0H968v693l43-3L691 0H516L196 688l42 4V0H77v750h261L640 82h-73l302 668h261z" horiz-adv-x="1206" vert-adv-y="1000"/><glyph glyph-name="uni1E3E" unicode="Ḿ" d="M1130 750V0H968v693l43-3L691 0H516L196 688l42 4V0H77v750h261L640 82h-73l302 668h261M643 969h193L667 808H496l147 161z" horiz-adv-x="1206" vert-adv-y="1000"/><glyph glyph-name="uni1E40" unicode="Ṁ" d="M1130 750V0H968v693l43-3L691 0H516L196 688l42 4V0H77v750h261L640 82h-73l302 668h261m-527 65q-45 0-73.5 23.5T501 902q0 39 28.5 63t73.5 24q46 0 74-24t28-63q0-40-28-63.5T603 815z" horiz-adv-x="1206" vert-adv-y="1000"/><glyph glyph-name="uni1E42" unicode="Ṃ" d="M1130 750V0H968v693l43-3L691 0H516L196 688l42 4V0H77v750h261L640 82h-73l302 668h261M603-226q-45 0-73.5 23.5T501-140q0 40 28.5 63.5T603-53q46 0 74-23.5t28-63.5q0-39-28-62.5T603-226z" horiz-adv-x="1206" vert-adv-y="1000"/><glyph glyph-name="uni2C6E" unicode="Ɱ" d="M968 69v624l43-3L691 0H516L196 688l42 4V0H77v750h261L640 82h-73l302 668h261V54q0-112-55-173t-172-61q-33 0-68 5t-63 16v129q18-7 41-12t51-5q53 0 78.5 29T968 69z" horiz-adv-x="1206" vert-adv-y="1000"/><glyph glyph-name="uni019C" unicode="Ɯ" d="M1163 0H993l-36 219v531h170V191l36-191M754-15q-76 0-129.5 33t-82 93.5Q514 172 514 255v495h170V280q0-72 33-111t95-39q45 0 77.5 20.5t50 58Q957 246 957 296l55-29q-10-90-46-153t-90.5-96Q821-15 754-15m-440 0q-77 0-131.5 32.5t-83 92.5Q71 170 71 252v498h170V280q0-72 33-111t95-39q45 0 77.5 20.5t50 58Q514 246 514 296l58-29q-10-90-46-153t-91-96q-55-33-121-33z" horiz-adv-x="1211" vert-adv-y="1000"/><glyph glyph-name="uni4e" unicode="N" d="M772 112l-59-9v647h165V0H663L183 647l58 9V0H77v750h220l475-638z" horiz-adv-x="954" vert-adv-y="1000"/><glyph glyph-name="uni01CA" unicode="Ǌ" d="M772 112l-59-9v647h165V0H663L183 647l58 9V0H77v750h220l475-638m204 252h167v-29q0-97 42.5-149.5T1326 133q97 0 140.5 50.5T1510 323v427h170V315q0-106-44.5-180T1511 23q-80-38-185-38-104 0-183 39t-122.5 114.5Q977 214 977 323l-1 41z" horiz-adv-x="1748" vert-adv-y="1000"/><glyph glyph-name="uni0143" unicode="Ń" d="M772 112l-59-9v647h165V0H663L183 647l58 9V0H77v750h220l475-638M530 969h193L554 808H383l147 161z" horiz-adv-x="954" vert-adv-y="1000"/><glyph glyph-name="uni0147" unicode="Ň" d="M772 112l-59-9v647h165V0H663L183 647l58 9V0H77v750h220l475-638M581 808H400L250 968h143l135-104h-75l134 104h143L581 808z" horiz-adv-x="954" vert-adv-y="1000"/><glyph glyph-name="uni1E4A" unicode="Ṋ" d="M772 112l-59-9v647h165V0H663L183 647l58 9V0H77v750h220l475-638M390-42h175l143-180H572L440-87h75L384-222H247L390-42z" horiz-adv-x="954" vert-adv-y="1000"/><glyph glyph-name="uni0145" unicode="Ņ" d="M772 112l-59-9v647h165V0H663L183 647l58 9V0H77v750h220l475-638M390-286l81 138 7-46q-42 0-68 20.5T384-120q0 34 25.5 54T478-46q43 0 68.5-20.5T572-122q0-24-11.5-44T520-225l-47-61h-83z" horiz-adv-x="954" vert-adv-y="1000"/><glyph glyph-name="uni1E44" unicode="Ṅ" d="M772 112l-59-9v647h165V0H663L183 647l58 9V0H77v750h220l475-638M490 815q-45 0-73.5 23.5T388 902q0 39 28.5 63t73.5 24q46 0 74-24t28-63q0-40-28-63.5T490 815z" horiz-adv-x="954" vert-adv-y="1000"/><glyph glyph-name="uni1E46" unicode="Ṇ" d="M772 112l-59-9v647h165V0H663L183 647l58 9V0H77v750h220l475-638M478-226q-45 0-73.5 23.5T376-140q0 40 28.5 63.5T478-53q46 0 74-23.5t28-63.5q0-39-28-62.5T478-226z" horiz-adv-x="954" vert-adv-y="1000"/><glyph glyph-name="uni01F8" unicode="Ǹ" d="M772 112l-59-9v647h165V0H663L183 647l58 9V0H77v750h220l475-638M438 969l147-161H414L245 969h193z" horiz-adv-x="954" vert-adv-y="1000"/><glyph glyph-name="uni019D" unicode="Ɲ" d="M77 750h220l474-638-58-9v647h165V0H663L184 647l57 9V60q0-117-58.5-178.5T4-180q-33 0-64 5t-59 13v129q19-5 41-9t46-4q58 0 83.5 29T77 70v680z" horiz-adv-x="954" vert-adv-y="1000"/><glyph glyph-name="uni01CB" unicode="ǋ" d="M772 112l-59-9v647h165V0H663L183 647l58 9V0H77v750h220l475-638m237 463l83-16 84 16v-740h-167v740m83 59q-45 0-73.5 23.5T990 720q0 40 28.5 63.5T1092 807q46 0 74-23.5t28-63.5q0-39-28-62.5t-74-23.5z" horiz-adv-x="1239" vert-adv-y="1000"/><glyph glyph-name="uni1E48" unicode="Ṉ" d="M772 112l-59-9v647h165V0H663L183 647l58 9V0H77v750h220l475-638M253-171v104h460v-104H253z" horiz-adv-x="954" vert-adv-y="1000"/><glyph glyph-name="uni0220" unicode="Ƞ" d="M77 750h170V0H77v750m438 15q93 0 159.5-36t102-102.5Q812 560 812 468v-633H642v593q0 90-48.5 137.5T454 613q-65 0-111-23t-71-65q-25-42-25-99l-57 28q15 109 59 177.5t112 101Q429 765 515 765z" horiz-adv-x="881" vert-adv-y="1000"/><glyph glyph-name="unid1" unicode="Ñ" d="M772 112l-59-9v647h165V0H663L183 647l58 9V0H77v750h220l475-638M235 814q9 73 47.5 115.5T393 972q28 0 53.5-8t49.5-17.5q24-9.5 45-17.5t39-8q22 0 36 12t17 35h112q-9-72-48-115t-111-43q-27 0-53 8t-49.5 18q-23.5 10-45 18t-38.5 8q-22 0-36-12.5T347 814H235z" horiz-adv-x="954" vert-adv-y="1000"/><glyph glyph-name="uni014A" unicode="Ŋ" d="M77 750h170V0H77v750m765-278V42q0-67-27-117t-83.5-77.5Q675-180 585-180q-52 0-96.5 9.5T416-150v131q29-14 66-21.5t77-7.5q61 0 87 24.5T672 59v374q0 88-51.5 134.5T469 614q-69 0-119-24t-76.5-67.5Q247 479 247 419l-60 35q17 109 64.5 177.5t119.5 101Q443 765 531 765q97 0 167-35.5t107-101Q842 563 842 472z" horiz-adv-x="912" vert-adv-y="1000"/><glyph glyph-name="uni4f" unicode="O" d="M478-15q-131 0-229.5 49T95 170.5Q40 258 40 375t55 204.5Q150 667 248.5 716T478 765q131 0 229.5-49T861 579.5Q916 492 916 375t-55-204.5Q806 83 707.5 34T478-15m0 151q82 0 141.5 29t92 83Q744 302 744 375t-32.5 127q-32.5 54-92 83T478 614q-81 0-141-29t-92.5-83Q212 448 212 375t32.5-127q32.5-54 92.5-83t141-29z" horiz-adv-x="956" vert-adv-y="1000"/><glyph glyph-name="unid3" unicode="Ó" d="M478-15q-131 0-229.5 49T95 170.5Q40 258 40 375t55 204.5Q150 667 248.5 716T478 765q131 0 229.5-49T861 579.5Q916 492 916 375t-55-204.5Q806 83 707.5 34T478-15m0 151q82 0 141.5 29t92 83Q744 302 744 375t-32.5 127q-32.5 54-92 83T478 614q-81 0-141-29t-92.5-83Q212 448 212 375t32.5-127q32.5-54 92.5-83t141-29m40 833h193L542 808H371l147 161z" horiz-adv-x="956" vert-adv-y="1000"/><glyph glyph-name="uni014E" unicode="Ŏ" d="M478-15q-131 0-229.5 49T95 170.5Q40 258 40 375t55 204.5Q150 667 248.5 716T478 765q131 0 229.5-49T861 579.5Q916 492 916 375t-55-204.5Q806 83 707.5 34T478-15m0 151q82 0 141.5 29t92 83Q744 302 744 375t-32.5 127q-32.5 54-92 83T478 614q-81 0-141-29t-92.5-83Q212 448 212 375t32.5-127q32.5-54 92.5-83t141-29M243 972h130q13-32 39-48.5t66-16.5q40 0 66 16.5t39 48.5h130q-22-85-84-127.5T478 802q-88 0-150.5 42.5T243 972z" horiz-adv-x="956" vert-adv-y="1000"/><glyph glyph-name="uni01D1" unicode="Ǒ" d="M478-15q-131 0-229.5 49T95 170.5Q40 258 40 375t55 204.5Q150 667 248.5 716T478 765q131 0 229.5-49T861 579.5Q916 492 916 375t-55-204.5Q806 83 707.5 34T478-15m0 151q82 0 141.5 29t92 83Q744 302 744 375t-32.5 127q-32.5 54-92 83T478 614q-81 0-141-29t-92.5-83Q212 448 212 375t32.5-127q32.5-54 92.5-83t141-29m91 672H388L238 968h143l135-104h-75l134 104h143L569 808z" horiz-adv-x="956" vert-adv-y="1000"/><glyph glyph-name="uni019F" unicode="Ɵ" d="M91 442h754V308H91v134M478-15q-131 0-229.5 49T95 170.5Q40 258 40 375t55 204.5Q150 667 248.5 716T478 765q131 0 229.5-49T861 579.5Q916 492 916 375t-55-204.5Q806 83 707.5 34T478-15m0 146q83 0 143 29.5t93 84.5q33 55 33 130t-33 130q-33 55-93 84.5T478 619q-82 0-142.5-29.5T242 505q-33-55-33-130t33-130q33-55 93.5-84.5T478 131z" horiz-adv-x="956" vert-adv-y="1000"/><glyph glyph-name="unid4" unicode="Ô" d="M478-15q-131 0-229.5 49T95 170.5Q40 258 40 375t55 204.5Q150 667 248.5 716T478 765q131 0 229.5-49T861 579.5Q916 492 916 375t-55-204.5Q806 83 707.5 34T478-15m0 151q82 0 141.5 29t92 83Q744 302 744 375t-32.5 127q-32.5 54-92 83T478 614q-81 0-141-29t-92.5-83Q212 448 212 375t32.5-127q32.5-54 92.5-83t141-29m-91 833h181l150-161H575L440 912h75L380 808H238l149 161z" horiz-adv-x="956" vert-adv-y="1000"/><glyph glyph-name="uni1ED0" unicode="Ố" d="M478-15q-131 0-229.5 49T95 170.5Q40 258 40 375t55 204.5Q150 667 248.5 716T478 765q131 0 229.5-49T861 579.5Q916 492 916 375t-55-204.5Q806 83 707.5 34T478-15m0 151q82 0 141.5 29t92 83Q744 302 744 375t-32.5 127q-32.5 54-92 83T478 614q-81 0-141-29t-92.5-83Q212 448 212 375t32.5-127q32.5-54 92.5-83t141-29m237 949h155L758 937H627l88 148M388 969h180l151-161H575L440 912h76L381 808H238l150 161z" horiz-adv-x="956" vert-adv-y="1000"/><glyph glyph-name="uni1ED8" unicode="Ộ" d="M478-15q-131 0-229.5 49T95 170.5Q40 258 40 375t55 204.5Q150 667 248.5 716T478 765q131 0 229.5-49T861 579.5Q916 492 916 375t-55-204.5Q806 83 707.5 34T478-15m0 151q82 0 141.5 29t92 83Q744 302 744 375t-32.5 127q-32.5 54-92 83T478 614q-81 0-141-29t-92.5-83Q212 448 212 375t32.5-127q32.5-54 92.5-83t141-29m0-362q-45 0-73.5 23.5T376-140q0 40 28.5 63.5T478-53q46 0 74-23.5t28-63.5q0-39-28-62.5T478-226M387 969h181l150-161H575L440 912h75L380 808H238l149 161z" horiz-adv-x="956" vert-adv-y="1000"/><glyph glyph-name="uni1ED2" unicode="Ồ" d="M478-15q-131 0-229.5 49T95 170.5Q40 258 40 375t55 204.5Q150 667 248.5 716T478 765q131 0 229.5-49T861 579.5Q916 492 916 375t-55-204.5Q806 83 707.5 34T478-15m0 151q82 0 141.5 29t92 83Q744 302 744 375t-32.5 127q-32.5 54-92 83T478 614q-81 0-141-29t-92.5-83Q212 448 212 375t32.5-127q32.5-54 92.5-83t141-29m213 949l88-148H648l-112 148h155M388 969h180l151-161H575L440 912h76L381 808H238l150 161z" horiz-adv-x="956" vert-adv-y="1000"/><glyph glyph-name="uni1ED4" unicode="Ổ" d="M478-15q-131 0-229.5 49T95 170.5Q40 258 40 375t55 204.5Q150 667 248.5 716T478 765q131 0 229.5-49T861 579.5Q916 492 916 375t-55-204.5Q806 83 707.5 34T478-15m0 151q82 0 141.5 29t92 83Q744 302 744 375t-32.5 127q-32.5 54-92 83T478 614q-81 0-141-29t-92.5-83Q212 448 212 375t32.5-127q32.5-54 92.5-83t141-29m195 779l-32 47q32 10 46 22t14 25q0 31-59 31-14 0-30-2t-32-6v89q17 6 44.5 10t59.5 4q72 0 112.5-25.5T837 1039q0-43-40.5-74T673 915m-285 54h180l151-161H575L440 912h76L381 808H238l150 161z" horiz-adv-x="956" vert-adv-y="1000"/><glyph glyph-name="uni1ED6" unicode="Ỗ" d="M478-15q-131 0-229.5 49T95 170.5Q40 258 40 375t55 204.5Q150 667 248.5 716T478 765q131 0 229.5-49T861 579.5Q916 492 916 375t-55-204.5Q806 83 707.5 34T478-15m0 151q82 0 141.5 29t92 83Q744 302 744 375t-32.5 127q-32.5 54-92 83T478 614q-81 0-141-29t-92.5-83Q212 448 212 375t32.5-127q32.5-54 92.5-83t141-29m-222 868q4 70 37 113t91 43q29 0 51.5-7.5t40.5-18q18-10.5 34-18t31-7.5q18 0 29.5 13t15.5 37h104q-4-72-37-113.5t-92-41.5q-28 0-51 8t-41 17.5q-18 9.5-34 17.5t-31 8q-18 0-29.5-13t-15.5-38H256m131-35h181l150-161H575L440 912h75L380 808H238l149 161z" horiz-adv-x="956" vert-adv-y="1000"/><glyph glyph-name="uni020C" unicode="Ȍ" d="M478-15q-131 0-229.5 49T95 170.5Q40 258 40 375t55 204.5Q150 667 248.5 716T478 765q131 0 229.5-49T861 579.5Q916 492 916 375t-55-204.5Q806 83 707.5 34T478-15m0 151q82 0 141.5 29t92 83Q744 302 744 375t-32.5 127q-32.5 54-92 83T478 614q-81 0-141-29t-92.5-83Q212 448 212 375t32.5-127q32.5-54 92.5-83t141-29m72 833l123-161H523L387 969h163m-240 0l121-161H281L146 969h164z" horiz-adv-x="956" vert-adv-y="1000"/><glyph glyph-name="unid6" unicode="Ö" d="M478-15q-131 0-229.5 49T95 170.5Q40 258 40 375t55 204.5Q150 667 248.5 716T478 765q131 0 229.5-49T861 579.5Q916 492 916 375t-55-204.5Q806 83 707.5 34T478-15m0 151q82 0 141.5 29t92 83Q744 302 744 375t-32.5 127q-32.5 54-92 83T478 614q-81 0-141-29t-92.5-83Q212 448 212 375t32.5-127q32.5-54 92.5-83t141-29M326 815q-43 0-69 23t-26 61q0 37 26 59.5t69 22.5q44 0 70-22.5t26-59.5q0-38-26-61t-70-23m303 0q-43 0-69.5 23T533 899q0 37 26.5 59.5T629 981q43 0 69.5-22.5T725 899q0-38-26.5-61T629 815z" horiz-adv-x="956" vert-adv-y="1000"/><glyph glyph-name="uni022A" unicode="Ȫ" d="M478-15q-131 0-229.5 49T95 170.5Q40 258 40 375t55 204.5Q150 667 248.5 716T478 765q131 0 229.5-49T861 579.5Q916 492 916 375t-55-204.5Q806 83 707.5 34T478-15m0 151q82 0 141.5 29t92 83Q744 302 744 375t-32.5 127q-32.5 54-92 83T478 614q-81 0-141-29t-92.5-83Q212 448 212 375t32.5-127q32.5-54 92.5-83t141-29M327 815q-43 0-69 23t-26 61q0 37 26 59.5t69 22.5q44 0 70-22.5t26-59.5q0-38-26-61t-70-23m303 0q-43 0-69.5 23T534 899q0 37 26.5 59.5T630 981q43 0 69.5-22.5T726 899q0-38-26.5-61T630 815m-381 218v104h460v-104H249z" horiz-adv-x="956" vert-adv-y="1000"/><glyph glyph-name="uni022E" unicode="Ȯ" d="M478-15q-131 0-229.5 49T95 170.5Q40 258 40 375t55 204.5Q150 667 248.5 716T478 765q131 0 229.5-49T861 579.5Q916 492 916 375t-55-204.5Q806 83 707.5 34T478-15m0 151q82 0 141.5 29t92 83Q744 302 744 375t-32.5 127q-32.5 54-92 83T478 614q-81 0-141-29t-92.5-83Q212 448 212 375t32.5-127q32.5-54 92.5-83t141-29m0 679q-45 0-73.5 23.5T376 902q0 39 28.5 63t73.5 24q46 0 74-24t28-63q0-40-28-63.5T478 815z" horiz-adv-x="956" vert-adv-y="1000"/><glyph glyph-name="uni0230" unicode="Ȱ" d="M478-15q-131 0-229.5 49T95 170.5Q40 258 40 375t55 204.5Q150 667 248.5 716T478 765q131 0 229.5-49T861 579.5Q916 492 916 375t-55-204.5Q806 83 707.5 34T478-15m0 151q82 0 141.5 29t92 83Q744 302 744 375t-32.5 127q-32.5 54-92 83T478 614q-81 0-141-29t-92.5-83Q212 448 212 375t32.5-127q32.5-54 92.5-83t141-29m1 679q-45 0-73.5 23.5T377 902q0 39 28.5 63t73.5 24q46 0 74-24t28-63q0-40-28-63.5T479 815m-231 218v104h460v-104H248z" horiz-adv-x="956" vert-adv-y="1000"/><glyph glyph-name="uni1ECC" unicode="Ọ" d="M478-15q-131 0-229.5 49T95 170.5Q40 258 40 375t55 204.5Q150 667 248.5 716T478 765q131 0 229.5-49T861 579.5Q916 492 916 375t-55-204.5Q806 83 707.5 34T478-15m0 151q82 0 141.5 29t92 83Q744 302 744 375t-32.5 127q-32.5 54-92 83T478 614q-81 0-141-29t-92.5-83Q212 448 212 375t32.5-127q32.5-54 92.5-83t141-29m0-362q-45 0-73.5 23.5T376-140q0 40 28.5 63.5T478-53q46 0 74-23.5t28-63.5q0-39-28-62.5T478-226z" horiz-adv-x="956" vert-adv-y="1000"/><glyph glyph-name="unid2" unicode="Ò" d="M478-15q-131 0-229.5 49T95 170.5Q40 258 40 375t55 204.5Q150 667 248.5 716T478 765q131 0 229.5-49T861 579.5Q916 492 916 375t-55-204.5Q806 83 707.5 34T478-15m0 151q82 0 141.5 29t92 83Q744 302 744 375t-32.5 127q-32.5 54-92 83T478 614q-81 0-141-29t-92.5-83Q212 448 212 375t32.5-127q32.5-54 92.5-83t141-29m-52 833l146-161H402L233 969h193z" horiz-adv-x="956" vert-adv-y="1000"/><glyph glyph-name="uni1ECE" unicode="Ỏ" d="M478-15q-131 0-229.5 49T95 170.5Q40 258 40 375t55 204.5Q150 667 248.5 716T478 765q131 0 229.5-49T861 579.5Q916 492 916 375t-55-204.5Q806 83 707.5 34T478-15m0 151q82 0 141.5 29t92 83Q744 302 744 375t-32.5 127q-32.5 54-92 83T478 614q-81 0-141-29t-92.5-83Q212 448 212 375t32.5-127q32.5-54 92.5-83t141-29m-39 658l-34 57q48 8 68.5 19.5T494 896q0 13-16 19t-47 6q-24 0-44-3t-42-7v90q20 6 53.5 11t69.5 5q82 0 125.5-23.5T637 919q0-46-46-77t-152-48z" horiz-adv-x="956" vert-adv-y="1000"/><glyph glyph-name="uni01A0" unicode="Ơ" d="M477-15q-130 0-228.5 49T95 170.5Q40 258 40 375t55 204.5Q150 667 248.5 716T477 765q40 0 71-3.5t57-9.5q23-5 45-8.5t45-3.5q52 0 74 19.5t22 47.5q0 17-6.5 36T764 881h136q14-23 21.5-48t7.5-49q0-50-34.5-84.5T793 654q58-50 90-121t32-158q0-117-55-204.5T706.5 34Q608-15 477-15m0 151q83 0 142 29t91.5 83Q743 302 743 375t-32.5 127Q678 556 619 585t-142 29q-81 0-140.5-29t-92-83Q212 448 212 375t32.5-127q32.5-54 92-83T477 136z" horiz-adv-x="957" vert-adv-y="1000"/><glyph glyph-name="uni1EDA" unicode="Ớ" d="M477-15q-130 0-228.5 49T95 170.5Q40 258 40 375t55 204.5Q150 667 248.5 716T477 765q40 0 71-3.5t57-9.5q23-5 45-8.5t45-3.5q52 0 74 19.5t22 47.5q0 17-6.5 36T764 881h136q14-23 21.5-48t7.5-49q0-50-34.5-84.5T793 654q58-50 90-121t32-158q0-117-55-204.5T706.5 34Q608-15 477-15m0 151q83 0 142 29t91.5 83Q743 302 743 375t-32.5 127Q678 556 619 585t-142 29q-81 0-140.5-29t-92-83Q212 448 212 375t32.5-127q32.5-54 92-83T477 136m35 833h193L536 808H365l147 161z" horiz-adv-x="957" vert-adv-y="1000"/><glyph glyph-name="uni1EE2" unicode="Ợ" d="M477-15q-130 0-228.5 49T95 170.5Q40 258 40 375t55 204.5Q150 667 248.5 716T477 765q40 0 71-3.5t57-9.5q23-5 45-8.5t45-3.5q52 0 74 19.5t22 47.5q0 17-6.5 36T764 881h136q14-23 21.5-48t7.5-49q0-50-34.5-84.5T793 654q58-50 90-121t32-158q0-117-55-204.5T706.5 34Q608-15 477-15m0 151q83 0 142 29t91.5 83Q743 302 743 375t-32.5 127Q678 556 619 585t-142 29q-81 0-140.5-29t-92-83Q212 448 212 375t32.5-127q32.5-54 92-83T477 136m-4-362q-45 0-73.5 23.5T371-140q0 40 28.5 63.5T473-53q46 0 74-23.5t28-63.5q0-39-28-62.5T473-226z" horiz-adv-x="957" vert-adv-y="1000"/><glyph glyph-name="uni1EDC" unicode="Ờ" d="M477-15q-130 0-228.5 49T95 170.5Q40 258 40 375t55 204.5Q150 667 248.5 716T477 765q40 0 71-3.5t57-9.5q23-5 45-8.5t45-3.5q52 0 74 19.5t22 47.5q0 17-6.5 36T764 881h136q14-23 21.5-48t7.5-49q0-50-34.5-84.5T793 654q58-50 90-121t32-158q0-117-55-204.5T706.5 34Q608-15 477-15m0 151q83 0 142 29t91.5 83Q743 302 743 375t-32.5 127Q678 556 619 585t-142 29q-81 0-140.5-29t-92-83Q212 448 212 375t32.5-127q32.5-54 92-83T477 136m-56 833l146-161H397L228 969h193z" horiz-adv-x="957" vert-adv-y="1000"/><glyph glyph-name="uni1EDE" unicode="Ở" d="M477-15q-130 0-228.5 49T95 170.5Q40 258 40 375t55 204.5Q150 667 248.5 716T477 765q40 0 71-3.5t57-9.5q23-5 45-8.5t45-3.5q52 0 74 19.5t22 47.5q0 17-6.5 36T764 881h136q14-23 21.5-48t7.5-49q0-50-34.5-84.5T793 654q58-50 90-121t32-158q0-117-55-204.5T706.5 34Q608-15 477-15m0 151q83 0 142 29t91.5 83Q743 302 743 375t-32.5 127Q678 556 619 585t-142 29q-81 0-140.5-29t-92-83Q212 448 212 375t32.5-127q32.5-54 92-83T477 136m-43 658l-34 57q48 8 68.5 19.5T489 896q0 13-16 19t-47 6q-24 0-44-3t-42-7v90q20 6 53.5 11t69.5 5q82 0 125.5-23.5T632 919q0-46-46-77t-152-48z" horiz-adv-x="957" vert-adv-y="1000"/><glyph glyph-name="uni1EE0" unicode="Ỡ" d="M477-15q-130 0-228.5 49T95 170.5Q40 258 40 375t55 204.5Q150 667 248.5 716T477 765q40 0 71-3.5t57-9.5q23-5 45-8.5t45-3.5q52 0 74 19.5t22 47.5q0 17-6.5 36T764 881h136q14-23 21.5-48t7.5-49q0-50-34.5-84.5T793 654q58-50 90-121t32-158q0-117-55-204.5T706.5 34Q608-15 477-15m0 151q83 0 142 29t91.5 83Q743 302 743 375t-32.5 127Q678 556 619 585t-142 29q-81 0-140.5-29t-92-83Q212 448 212 375t32.5-127q32.5-54 92-83T477 136M218 814q9 73 47.5 115.5T376 972q28 0 53.5-8t49.5-17.5q24-9.5 45-17.5t39-8q22 0 36 12t17 35h112q-9-72-48-115t-111-43q-27 0-53 8t-49.5 18q-23.5 10-45 18t-38.5 8q-22 0-36-12.5T330 814H218z" horiz-adv-x="957" vert-adv-y="1000"/><glyph glyph-name="uni0150" unicode="Ő" d="M478-15q-131 0-229.5 49T95 170.5Q40 258 40 375t55 204.5Q150 667 248.5 716T478 765q131 0 229.5-49T861 579.5Q916 492 916 375t-55-204.5Q806 83 707.5 34T478-15m0 151q82 0 141.5 29t92 83Q744 302 744 375t-32.5 127q-32.5 54-92 83T478 614q-81 0-141-29t-92.5-83Q212 448 212 375t32.5-127q32.5-54 92.5-83t141-29m-70 833h164L436 808H286l122 161m241 0h164L677 808H528l121 161z" horiz-adv-x="956" vert-adv-y="1000"/><glyph glyph-name="uni020E" unicode="Ȏ" d="M478-15q-131 0-229.5 49T95 170.5Q40 258 40 375t55 204.5Q150 667 248.5 716T478 765q131 0 229.5-49T861 579.5Q916 492 916 375t-55-204.5Q806 83 707.5 34T478-15m0 151q82 0 141.5 29t92 83Q744 302 744 375t-32.5 127q-32.5 54-92 83T478 614q-81 0-141-29t-92.5-83Q212 448 212 375t32.5-127q32.5-54 92.5-83t141-29m235 669H583q-13 31-39 48t-66 17q-40 0-66-17t-39-48H243q22 85 84.5 127.5T478 975q89 0 151.5-42.5T713 805z" horiz-adv-x="956" vert-adv-y="1000"/><glyph glyph-name="uni014C" unicode="Ō" d="M478-15q-131 0-229.5 49T95 170.5Q40 258 40 375t55 204.5Q150 667 248.5 716T478 765q131 0 229.5-49T861 579.5Q916 492 916 375t-55-204.5Q806 83 707.5 34T478-15m0 151q82 0 141.5 29t92 83Q744 302 744 375t-32.5 127q-32.5 54-92 83T478 614q-81 0-141-29t-92.5-83Q212 448 212 375t32.5-127q32.5-54 92.5-83t141-29M248 833v104h460V833H248z" horiz-adv-x="956" vert-adv-y="1000"/><glyph glyph-name="uni1E52" unicode="Ṓ" d="M478-15q-131 0-229.5 49T95 170.5Q40 258 40 375t55 204.5Q150 667 248.5 716T478 765q131 0 229.5-49T861 579.5Q916 492 916 375t-55-204.5Q806 83 707.5 34T478-15m0 151q82 0 141.5 29t92 83Q744 302 744 375t-32.5 127q-32.5 54-92 83T478 614q-81 0-141-29t-92.5-83Q212 448 212 375t32.5-127q32.5-54 92.5-83t141-29M248 833v104h460V833H248m270 324h193L542 996H371l147 161z" horiz-adv-x="956" vert-adv-y="1000"/><glyph glyph-name="uni1E50" unicode="Ṑ" d="M478-15q-131 0-229.5 49T95 170.5Q40 258 40 375t55 204.5Q150 667 248.5 716T478 765q131 0 229.5-49T861 579.5Q916 492 916 375t-55-204.5Q806 83 707.5 34T478-15m0 151q82 0 141.5 29t92 83Q744 302 744 375t-32.5 127q-32.5 54-92 83T478 614q-81 0-141-29t-92.5-83Q212 448 212 375t32.5-127q32.5-54 92.5-83t141-29M248 833v104h460V833H248m178 323l146-160H402l-169 160h193z" horiz-adv-x="956" vert-adv-y="1000"/><glyph glyph-name="uniA7B6" unicode="Ꞷ" d="M44 363q0 113 43 200t125 138q82 51 197 55V605q-62-7-105.5-36T238 488q-22-52-22-125 0-110 40.5-170T367 133q44 0 73.5 22.5t44.5 70Q500 273 500 349v134h145V349q0-76 15-123.5t44.5-70Q734 133 778 133q70 0 110.5 60T929 363q0 73-22 125t-65 81q-43 29-106 36v151q116-4 197.5-55T1058 563q43-87 43-200 0-114-36.5-199t-103-132Q895-15 806-15q-126 0-190.5 84.5T560 306h25q10-152-55-236.5T339-15q-88 0-154.5 47T81 164q-37 85-37 199z" horiz-adv-x="1145" vert-adv-y="1000"/><glyph glyph-name="uni01EA" unicode="Ǫ" d="M612-191q-13-5-41.5-9t-58.5-4q-66 0-106 25.5T366-110q0 38 34 66.5T505 7l-11-22q-101-2-184.5 25T166 89q-60 52-93 125T40 375q0 117 55 204.5T248.5 716Q347 765 478 765t229.5-49Q806 667 861 579.5T916 375q0-95-37.5-171.5T772.5 75Q704 23 611 0q-61-15-90.5-34T491-73q0-29 61-29 16 0 31.5 1.5T612-96v-95M212 375q0-73 32.5-127t92.5-83q60-29 141-29 82 0 141.5 29t92 83Q744 302 744 375t-32.5 127q-32.5 54-92 83T478 614q-81 0-141-29t-92.5-83Q212 448 212 375z" horiz-adv-x="956" vert-adv-y="1000"/><glyph glyph-name="uni01EC" unicode="Ǭ" d="M612-191q-13-5-41.5-9t-58.5-4q-66 0-106 25.5T366-110q0 38 34 66.5T505 7l-11-22q-101-2-184.5 25T166 89q-60 52-93 125T40 375q0 117 55 204.5T248.5 716Q347 765 478 765t229.5-49Q806 667 861 579.5T916 375q0-95-37.5-171.5T772.5 75Q704 23 611 0q-61-15-90.5-34T491-73q0-29 61-29 16 0 31.5 1.5T612-96v-95M212 375q0-73 32.5-127t92.5-83q60-29 141-29 82 0 141.5 29t92 83Q744 302 744 375t-32.5 127q-32.5 54-92 83T478 614q-81 0-141-29t-92.5-83Q212 448 212 375m36 458v104h460V833H248z" horiz-adv-x="956" vert-adv-y="1000"/><glyph glyph-name="uni0186" unicode="Ɔ" d="M34 305h171q10-54 43-92.5t85-59Q385 133 454 133q79 0 136.5 29.5t88.5 84Q710 301 710 375t-31 128.5q-31 54.5-88.5 84T454 617q-69 0-121-21t-85-59.5Q215 498 205 445H34q11 96 66.5 168t146 112Q337 765 453 765q129 0 225-49t150-136.5Q882 492 882 375t-54-204.5Q774 83 678 34T453-15q-116 0-206.5 40t-146 112.5Q45 210 34 305z" horiz-adv-x="923" vert-adv-y="1000"/><glyph glyph-name="unid8" unicode="Ø" d="M736 766h159L220-16H60l676 782M477-15q-130 0-228.5 49T95 170.5Q40 258 40 375t55 204.5Q150 667 248.5 716T477 765q96 0 176-28t138.5-79.5q58.5-51.5 91-123T915 375q0-117-55-204.5T706.5 34Q608-15 477-15m0 146q83 0 143 29.5t93.5 84.5Q747 300 747 375t-33.5 130Q680 560 620 589.5T477 619q-82 0-142-29.5T242 505q-33-55-33-130t33-130q33-55 93-84.5T477 131z" horiz-adv-x="956" vert-adv-y="1000"/><glyph glyph-name="uni01FE" unicode="Ǿ" d="M736 766h159L220-16H60l676 782M477-15q-130 0-228.5 49T95 170.5Q40 258 40 375t55 204.5Q150 667 248.5 716T477 765q96 0 176-28t138.5-79.5q58.5-51.5 91-123T915 375q0-117-55-204.5T706.5 34Q608-15 477-15m0 146q83 0 143 29.5t93.5 84.5Q747 300 747 375t-33.5 130Q680 560 620 589.5T477 619q-82 0-142-29.5T242 505q-33-55-33-130t33-130q33-55 93-84.5T477 131m40 838h193L541 808H370l147 161z" horiz-adv-x="956" vert-adv-y="1000"/><glyph glyph-name="unid5" unicode="Õ" d="M478-15q-131 0-229.5 49T95 170.5Q40 258 40 375t55 204.5Q150 667 248.5 716T478 765q131 0 229.5-49T861 579.5Q916 492 916 375t-55-204.5Q806 83 707.5 34T478-15m0 151q82 0 141.5 29t92 83Q744 302 744 375t-32.5 127q-32.5 54-92 83T478 614q-81 0-141-29t-92.5-83Q212 448 212 375t32.5-127q32.5-54 92.5-83t141-29M223 814q9 73 47.5 115.5T381 972q28 0 53.5-8t49.5-17.5q24-9.5 45-17.5t39-8q22 0 36 12t17 35h112q-9-72-48-115t-111-43q-27 0-53 8t-49.5 18q-23.5 10-45 18t-38.5 8q-22 0-36-12.5T335 814H223z" horiz-adv-x="956" vert-adv-y="1000"/><glyph glyph-name="uni1E4C" unicode="Ṍ" d="M478-15q-131 0-229.5 49T95 170.5Q40 258 40 375t55 204.5Q150 667 248.5 716T478 765q131 0 229.5-49T861 579.5Q916 492 916 375t-55-204.5Q806 83 707.5 34T478-15m0 151q82 0 141.5 29t92 83Q744 302 744 375t-32.5 127q-32.5 54-92 83T478 614q-81 0-141-29t-92.5-83Q212 448 212 375t32.5-127q32.5-54 92.5-83t141-29M223 814q9 73 47.5 115.5T381 972q28 0 53.5-8t49.5-17.5q24-9.5 45-17.5t39-8q22 0 36 12t17 35h112q-9-72-48-115t-111-43q-27 0-53 8t-49.5 18q-23.5 10-45 18t-38.5 8q-22 0-36-12.5T335 814H223m295 348h193l-169-161H371l147 161z" horiz-adv-x="956" vert-adv-y="1000"/><glyph glyph-name="uni1E4E" unicode="Ṏ" d="M478-15q-131 0-229.5 49T95 170.5Q40 258 40 375t55 204.5Q150 667 248.5 716T478 765q131 0 229.5-49T861 579.5Q916 492 916 375t-55-204.5Q806 83 707.5 34T478-15m0 151q82 0 141.5 29t92 83Q744 302 744 375t-32.5 127q-32.5 54-92 83T478 614q-81 0-141-29t-92.5-83Q212 448 212 375t32.5-127q32.5-54 92.5-83t141-29M223 814q9 73 47.5 115.5T381 972q28 0 53.5-8t49.5-17.5q24-9.5 45-17.5t39-8q22 0 36 12t17 35h112q-9-72-48-115t-111-43q-27 0-53 8t-49.5 18q-23.5 10-45 18t-38.5 8q-22 0-36-12.5T335 814H223m103 194q-43 0-69 23t-26 61q0 37 26 59.5t69 22.5q44 0 70-22.5t26-59.5q0-38-26-61t-70-23m303 0q-43 0-69.5 23t-26.5 61q0 37 26.5 59.5T629 1174q43 0 69.5-22.5T725 1092q0-38-26.5-61t-69.5-23z" horiz-adv-x="956" vert-adv-y="1000"/><glyph glyph-name="uni022C" unicode="Ȭ" d="M478-15q-131 0-229.5 49T95 170.5Q40 258 40 375t55 204.5Q150 667 248.5 716T478 765q131 0 229.5-49T861 579.5Q916 492 916 375t-55-204.5Q806 83 707.5 34T478-15m0 151q82 0 141.5 29t92 83Q744 302 744 375t-32.5 127q-32.5 54-92 83T478 614q-81 0-141-29t-92.5-83Q212 448 212 375t32.5-127q32.5-54 92.5-83t141-29M223 814q9 73 47.5 115.5T381 972q28 0 53.5-8t49.5-17.5q24-9.5 45-17.5t39-8q22 0 36 12t17 35h112q-9-72-48-115t-111-43q-27 0-53 8t-49.5 18q-23.5 10-45 18t-38.5 8q-22 0-36-12.5T335 814H223m25 212v104h460v-104H248z" horiz-adv-x="956" vert-adv-y="1000"/><glyph glyph-name="uni0152" unicode="Œ" d="M477 0Q347 0 248.5 47T95 178.5Q40 263 40 375q0 113 54 197t151.5 131Q343 750 473 750h810V609H818V441h438V311H818V141h470V0H477m-10 150h186v450H467q-77 0-134.5-28t-89-78.5Q212 443 212 375q0-67 31.5-118t89-79Q390 150 467 150z" horiz-adv-x="1340" vert-adv-y="1000"/><glyph glyph-name="uni50" unicode="P" d="M486 750q89 0 154-31t99.5-87Q774 576 774 502t-34.5-129.5Q705 317 640 285.5T486 254H155v140h322q59 0 92.5 29t33.5 79q0 51-33.5 79.5T477 610H170l77 81V0H77v750h409z" horiz-adv-x="796" vert-adv-y="1000"/><glyph glyph-name="uni1E54" unicode="Ṕ" d="M486 750q89 0 154-31t99.5-87Q774 576 774 502t-34.5-129.5Q705 317 640 285.5T486 254H155v140h322q59 0 92.5 29t33.5 79q0 51-33.5 79.5T477 610H170l77 81V0H77v750h409m-40 219h193L470 808H299l147 161z" horiz-adv-x="796" vert-adv-y="1000"/><glyph glyph-name="uni1E56" unicode="Ṗ" d="M486 750q89 0 154-31t99.5-87Q774 576 774 502t-34.5-129.5Q705 317 640 285.5T486 254H155v140h322q59 0 92.5 29t33.5 79q0 51-33.5 79.5T477 610H170l77 81V0H77v750h409m-79 65q-45 0-73.5 23.5T305 902q0 39 28.5 63t73.5 24q46 0 74-24t28-63q0-40-28-63.5T407 815z" horiz-adv-x="796" vert-adv-y="1000"/><glyph glyph-name="uni01A4" unicode="Ƥ" d="M215 750h487q89 0 154-31t99.5-87Q990 576 990 502t-34.5-129.5Q921 317 856 285.5T702 254H371v140h322q59 0 92.5 29t33.5 79q0 51-33.5 79.5T693 610H386l76 81V0H293v682l72-75H247q-37 0-58.5-16.5T167 532q0-27 6.5-53t14.5-48H59q-14 29-26 67t-12 81q0 80 48 125.5T215 750z" horiz-adv-x="1012" vert-adv-y="1000"/><glyph glyph-name="unide" unicode="Þ" d="M77 750h170V0H77v750m409-618H189v139h287q60 0 93.5 29t33.5 80q0 50-33.5 79.5T476 489H190v138h296q89 0 154-30.5t99.5-86.5Q774 454 774 380q0-75-34.5-131T640 162.5Q575 132 486 132z" horiz-adv-x="811" vert-adv-y="1000"/><glyph glyph-name="uni2C63" unicode="Ᵽ" d="M22 554h449V445H22v109m498 196q90 0 154.5-31.5t99.5-88Q809 574 809 499t-35-131.5q-35-56.5-99.5-88T520 248H189v141h322q59 0 92.5 29.5T637 499q0 52-33.5 81.5T511 610H205l76 81V0H111v750h409z" horiz-adv-x="831" vert-adv-y="1000"/><glyph glyph-name="uni51" unicode="Q" d="M366 296h204L900-54H691L366 296M478-15q-131 0-229.5 49T95 170.5Q40 258 40 375t55 204.5Q150 667 248.5 716T478 765q131 0 229.5-49T861 579.5Q916 492 916 375t-55-204.5Q806 83 707.5 34T478-15m0 151q82 0 141.5 29t92 83Q744 302 744 375t-32.5 127q-32.5 54-92 83T478 614q-81 0-141-29t-92.5-83Q212 448 212 375t32.5-127q32.5-54 92.5-83t141-29z" horiz-adv-x="957" vert-adv-y="1000"/><glyph glyph-name="uni024A" unicode="Ɋ" d="M989-47q27 0 50 5t42 12v-126q-29-12-63.5-18t-68.5-6q-116 0-171 61T723 54v223l28 99-28 97v277h168V69q0-58 22.5-87T989-47M794 376q-21-118-73.5-206T589 33.5Q510-15 408-15q-109 0-191.5 49t-128 136.5Q43 258 43 375t45.5 204.5Q134 667 216.5 716T408 765q102 0 181-47.5t132-135Q774 495 794 376m-580 0q0-70 30-125t82.5-86Q379 134 449 134q65 0 119.5 31t96.5 86q42 55 65 125-23 70-65 124t-96.5 85Q514 616 449 616q-69 0-122-31t-83-85q-30-54-30-124z" horiz-adv-x="967" vert-adv-y="1000"/><glyph glyph-name="uni52" unicode="R" d="M195 417h289q57 0 90.5 26.5T608 517q0 47-33.5 73T484 616H170l77 87V0H77v750h427q82 0 144-29.5t97-81.5q35-52 35-122 0-69-35-121t-97-81.5Q586 285 504 285H195v132m130-66h194L802 0H603L325 351z" horiz-adv-x="830" vert-adv-y="1000"/><glyph glyph-name="uni0154" unicode="Ŕ" d="M195 417h289q57 0 90.5 26.5T608 517q0 47-33.5 73T484 616H170l77 87V0H77v750h427q82 0 144-29.5t97-81.5q35-52 35-122 0-69-35-121t-97-81.5Q586 285 504 285H195v132m130-66h194L802 0H603L325 351m121 618h193L470 808H299l147 161z" horiz-adv-x="830" vert-adv-y="1000"/><glyph glyph-name="uni0158" unicode="Ř" d="M195 417h289q57 0 90.5 26.5T608 517q0 47-33.5 73T484 616H170l77 87V0H77v750h427q82 0 144-29.5t97-81.5q35-52 35-122 0-69-35-121t-97-81.5Q586 285 504 285H195v132m130-66h194L802 0H603L325 351m172 457H316L166 968h143l135-104h-75l135 104h142L497 808z" horiz-adv-x="830" vert-adv-y="1000"/><glyph glyph-name="uni0156" unicode="Ŗ" d="M195 417h289q57 0 90.5 26.5T608 517q0 47-33.5 73T484 616H170l77 87V0H77v750h427q82 0 144-29.5t97-81.5q35-52 35-122 0-69-35-121t-97-81.5Q586 285 504 285H195v132m130-66h194L802 0H603L325 351m8-637l81 138 7-46q-42 0-68 20.5T327-120q0 34 25.5 54T421-46q43 0 68.5-20.5T515-122q0-24-11.5-44T463-225l-47-61h-83z" horiz-adv-x="830" vert-adv-y="1000"/><glyph glyph-name="uni0210" unicode="Ȑ" d="M195 417h289q57 0 90.5 26.5T608 517q0 47-33.5 73T484 616H170l77 87V0H77v750h427q82 0 144-29.5t97-81.5q35-52 35-122 0-69-35-121t-97-81.5Q586 285 504 285H195v132m130-66h194L802 0H603L325 351m154 618l122-161H451L316 969h163m-241 0l122-161H210L74 969h164z" horiz-adv-x="830" vert-adv-y="1000"/><glyph glyph-name="uni1E58" unicode="Ṙ" d="M195 417h289q57 0 90.5 26.5T608 517q0 47-33.5 73T484 616H170l77 87V0H77v750h427q82 0 144-29.5t97-81.5q35-52 35-122 0-69-35-121t-97-81.5Q586 285 504 285H195v132m130-66h194L802 0H603L325 351m82 464q-45 0-73.5 23.5T305 902q0 39 28.5 63t73.5 24q46 0 74-24t28-63q0-40-28-63.5T407 815z" horiz-adv-x="830" vert-adv-y="1000"/><glyph glyph-name="uni1E5A" unicode="Ṛ" d="M195 417h289q57 0 90.5 26.5T608 517q0 47-33.5 73T484 616H170l77 87V0H77v750h427q82 0 144-29.5t97-81.5q35-52 35-122 0-69-35-121t-97-81.5Q586 285 504 285H195v132m130-66h194L802 0H603L325 351m96-577q-45 0-73.5 23.5T319-140q0 40 28.5 63.5T421-53q46 0 74-23.5t28-63.5q0-39-28-62.5T421-226z" horiz-adv-x="830" vert-adv-y="1000"/><glyph glyph-name="uni1E5C" unicode="Ṝ" d="M195 417h289q57 0 90.5 26.5T608 517q0 47-33.5 73T484 616H170l77 87V0H77v750h427q82 0 144-29.5t97-81.5q35-52 35-122 0-69-35-121t-97-81.5Q586 285 504 285H195v132m130-66h194L802 0H603L325 351m96-577q-45 0-73.5 23.5T319-140q0 40 28.5 63.5T421-53q46 0 74-23.5t28-63.5q0-39-28-62.5T421-226M177 833v104h460V833H177z" horiz-adv-x="830" vert-adv-y="1000"/><glyph glyph-name="uni0212" unicode="Ȓ" d="M195 417h289q57 0 90.5 26.5T608 517q0 47-33.5 73T484 616H170l77 87V0H77v750h427q82 0 144-29.5t97-81.5q35-52 35-122 0-69-35-121t-97-81.5Q586 285 504 285H195v132m130-66h194L802 0H603L325 351m316 454H511q-13 31-39 48t-65 17q-40 0-66.5-17T301 805H172q22 85 84 127.5T407 975q89 0 151-42.5T641 805z" horiz-adv-x="830" vert-adv-y="1000"/><glyph glyph-name="uni1E5E" unicode="Ṟ" d="M195 417h289q57 0 90.5 26.5T608 517q0 47-33.5 73T484 616H170l77 87V0H77v750h427q82 0 144-29.5t97-81.5q35-52 35-122 0-69-35-121t-97-81.5Q586 285 504 285H195v132m130-66h194L802 0H603L325 351M197-171v104h460v-104H197z" horiz-adv-x="830" vert-adv-y="1000"/><glyph glyph-name="uni024C" unicode="Ɍ" d="M20 407h266V287H20v120m213 10h289q58 0 91 26.5t33 73.5q0 47-33 73t-91 26H209l76 87V0H115v750h427q83 0 145-29.5t96.5-81.5Q818 587 818 517q0-69-34.5-121T687 314.5Q625 285 542 285H233v132m130-66h194L840 0H641L363 351z" horiz-adv-x="869" vert-adv-y="1000"/><glyph glyph-name="uni2C64" unicode="Ɽ" d="M324 351h195L802 0H602L324 351M77 750h427q82 0 144-29.5t97-81.5q35-52 35-122 0-69-35-121t-97-81.5Q586 285 504 285H247V69q0-58 22.5-87T346-47q27 0 50 5t41 12v-129q-28-11-62.5-16t-68.5-5q-116 0-172.5 61T77 54v696m170-333h237q57 0 90.5 26.5T608 517q0 46-33.5 72.5T484 616H247V417z" horiz-adv-x="830" vert-adv-y="1000"/><glyph glyph-name="uni53" unicode="S" d="M37 245h172q6-38 33.5-66.5t74-44Q363 119 424 119q89 0 140.5 25.5T616 216q0 36-29.5 55.5T477 300l-151 17q-146 16-211.5 68.5T49 532q0 74 43.5 126T215 737.5Q294 765 401 765q104 0 185-30.5t129-85Q763 595 767 522H595q-5 33-29.5 57.5t-67.5 38Q455 631 397 631q-81 0-129-24t-48-68q0-34 28.5-52.5T349 459l157-19q104-11 165.5-35.5t88-65.5Q786 298 786 235q0-75-45.5-131.5T613 16q-82-31-192-31-112 0-197 32.5t-134 91Q41 167 37 245z" horiz-adv-x="823" vert-adv-y="1000"/><glyph glyph-name="uni015A" unicode="Ś" d="M37 245h172q6-38 33.5-66.5t74-44Q363 119 424 119q89 0 140.5 25.5T616 216q0 36-29.5 55.5T477 300l-151 17q-146 16-211.5 68.5T49 532q0 74 43.5 126T215 737.5Q294 765 401 765q104 0 185-30.5t129-85Q763 595 767 522H595q-5 33-29.5 57.5t-67.5 38Q455 631 397 631q-81 0-129-24t-48-68q0-34 28.5-52.5T349 459l157-19q104-11 165.5-35.5t88-65.5Q786 298 786 235q0-75-45.5-131.5T613 16q-82-31-192-31-112 0-197 32.5t-134 91Q41 167 37 245m414 724h193L475 808H304l147 161z" horiz-adv-x="823" vert-adv-y="1000"/><glyph glyph-name="uni1E64" unicode="Ṥ" d="M37 245h172q6-38 33.5-66.5t74-44Q363 119 424 119q89 0 140.5 25.5T616 216q0 36-29.5 55.5T477 300l-151 17q-146 16-211.5 68.5T49 532q0 74 43.5 126T215 737.5Q294 765 401 765q104 0 185-30.5t129-85Q763 595 767 522H595q-5 33-29.5 57.5t-67.5 38Q455 631 397 631q-81 0-129-24t-48-68q0-34 28.5-52.5T349 459l157-19q104-11 165.5-35.5t88-65.5Q786 298 786 235q0-75-45.5-131.5T613 16q-82-31-192-31-112 0-197 32.5t-134 91Q41 167 37 245m414 724h193L475 808H304l147 161m-28 29q-45 0-73.5 23.5T321 1085q0 39 28.5 63t73.5 24q46 0 74-24t28-63q0-40-28-63.5T423 998z" horiz-adv-x="823" vert-adv-y="1000"/><glyph glyph-name="uniA78B" unicode="Ꞌ" d="M60 750h174l-26-490H85L60 750z" horiz-adv-x="294" vert-adv-y="1000"/><glyph glyph-name="uni0160" unicode="Š" d="M37 245h172q6-38 33.5-66.5t74-44Q363 119 424 119q89 0 140.5 25.5T616 216q0 36-29.5 55.5T477 300l-151 17q-146 16-211.5 68.5T49 532q0 74 43.5 126T215 737.5Q294 765 401 765q104 0 185-30.5t129-85Q763 595 767 522H595q-5 33-29.5 57.5t-67.5 38Q455 631 397 631q-81 0-129-24t-48-68q0-34 28.5-52.5T349 459l157-19q104-11 165.5-35.5t88-65.5Q786 298 786 235q0-75-45.5-131.5T613 16q-82-31-192-31-112 0-197 32.5t-134 91Q41 167 37 245m465 563H321L171 968h143l135-104h-75l134 104h143L502 808z" horiz-adv-x="823" vert-adv-y="1000"/><glyph glyph-name="uni1E66" unicode="Ṧ" d="M37 245h172q6-38 33.5-66.5t74-44Q363 119 424 119q89 0 140.5 25.5T616 216q0 36-29.5 55.5T477 300l-151 17q-146 16-211.5 68.5T49 532q0 74 43.5 126T215 737.5Q294 765 401 765q104 0 185-30.5t129-85Q763 595 767 522H595q-5 33-29.5 57.5t-67.5 38Q455 631 397 631q-81 0-129-24t-48-68q0-34 28.5-52.5T349 459l157-19q104-11 165.5-35.5t88-65.5Q786 298 786 235q0-75-45.5-131.5T613 16q-82-31-192-31-112 0-197 32.5t-134 91Q41 167 37 245m465 563H321L171 968h143l135-104h-75l134 104h143L502 808m-91 195q-45 0-73.5 23.5T309 1089q0 40 28.5 64t73.5 24q46 0 74-24t28-64q0-39-28-62.5t-74-23.5z" horiz-adv-x="823" vert-adv-y="1000"/><glyph glyph-name="uni015E" unicode="Ş" d="M37 245h172q6-38 33.5-66.5t74-44Q363 119 424 119q89 0 140.5 25.5T616 216q0 36-29.5 55.5T477 300l-151 17q-146 16-211.5 68.5T49 532q0 74 43.5 126T215 737.5Q294 765 401 765q104 0 185-30.5t129-85Q763 595 767 522H595q-5 33-29.5 57.5t-67.5 38Q455 631 397 631q-81 0-129-24t-48-68q0-34 28.5-52.5T349 459l157-19q104-11 165.5-35.5t88-65.5Q786 298 786 235q0-75-45.5-131.5T613 16q-82-31-192-31-112 0-197 32.5t-134 91Q41 167 37 245M374 16h87l-51-87-43 3q24 13 49 20t58 7q65 0 100-25.5t35-69.5q0-47-45.5-77T432-243q-76 0-127.5 27.5T238-139h114q9-14 28-22t52-8q34 0 50.5 10.5T499-132q0 14-14 23t-43 9q-18 0-33.5-2.5T381-110h-87l80 126z" horiz-adv-x="823" vert-adv-y="1000"/><glyph glyph-name="uni015C" unicode="Ŝ" d="M37 245h172q6-38 33.5-66.5t74-44Q363 119 424 119q89 0 140.5 25.5T616 216q0 36-29.5 55.5T477 300l-151 17q-146 16-211.5 68.5T49 532q0 74 43.5 126T215 737.5Q294 765 401 765q104 0 185-30.5t129-85Q763 595 767 522H595q-5 33-29.5 57.5t-67.5 38Q455 631 397 631q-81 0-129-24t-48-68q0-34 28.5-52.5T349 459l157-19q104-11 165.5-35.5t88-65.5Q786 298 786 235q0-75-45.5-131.5T613 16q-82-31-192-31-112 0-197 32.5t-134 91Q41 167 37 245m283 724h181l150-161H508L373 912h75L313 808H171l149 161z" horiz-adv-x="823" vert-adv-y="1000"/><glyph glyph-name="uni0218" unicode="Ș" d="M37 245h172q6-38 33.5-66.5t74-44Q363 119 424 119q89 0 140.5 25.5T616 216q0 36-29.5 55.5T477 300l-151 17q-146 16-211.5 68.5T49 532q0 74 43.5 126T215 737.5Q294 765 401 765q104 0 185-30.5t129-85Q763 595 767 522H595q-5 33-29.5 57.5t-67.5 38Q455 631 397 631q-81 0-129-24t-48-68q0-34 28.5-52.5T349 459l157-19q104-11 165.5-35.5t88-65.5Q786 298 786 235q0-75-45.5-131.5T613 16q-82-31-192-31-112 0-197 32.5t-134 91Q41 167 37 245m286-531l81 138 7-46q-42 0-68 20.5T317-120q0 34 25.5 54T411-46q43 0 68.5-20.5T505-122q0-24-11.5-44T453-225l-47-61h-83z" horiz-adv-x="823" vert-adv-y="1000"/><glyph glyph-name="uni1E60" unicode="Ṡ" d="M37 245h172q6-38 33.5-66.5t74-44Q363 119 424 119q89 0 140.5 25.5T616 216q0 36-29.5 55.5T477 300l-151 17q-146 16-211.5 68.5T49 532q0 74 43.5 126T215 737.5Q294 765 401 765q104 0 185-30.5t129-85Q763 595 767 522H595q-5 33-29.5 57.5t-67.5 38Q455 631 397 631q-81 0-129-24t-48-68q0-34 28.5-52.5T349 459l157-19q104-11 165.5-35.5t88-65.5Q786 298 786 235q0-75-45.5-131.5T613 16q-82-31-192-31-112 0-197 32.5t-134 91Q41 167 37 245m374 570q-45 0-73.5 23.5T309 902q0 39 28.5 63t73.5 24q46 0 74-24t28-63q0-40-28-63.5T411 815z" horiz-adv-x="823" vert-adv-y="1000"/><glyph glyph-name="uni1E62" unicode="Ṣ" d="M37 245h172q6-38 33.5-66.5t74-44Q363 119 424 119q89 0 140.5 25.5T616 216q0 36-29.5 55.5T477 300l-151 17q-146 16-211.5 68.5T49 532q0 74 43.5 126T215 737.5Q294 765 401 765q104 0 185-30.5t129-85Q763 595 767 522H595q-5 33-29.5 57.5t-67.5 38Q455 631 397 631q-81 0-129-24t-48-68q0-34 28.5-52.5T349 459l157-19q104-11 165.5-35.5t88-65.5Q786 298 786 235q0-75-45.5-131.5T613 16q-82-31-192-31-112 0-197 32.5t-134 91Q41 167 37 245m374-471q-45 0-73.5 23.5T309-140q0 40 28.5 63.5T411-53q46 0 74-23.5t28-63.5q0-39-28-62.5T411-226z" horiz-adv-x="823" vert-adv-y="1000"/><glyph glyph-name="uni1E68" unicode="Ṩ" d="M37 245h172q6-38 33.5-66.5t74-44Q363 119 424 119q89 0 140.5 25.5T616 216q0 36-29.5 55.5T477 300l-151 17q-146 16-211.5 68.5T49 532q0 74 43.5 126T215 737.5Q294 765 401 765q104 0 185-30.5t129-85Q763 595 767 522H595q-5 33-29.5 57.5t-67.5 38Q455 631 397 631q-81 0-129-24t-48-68q0-34 28.5-52.5T349 459l157-19q104-11 165.5-35.5t88-65.5Q786 298 786 235q0-75-45.5-131.5T613 16q-82-31-192-31-112 0-197 32.5t-134 91Q41 167 37 245m374-471q-45 0-73.5 23.5T309-140q0 40 28.5 63.5T411-53q46 0 74-23.5t28-63.5q0-39-28-62.5T411-226m0 1041q-45 0-73.5 23.5T309 902q0 39 28.5 63t73.5 24q46 0 74-24t28-63q0-40-28-63.5T411 815z" horiz-adv-x="823" vert-adv-y="1000"/><glyph glyph-name="uni1E9E" unicode="ẞ" d="M546-15q-44 0-82 4.5t-74.5 13Q353 11 313 23v136q66-22 116-32t101-10q51 0 88 10t57.5 31.5Q696 180 696 215q0 29-16.5 48.5t-59 31.5Q578 307 500 317l-52 6v118l266 228 3-93q-63 26-125 37.5T467 625q-116 0-173-48t-57-141V0H68v429q0 102 43.5 177.5t132.5 117Q333 765 468 765q100 0 188-19t150-49V579L565 376l-68 61 58-6q92-9 152-27.5t95-45q35-26.5 49.5-61T866 219q0-77-39.5-129t-112-78.5Q642-15 546-15z" horiz-adv-x="904" vert-adv-y="1000"/><glyph glyph-name="uni54" unicode="T" d="M316 674h169V0H316v674M17 750h766V600H17v150z" horiz-adv-x="801" vert-adv-y="1000"/><glyph glyph-name="uni0166" unicode="Ŧ" d="M124 400h567V280H124v120m199 274h169V0H323v674M25 750h765V600H25v150z" horiz-adv-x="815" vert-adv-y="1000"/><glyph glyph-name="uni0164" unicode="Ť" d="M316 674h169V0H316v674M17 750h766V600H17v150m474 58H310L160 968h143l135-104h-75l135 104h142L491 808z" horiz-adv-x="801" vert-adv-y="1000"/><glyph glyph-name="uni0162" unicode="Ţ" d="M316 674h169V0H316v674M17 750h766V600H17v150M363 16h87l-51-87-43 3q24 13 49 20t58 7q65 0 100-25.5t35-69.5q0-47-45.5-77T421-243q-76 0-127.5 27.5T227-139h114q9-14 28-22t52-8q34 0 50.5 10.5T488-132q0 14-14 23t-43 9q-18 0-33.5-2.5T370-110h-87l80 126z" horiz-adv-x="801" vert-adv-y="1000"/><glyph glyph-name="uni1E70" unicode="Ṱ" d="M316 674h169V0H316v674M17 750h766V600H17v150M313-42h175l143-180H495L363-87h75L307-222H170L313-42z" horiz-adv-x="801" vert-adv-y="1000"/><glyph glyph-name="uni021A" unicode="Ț" d="M316 674h169V0H316v674M17 750h766V600H17v150M312-286l81 138 7-46q-42 0-68 20.5T306-120q0 34 25.5 54T400-46q43 0 68.5-20.5T494-122q0-24-11.5-44T442-225l-47-61h-83z" horiz-adv-x="801" vert-adv-y="1000"/><glyph glyph-name="uni023E" unicode="Ⱦ" d="M711 872h140L319-122H179l532 994M316 674h169V0H316v674M17 750h766V600H17v150z" horiz-adv-x="815" vert-adv-y="1000"/><glyph glyph-name="uni1E6A" unicode="Ṫ" d="M316 674h169V0H316v674M17 750h766V600H17v150m383 65q-45 0-73.5 23.5T298 902q0 39 28.5 63t73.5 24q46 0 74-24t28-63q0-40-28-63.5T400 815z" horiz-adv-x="801" vert-adv-y="1000"/><glyph glyph-name="uni1E6C" unicode="Ṭ" d="M316 674h169V0H316v674M17 750h766V600H17v150m383-976q-45 0-73.5 23.5T298-140q0 40 28.5 63.5T400-53q46 0 74-23.5t28-63.5q0-39-28-62.5T400-226z" horiz-adv-x="801" vert-adv-y="1000"/><glyph glyph-name="uni01AC" unicode="Ƭ" d="M399 674h169V0H399v674m467 76V600H250q-40 0-61.5-17.5T167 525q0-25 6-48.5t15-45.5H58q-14 29-26 67t-12 81q0 80 48 125.5T214 750h652z" horiz-adv-x="884" vert-adv-y="1000"/><glyph glyph-name="uni1E6E" unicode="Ṯ" d="M316 674h169V0H316v674M17 750h766V600H17v150m159-921v104h460v-104H176z" horiz-adv-x="801" vert-adv-y="1000"/><glyph glyph-name="uni01AE" unicode="Ʈ" d="M17 750h766V600H17v150M584-47q27 0 50 5t41 12v-129q-28-11-62.5-16t-68.5-5q-115 0-171.5 61T316 54v620h169V69q0-58 23-87t76-29z" horiz-adv-x="802" vert-adv-y="1000"/><glyph glyph-name="uni55" unicode="U" d="M237 329q0-60 23-103t67.5-66.5Q372 136 435 136q64 0 108 23.5t67 66.5q23 43 23 103v421h170V321q0-101-46-176.5T628 27q-83-42-193-42T242.5 27q-82.5 42-129 117.5T67 321v429h170V329z" horiz-adv-x="870" vert-adv-y="1000"/><glyph glyph-name="unida" unicode="Ú" d="M237 329q0-60 23-103t67.5-66.5Q372 136 435 136q64 0 108 23.5t67 66.5q23 43 23 103v421h170V321q0-101-46-176.5T628 27q-83-42-193-42T242.5 27q-82.5 42-129 117.5T67 321v429h170V329m237 640h193L498 808H327l147 161z" horiz-adv-x="870" vert-adv-y="1000"/><glyph glyph-name="uni0244" unicode="Ʉ" d="M21 482h913V363H21v119m258-153q0-60 23.5-103t68-66.5Q415 136 478 136q64 0 108 23.5t67 66.5q23 43 23 103v421h170V321q0-101-46.5-176.5T670.5 27Q588-15 478-15T285 27q-83 42-129 117.5T110 321v429h169V329z" horiz-adv-x="956" vert-adv-y="1000"/><glyph glyph-name="uni016C" unicode="Ŭ" d="M237 329q0-60 23-103t67.5-66.5Q372 136 435 136q64 0 108 23.5t67 66.5q23 43 23 103v421h170V321q0-101-46-176.5T628 27q-83-42-193-42T242.5 27q-82.5 42-129 117.5T67 321v429h170V329m-38 643h130q13-32 39-48.5t66-16.5q40 0 66 16.5t39 48.5h130q-22-85-84-127.5T434 802q-88 0-150.5 42.5T199 972z" horiz-adv-x="870" vert-adv-y="1000"/><glyph glyph-name="uni01D3" unicode="Ǔ" d="M237 329q0-60 23-103t67.5-66.5Q372 136 435 136q64 0 108 23.5t67 66.5q23 43 23 103v421h170V321q0-101-46-176.5T628 27q-83-42-193-42T242.5 27q-82.5 42-129 117.5T67 321v429h170V329m288 479H345L194 968h144l134-104h-75l135 104h143L525 808z" horiz-adv-x="870" vert-adv-y="1000"/><glyph glyph-name="unidb" unicode="Û" d="M237 329q0-60 23-103t67.5-66.5Q372 136 435 136q64 0 108 23.5t67 66.5q23 43 23 103v421h170V321q0-101-46-176.5T628 27q-83-42-193-42T242.5 27q-82.5 42-129 117.5T67 321v429h170V329m107 640h181l150-161H532L397 912h75L337 808H195l149 161z" horiz-adv-x="870" vert-adv-y="1000"/><glyph glyph-name="uni1E76" unicode="Ṷ" d="M237 329q0-60 23-103t67.5-66.5Q372 136 435 136q64 0 108 23.5t67 66.5q23 43 23 103v421h170V321q0-101-46-176.5T628 27q-83-42-193-42T242.5 27q-82.5 42-129 117.5T67 321v429h170V329M347-42h175l143-180H529L397-87h75L341-222H204L347-42z" horiz-adv-x="870" vert-adv-y="1000"/><glyph glyph-name="uni0214" unicode="Ȕ" d="M237 329q0-60 23-103t67.5-66.5Q372 136 435 136q64 0 108 23.5t67 66.5q23 43 23 103v421h170V321q0-101-46-176.5T628 27q-83-42-193-42T242.5 27q-82.5 42-129 117.5T67 321v429h170V329m270 640l122-161H480L344 969h163m-241 0l122-161H238L102 969h164z" horiz-adv-x="870" vert-adv-y="1000"/><glyph glyph-name="unidc" unicode="Ü" d="M237 329q0-60 23-103t67.5-66.5Q372 136 435 136q64 0 108 23.5t67 66.5q23 43 23 103v421h170V321q0-101-46-176.5T628 27q-83-42-193-42T242.5 27q-82.5 42-129 117.5T67 321v429h170V329m46 486q-43 0-69 23t-26 61q0 37 26 59.5t69 22.5q44 0 70-22.5t26-59.5q0-38-26-61t-70-23m303 0q-43 0-69.5 23T490 899q0 37 26.5 59.5T586 981q43 0 69.5-22.5T682 899q0-38-26.5-61T586 815z" horiz-adv-x="870" vert-adv-y="1000"/><glyph glyph-name="uni01D7" unicode="Ǘ" d="M237 329q0-60 23-103t67.5-66.5Q372 136 435 136q64 0 108 23.5t67 66.5q23 43 23 103v421h170V321q0-101-46-176.5T628 27q-83-42-193-42T242.5 27q-82.5 42-129 117.5T67 321v429h170V329m46 486q-43 0-69 23t-26 61q0 37 26 59.5t69 22.5q44 0 70-22.5t26-59.5q0-38-26-61t-70-23m303 0q-43 0-69.5 23T490 899q0 37 26.5 59.5T586 981q43 0 69.5-22.5T682 899q0-38-26.5-61T586 815m-111 364h193l-169-161H328l147 161z" horiz-adv-x="870" vert-adv-y="1000"/><glyph glyph-name="uni1E72" unicode="Ṳ" d="M237 329q0-60 23-103t67.5-66.5Q372 136 435 136q64 0 108 23.5t67 66.5q23 43 23 103v421h170V321q0-101-46-176.5T628 27q-83-42-193-42T242.5 27q-82.5 42-129 117.5T67 321v429h170V329m49-547q-43 0-69.5 22.5T190-135q0 38 26.5 60T286-53q43 0 69.5-22t26.5-60q0-38-26.5-60.5T286-218m299 0q-43 0-69.5 22.5T489-135q0 38 26.5 60T585-53q43 0 69.5-22t26.5-60q0-38-26.5-60.5T585-218z" horiz-adv-x="870" vert-adv-y="1000"/><glyph glyph-name="uni01D9" unicode="Ǚ" d="M237 329q0-60 23-103t67.5-66.5Q372 136 435 136q64 0 108 23.5t67 66.5q23 43 23 103v421h170V321q0-101-46-176.5T628 27q-83-42-193-42T242.5 27q-82.5 42-129 117.5T67 321v429h170V329m46 486q-43 0-69.5 23T187 899q0 37 26.5 59.5T283 981q43 0 69.5-22.5T379 899q0-38-26.5-61T283 815m303 0q-43 0-69.5 23T490 899q0 37 26.5 59.5T586 981q43 0 69.5-22.5T682 899q0-38-26.5-61T586 815m-60 203H345l-150 161h143l135-104h-75l134 104h143l-149-161z" horiz-adv-x="870" vert-adv-y="1000"/><glyph glyph-name="uni01DB" unicode="Ǜ" d="M237 329q0-60 23-103t67.5-66.5Q372 136 435 136q64 0 108 23.5t67 66.5q23 43 23 103v421h170V321q0-101-46-176.5T628 27q-83-42-193-42T242.5 27q-82.5 42-129 117.5T67 321v429h170V329m46 486q-43 0-69.5 23T187 899q0 37 26.5 59.5T283 981q43 0 69.5-22.5T379 899q0-38-26.5-61T283 815m303 0q-43 0-69.5 23T490 899q0 37 26.5 59.5T586 981q43 0 69.5-22.5T682 899q0-38-26.5-61T586 815m-203 364l146-160H359l-169 160h193z" horiz-adv-x="870" vert-adv-y="1000"/><glyph glyph-name="uni01D5" unicode="Ǖ" d="M237 329q0-60 23-103t67.5-66.5Q372 136 435 136q64 0 108 23.5t67 66.5q23 43 23 103v421h170V321q0-101-46-176.5T628 27q-83-42-193-42T242.5 27q-82.5 42-129 117.5T67 321v429h170V329m47 486q-43 0-69 23t-26 61q0 37 26 59.5t69 22.5q44 0 70-22.5t26-59.5q0-38-26-61t-70-23m303 0q-43 0-69.5 23T491 899q0 37 26.5 59.5T587 981q43 0 69.5-22.5T683 899q0-38-26.5-61T587 815m-381 218v104h460v-104H206z" horiz-adv-x="870" vert-adv-y="1000"/><glyph glyph-name="uni1EE4" unicode="Ụ" d="M237 329q0-60 23-103t67.5-66.5Q372 136 435 136q64 0 108 23.5t67 66.5q23 43 23 103v421h170V321q0-101-46-176.5T628 27q-83-42-193-42T242.5 27q-82.5 42-129 117.5T67 321v429h170V329m198-555q-45 0-73.5 23.5T333-140q0 40 28.5 63.5T435-53q46 0 74-23.5t28-63.5q0-39-28-62.5T435-226z" horiz-adv-x="870" vert-adv-y="1000"/><glyph glyph-name="unid9" unicode="Ù" d="M237 329q0-60 23-103t67.5-66.5Q372 136 435 136q64 0 108 23.5t67 66.5q23 43 23 103v421h170V321q0-101-46-176.5T628 27q-83-42-193-42T242.5 27q-82.5 42-129 117.5T67 321v429h170V329m146 640l146-161H358L190 969h193z" horiz-adv-x="870" vert-adv-y="1000"/><glyph glyph-name="uni1EE6" unicode="Ủ" d="M237 329q0-60 23-103t67.5-66.5Q372 136 435 136q64 0 108 23.5t67 66.5q23 43 23 103v421h170V321q0-101-46-176.5T628 27q-83-42-193-42T242.5 27q-82.5 42-129 117.5T67 321v429h170V329m159 465l-34 57q48 8 68.5 19.5T451 896q0 13-16 19t-47 6q-24 0-44-3t-42-7v90q20 6 53.5 11t69.5 5q82 0 125.5-23.5T594 919q0-46-46-77t-152-48z" horiz-adv-x="870" vert-adv-y="1000"/><glyph glyph-name="uni01AF" unicode="Ư" d="M237 329q0-60 23-103t67.5-66.5Q372 136 435 136q64 0 108 23.5t67 66.5q23 43 23 103v421h170V321q0-101-46-176.5T628 27q-83-42-193-42T242.5 27q-82.5 42-129 117.5T67 321v429h170V329m737 457q0-60-50-95.5T788 655h-16v95h3q31 0 49 15.5t18 41.5q0 16-7 35.5T815 880h129q30-45 30-94z" horiz-adv-x="926" vert-adv-y="1000"/><glyph glyph-name="uni1EE8" unicode="Ứ" d="M237 329q0-60 23-103t67.5-66.5Q372 136 435 136q64 0 108 23.5t67 66.5q23 43 23 103v421h170V321q0-101-46-176.5T628 27q-83-42-193-42T242.5 27q-82.5 42-129 117.5T67 321v429h170V329m737 457q0-60-50-95.5T788 655h-16v95h3q31 0 49 15.5t18 41.5q0 16-7 35.5T815 880h129q30-45 30-94M477 969h193L501 808H330l147 161z" horiz-adv-x="926" vert-adv-y="1000"/><glyph glyph-name="uni1EF0" unicode="Ự" d="M237 329q0-60 23-103t67.5-66.5Q372 136 435 136q64 0 108 23.5t67 66.5q23 43 23 103v421h170V321q0-101-46-176.5T628 27q-83-42-193-42T242.5 27q-82.5 42-129 117.5T67 321v429h170V329m737 457q0-60-50-95.5T788 655h-16v95h3q31 0 49 15.5t18 41.5q0 16-7 35.5T815 880h129q30-45 30-94M437-226q-45 0-73.5 23.5T335-140q0 40 28.5 63.5T437-53q46 0 74-23.5t28-63.5q0-39-28-62.5T437-226z" horiz-adv-x="926" vert-adv-y="1000"/><glyph glyph-name="uni1EEA" unicode="Ừ" d="M237 329q0-60 23-103t67.5-66.5Q372 136 435 136q64 0 108 23.5t67 66.5q23 43 23 103v421h170V321q0-101-46-176.5T628 27q-83-42-193-42T242.5 27q-82.5 42-129 117.5T67 321v429h170V329m736 458q0-61-49.5-96.5T788 655h-16v95h3q31 0 48.5 15.5T841 807q0 16-6.5 35.5T815 881h129q29-46 29-94M385 969l147-161H361L192 969h193z" horiz-adv-x="926" vert-adv-y="1000"/><glyph glyph-name="uni1EEC" unicode="Ử" d="M237 329q0-60 23-103t67.5-66.5Q372 136 435 136q64 0 108 23.5t67 66.5q23 43 23 103v421h170V321q0-101-46-176.5T628 27q-83-42-193-42T242.5 27q-82.5 42-129 117.5T67 321v429h170V329m737 457q0-60-50-95.5T788 655h-16v95h3q31 0 49 15.5t18 41.5q0 16-7 35.5T815 880h129q30-45 30-94m-576 8l-34 57q48 8 68.5 19.5T453 896q0 13-16 19t-47 6q-24 0-44-3t-42-7v90q20 6 53.5 11t69.5 5q82 0 125.5-23.5T596 919q0-46-46-77t-152-48z" horiz-adv-x="926" vert-adv-y="1000"/><glyph glyph-name="uni1EEE" unicode="Ữ" d="M237 329q0-60 23-103t67.5-66.5Q372 136 435 136q64 0 108 23.5t67 66.5q23 43 23 103v421h170V321q0-101-46-176.5T628 27q-83-42-193-42T242.5 27q-82.5 42-129 117.5T67 321v429h170V329m737 457q0-60-50-95.5T788 655h-16v95h3q31 0 49 15.5t18 41.5q0 16-7 35.5T815 880h129q30-45 30-94m-792 28q9 73 47.5 115.5T340 972q28 0 53.5-8t49.5-17.5q24-9.5 45-17.5t39-8q22 0 36 12t17 35h112q-9-72-48-115t-111-43q-27 0-53 8t-49.5 18q-23.5 10-45 18t-38.5 8q-22 0-36-12.5T294 814H182z" horiz-adv-x="926" vert-adv-y="1000"/><glyph glyph-name="uni0170" unicode="Ű" d="M237 329q0-60 23-103t67.5-66.5Q372 136 435 136q64 0 108 23.5t67 66.5q23 43 23 103v421h170V321q0-101-46-176.5T628 27q-83-42-193-42T242.5 27q-82.5 42-129 117.5T67 321v429h170V329m100 640h164L365 808H215l122 161m241 0h164L606 808H457l121 161z" horiz-adv-x="870" vert-adv-y="1000"/><glyph glyph-name="uni0216" unicode="Ȗ" d="M237 329q0-60 23-103t67.5-66.5Q372 136 435 136q64 0 108 23.5t67 66.5q23 43 23 103v421h170V321q0-101-46-176.5T628 27q-83-42-193-42T242.5 27q-82.5 42-129 117.5T67 321v429h170V329m432 476H540q-14 31-39.5 48T435 870q-40 0-66-17t-40-48H200q22 85 84.5 127.5T435 975q89 0 151-42.5T669 805z" horiz-adv-x="870" vert-adv-y="1000"/><glyph glyph-name="uni016A" unicode="Ū" d="M237 329q0-60 23-103t67.5-66.5Q372 136 435 136q64 0 108 23.5t67 66.5q23 43 23 103v421h170V321q0-101-46-176.5T628 27q-83-42-193-42T242.5 27q-82.5 42-129 117.5T67 321v429h170V329m-32 504v104h460V833H205z" horiz-adv-x="870" vert-adv-y="1000"/><glyph glyph-name="uni1E7A" unicode="Ṻ" d="M237 329q0-60 23-103t67.5-66.5Q372 136 435 136q64 0 108 23.5t67 66.5q23 43 23 103v421h170V321q0-101-46-176.5T628 27q-83-42-193-42T242.5 27q-82.5 42-129 117.5T67 321v429h170V329m-32 504v104h460V833H205m78 170q-43 0-69 23t-26 61q0 37 26 59.5t69 22.5q44 0 70-22.5t26-59.5q0-38-26-61t-70-23m303 0q-43 0-69.5 23t-26.5 61q0 37 26.5 59.5T586 1169q43 0 69.5-22.5T682 1087q0-38-26.5-61t-69.5-23z" horiz-adv-x="870" vert-adv-y="1000"/><glyph glyph-name="uni0172" unicode="Ų" d="M633 329v421h170V322q0-122-65-205T563 2q-58-17-89.5-35.5T442-72q0-30 71-30 17 0 32.5 1.5T574-96v-95q-13-5-42-9t-59-4q-68 0-110 25.5T321-110q0 39 33.5 67.5T459 7v-20q-116-6-204.5 34.5t-138 118Q67 217 67 322v428h170V329q0-59 23-102t67.5-66.5Q372 137 435 137q64 0 108 23t67 66.5Q633 270 633 329z" horiz-adv-x="870" vert-adv-y="1000"/><glyph glyph-name="uni01B1" unicode="Ʊ" d="M482-15q-138 0-231 47.5t-140 129Q64 243 64 344q0 124 76.5 216.5T354 696l-46-76H43v130h355V631q-80-40-123.5-103T231 382q0-75 30-130t86-85q56-30 135-30t135 30q56 30 86 85t30 130q0 83-43.5 146T566 631v119h355V620H656l-46 76q136-43 213-135.5T900 344q0-101-47-182.5t-139.5-129Q621-15 482-15z" horiz-adv-x="964" vert-adv-y="1000"/><glyph glyph-name="uni016E" unicode="Ů" d="M237 329q0-60 23-103t67.5-66.5Q372 136 435 136q64 0 108 23.5t67 66.5q23 43 23 103v421h170V321q0-101-46-176.5T628 27q-83-42-193-42T242.5 27q-82.5 42-129 117.5T67 321v429h170V329m198 464q-85 0-133 33.5T254 919q0 59 48 92.5t133 33.5q86 0 133-33.5t47-92.5q0-59-47-92.5T435 793m0 77q43 0 63.5 12.5T519 919q0 24-20.5 36.5T435 968q-44 0-64.5-12.5T350 919q0-24 20.5-36.5T435 870z" horiz-adv-x="870" vert-adv-y="1000"/><glyph glyph-name="uni0168" unicode="Ũ" d="M237 329q0-60 23-103t67.5-66.5Q372 136 435 136q64 0 108 23.5t67 66.5q23 43 23 103v421h170V321q0-101-46-176.5T628 27q-83-42-193-42T242.5 27q-82.5 42-129 117.5T67 321v429h170V329m-57 485q9 73 47.5 115.5T338 972q28 0 53.5-8t49.5-17.5q24-9.5 45-17.5t39-8q22 0 36 12t17 35h112q-9-72-48-115t-111-43q-27 0-53 8t-49.5 18q-23.5 10-45 18t-38.5 8q-22 0-36-12.5T292 814H180z" horiz-adv-x="870" vert-adv-y="1000"/><glyph glyph-name="uni1E78" unicode="Ṹ" d="M237 329q0-60 23-103t67.5-66.5Q372 136 435 136q64 0 108 23.5t67 66.5q23 43 23 103v421h170V321q0-101-46-176.5T628 27q-83-42-193-42T242.5 27q-82.5 42-129 117.5T67 321v429h170V329m-57 485q9 73 47.5 115.5T338 972q28 0 53.5-8t49.5-17.5q24-9.5 45-17.5t39-8q22 0 36 12t17 35h112q-9-72-48-115t-111-43q-27 0-53 8t-49.5 18q-23.5 10-45 18t-38.5 8q-22 0-36-12.5T292 814H180m294 348h193l-169-161H327l147 161z" horiz-adv-x="870" vert-adv-y="1000"/><glyph glyph-name="uni1E74" unicode="Ṵ" d="M237 329q0-60 23-103t67.5-66.5Q372 136 435 136q64 0 108 23.5t67 66.5q23 43 23 103v421h170V321q0-101-46-176.5T628 27q-83-42-193-42T242.5 27q-82.5 42-129 117.5T67 321v429h170V329m-41-541q5 79 39 126t101 47q26 0 51-8.5t47.5-19Q457-77 477-85.5t37-8.5q21 0 35.5 14T568-41h105q-4-77-38-124.5T534-213q-27 0-52 8.5t-47.5 19q-22.5 10.5-42 19T356-158q-21 0-35-14t-19-40H196z" horiz-adv-x="870" vert-adv-y="1000"/><glyph glyph-name="uni56" unicode="V" d="M495 75h-75l306 675h180L550 0H359L4 750h182L495 75z" horiz-adv-x="910" vert-adv-y="1000"/><glyph glyph-name="uni0194" unicode="Ɣ" d="M295 99h303l-21-62-167 210h79L320 32l-25 67M119 0l274 348-13-94L-2 750h186l306-397-72 14 301 383h181L517 257l-16 96L782 0H119z" horiz-adv-x="899" vert-adv-y="1000"/><glyph glyph-name="uni1E7E" unicode="Ṿ" d="M495 75h-75l306 675h180L550 0H359L4 750h182L495 75m-40-301q-45 0-73.5 23.5T353-140q0 40 28.5 63.5T455-53q46 0 74-23.5t28-63.5q0-39-28-62.5T455-226z" horiz-adv-x="910" vert-adv-y="1000"/><glyph glyph-name="uni01B2" unicode="Ʋ" d="M69 317v433h169V323q0-57 17.5-99.5t54-65.5q36.5-23 91.5-23 54 0 100.5 25t82.5 71q36 46 56 109t20 139q0 71-34 110.5T530 629q-30 0-56-6.5T425 605v133q24 11 63 19t84 8q125 0 192-70.5T831 480q0-101-31-191t-89.5-158.5Q652 62 570 23.5T387-15q-103 0-174 41.5T105.5 143Q69 218 69 317z" horiz-adv-x="874" vert-adv-y="1000"/><glyph glyph-name="uni1E7C" unicode="Ṽ" d="M495 75h-75l306 675h180L550 0H359L4 750h182L495 75M200 814q9 73 47.5 115.5T358 972q28 0 53.5-8t49.5-17.5q24-9.5 45-17.5t39-8q22 0 36 12t17 35h112q-9-72-48-115t-111-43q-27 0-53 8t-49.5 18q-23.5 10-45 18t-38.5 8q-22 0-36-12.5T312 814H200z" horiz-adv-x="910" vert-adv-y="1000"/><glyph glyph-name="uni0245" unicode="Ʌ" d="M5 0l349 750h192L896 0H721L414 675h75L182 0H5z" horiz-adv-x="900" vert-adv-y="1000"/><glyph glyph-name="uni57" unicode="W" d="M997 69h-58l209 681h178L1085 0H868L632 664h74L470 0H253L12 750h180L399 69l-56 1 236 680h181L997 69z" horiz-adv-x="1338" vert-adv-y="1000"/><glyph glyph-name="uni1E82" unicode="Ẃ" d="M997 69h-58l209 681h178L1085 0H868L632 664h74L470 0H253L12 750h180L399 69l-56 1 236 680h181L997 69M708 969h193L732 808H561l147 161z" horiz-adv-x="1338" vert-adv-y="1000"/><glyph glyph-name="uni0174" unicode="Ŵ" d="M997 69h-58l209 681h178L1085 0H868L632 664h74L470 0H253L12 750h180L399 69l-56 1 236 680h181L997 69M578 969h181l150-161H766L631 912h75L571 808H429l149 161z" horiz-adv-x="1338" vert-adv-y="1000"/><glyph glyph-name="uni1E84" unicode="Ẅ" d="M997 69h-58l209 681h178L1085 0H868L632 664h74L470 0H253L12 750h180L399 69l-56 1 236 680h181L997 69M517 815q-43 0-69 23t-26 61q0 37 26 59.5t69 22.5q44 0 70-22.5t26-59.5q0-38-26-61t-70-23m303 0q-43 0-69.5 23T724 899q0 37 26.5 59.5T820 981q43 0 69.5-22.5T916 899q0-38-26.5-61T820 815z" horiz-adv-x="1338" vert-adv-y="1000"/><glyph glyph-name="uni1E86" unicode="Ẇ" d="M997 69h-58l209 681h178L1085 0H868L632 664h74L470 0H253L12 750h180L399 69l-56 1 236 680h181L997 69M669 815q-45 0-73.5 23.5T567 902q0 39 28.5 63t73.5 24q46 0 74-24t28-63q0-40-28-63.5T669 815z" horiz-adv-x="1338" vert-adv-y="1000"/><glyph glyph-name="uni1E88" unicode="Ẉ" d="M997 69h-58l209 681h178L1085 0H868L632 664h74L470 0H253L12 750h180L399 69l-56 1 236 680h181L997 69M669-226q-45 0-73.5 23.5T567-140q0 40 28.5 63.5T669-53q46 0 74-23.5t28-63.5q0-39-28-62.5T669-226z" horiz-adv-x="1338" vert-adv-y="1000"/><glyph glyph-name="uni1E80" unicode="Ẁ" d="M997 69h-58l209 681h178L1085 0H868L632 664h74L470 0H253L12 750h180L399 69l-56 1 236 680h181L997 69M617 969l146-161H593L424 969h193z" horiz-adv-x="1338" vert-adv-y="1000"/><glyph glyph-name="uni2C72" unicode="Ⱳ" d="M986 69h-57l174 553q22 76 61 109.5t107 33.5q25 0 48.5-4t45.5-11V622q-10 4-21 7t-25 3q-21 0-33.5-11.5T1263 581L1075 0H857L631 664h73L469 0H252L13 750h179L398 69l-56 1 236 680h181L986 69z" horiz-adv-x="1399" vert-adv-y="1000"/><glyph glyph-name="uni58" unicode="X" d="M481 340v101L840 0H631L375 327h79L197 0H-8l360 440v-98L15 750h211l234-296h-81l231 296h207L481 340z" horiz-adv-x="832" vert-adv-y="1000"/><glyph glyph-name="uni1E8C" unicode="Ẍ" d="M481 340v101L840 0H631L375 327h79L197 0H-8l360 440v-98L15 750h211l234-296h-81l231 296h207L481 340M264 815q-43 0-69 23t-26 61q0 37 26 59.5t69 22.5q44 0 70-22.5t26-59.5q0-38-26-61t-70-23m303 0q-43 0-69.5 23T471 899q0 37 26.5 59.5T567 981q43 0 69.5-22.5T663 899q0-38-26.5-61T567 815z" horiz-adv-x="832" vert-adv-y="1000"/><glyph glyph-name="uni1E8A" unicode="Ẋ" d="M481 340v101L840 0H631L375 327h79L197 0H-8l360 440v-98L15 750h211l234-296h-81l231 296h207L481 340m-65 475q-45 0-73.5 23.5T314 902q0 39 28.5 63t73.5 24q46 0 74-24t28-63q0-40-28-63.5T416 815z" horiz-adv-x="832" vert-adv-y="1000"/><glyph glyph-name="uni59" unicode="Y" d="M364 0v362h170V0H364M11 750h189l289-365h-82l289 365h189L503 267l-109-1L11 750z" horiz-adv-x="897" vert-adv-y="1000"/><glyph glyph-name="unidd" unicode="Ý" d="M364 0v362h170V0H364M11 750h189l289-365h-82l289 365h189L503 267l-109-1L11 750m477 219h193L512 808H341l147 161z" horiz-adv-x="897" vert-adv-y="1000"/><glyph glyph-name="uni0176" unicode="Ŷ" d="M364 0v362h170V0H364M11 750h189l289-365h-82l289 365h189L503 267l-109-1L11 750m346 219h181l150-161H545L410 912h75L350 808H208l149 161z" horiz-adv-x="897" vert-adv-y="1000"/><glyph glyph-name="uni0178" unicode="Ÿ" d="M364 0v362h170V0H364M11 750h189l289-365h-82l289 365h189L503 267l-109-1L11 750m286 65q-43 0-69 23t-26 61q0 37 26 59.5t69 22.5q44 0 70-22.5t26-59.5q0-38-26-61t-70-23m303 0q-43 0-69.5 23T504 899q0 37 26.5 59.5T600 981q43 0 69.5-22.5T696 899q0-38-26.5-61T600 815z" horiz-adv-x="897" vert-adv-y="1000"/><glyph glyph-name="uni1E8E" unicode="Ẏ" d="M364 0v362h170V0H364M11 750h189l289-365h-82l289 365h189L503 267l-109-1L11 750m437 65q-45 0-73.5 23.5T346 902q0 39 28.5 63t73.5 24q46 0 74-24t28-63q0-40-28-63.5T448 815z" horiz-adv-x="897" vert-adv-y="1000"/><glyph glyph-name="uni1EF4" unicode="Ỵ" d="M364 0v362h170V0H364M11 750h189l289-365h-82l289 365h189L503 267l-109-1L11 750m437-976q-45 0-73.5 23.5T346-140q0 40 28.5 63.5T448-53q46 0 74-23.5t28-63.5q0-39-28-62.5T448-226z" horiz-adv-x="897" vert-adv-y="1000"/><glyph glyph-name="uni1EF2" unicode="Ỳ" d="M364 0v362h170V0H364M11 750h189l289-365h-82l289 365h189L503 267l-109-1L11 750m385 219l147-161H372L203 969h193z" horiz-adv-x="897" vert-adv-y="1000"/><glyph glyph-name="uni01B3" unicode="Ƴ" d="M361 0v362h169V0H361m139 266H391L8 750h188l289-365h-75l198 271q30 41 55.5 64.5t53.5 34q28 10.5 65 10.5 25 0 48.5-4t45.5-11V622q-18 5-32 7.5t-30 2.5q-29 0-45-11.5T735 585L500 266z" horiz-adv-x="902" vert-adv-y="1000"/><glyph glyph-name="uni1EF6" unicode="Ỷ" d="M364 0v362h170V0H364M11 750h189l289-365h-82l289 365h189L503 267l-109-1L11 750m398 44l-34 57q48 8 68.5 19.5T464 896q0 13-16 19t-47 6q-24 0-44-3t-42-7v90q20 6 53.5 11t69.5 5q82 0 125.5-23.5T607 919q0-46-46-77t-152-48z" horiz-adv-x="897" vert-adv-y="1000"/><glyph glyph-name="uni0232" unicode="Ȳ" d="M364 0v362h170V0H364M11 750h189l289-365h-82l289 365h189L503 267l-109-1L11 750m207 83v104h460V833H218z" horiz-adv-x="897" vert-adv-y="1000"/><glyph glyph-name="uni024E" unicode="Ɏ" d="M21 661h909V542H21v119M391 0v362h170V0H391M38 750h189l289-365h-82l289 365h189L530 267l-109-1L38 750z" horiz-adv-x="951" vert-adv-y="1000"/><glyph glyph-name="uni1EF8" unicode="Ỹ" d="M364 0v362h170V0H364M11 750h189l289-365h-82l289 365h189L503 267l-109-1L11 750m182 64q9 73 47.5 115.5T351 972q28 0 53.5-8t49.5-17.5q24-9.5 45-17.5t39-8q22 0 36 12t17 35h112q-9-72-48-115t-111-43q-27 0-53 8t-49.5 18q-23.5 10-45 18t-38.5 8q-22 0-36-12.5T305 814H193z" horiz-adv-x="897" vert-adv-y="1000"/><glyph glyph-name="uni5a" unicode="Z" d="M41 0v126l522 532 118-44H45v136h702V625L224 91l-101 45h627V0H41z" horiz-adv-x="791" vert-adv-y="1000"/><glyph glyph-name="uni0179" unicode="Ź" d="M41 0v126l522 532 118-44H45v136h702V625L224 91l-101 45h627V0H41m395 969h193L460 808H289l147 161z" horiz-adv-x="791" vert-adv-y="1000"/><glyph glyph-name="uni017D" unicode="Ž" d="M41 0v126l522 532 118-44H45v136h702V625L224 91l-101 45h627V0H41m445 808H306L156 968h143l135-104h-75l134 104h143L486 808z" horiz-adv-x="791" vert-adv-y="1000"/><glyph glyph-name="uni1E90" unicode="Ẑ" d="M41 0v126l522 532 118-44H45v136h702V625L224 91l-101 45h627V0H41m264 969h181l150-161H493L358 912h75L298 808H156l149 161z" horiz-adv-x="791" vert-adv-y="1000"/><glyph glyph-name="uni017B" unicode="Ż" d="M41 0v126l522 532 118-44H45v136h702V625L224 91l-101 45h627V0H41m355 815q-45 0-73.5 23.5T294 902q0 39 28.5 63t73.5 24q46 0 74-24t28-63q0-40-28-63.5T396 815z" horiz-adv-x="791" vert-adv-y="1000"/><glyph glyph-name="uni1E92" unicode="Ẓ" d="M41 0v126l522 532 118-44H45v136h702V625L224 91l-101 45h627V0H41m354-226q-45 0-73.5 23.5T293-140q0 40 28.5 63.5T395-53q46 0 74-23.5t28-63.5q0-39-28-62.5T395-226z" horiz-adv-x="791" vert-adv-y="1000"/><glyph glyph-name="uni1E94" unicode="Ẕ" d="M41 0v126l522 532 118-44H45v136h702V625L224 91l-101 45h627V0H41m130-171v104h460v-104H171z" horiz-adv-x="791" vert-adv-y="1000"/><glyph glyph-name="uni01B5" unicode="Ƶ" d="M98 440h605V320H98v120M44 0v126l523 532 117-44H48v136h702V625L227 91l-101 45h627V0H44z" horiz-adv-x="798" vert-adv-y="1000"/><glyph glyph-name="uni026A" unicode="ɪ" d="M217 0v515h167V0H217M36 0v103h529V0H36m0 466v103h529V466H36z" horiz-adv-x="601" vert-adv-y="1000"/><glyph glyph-name="uni61" unicode="a" d="M584 0l-24 208 27 76-27 75 24 210h173l-33-285L757 0H584m44 284q-16-90-58.5-157.5T462.5 22Q398-15 318-15q-83 0-147 37.5t-99.5 105Q36 195 36 284q0 90 35.5 157.5t99.5 105Q235 584 318 584q80 0 144.5-37T570 442.5Q613 375 628 284m-423 0q0-50 20.5-88t56.5-59.5q36-21.5 83-21.5t88.5 21.5Q495 158 527 196t50 88q-18 50-50 88.5t-73.5 60Q412 454 365 454t-83-21.5q-36-21.5-56.5-60T205 284z" horiz-adv-x="806" vert-adv-y="1000"/><glyph glyph-name="unie1" unicode="á" d="M584 0l-24 208 27 76-27 75 24 210h173l-33-285L757 0H584m44 284q-16-90-58.5-157.5T462.5 22Q398-15 318-15q-83 0-147 37.5t-99.5 105Q36 195 36 284q0 90 35.5 157.5t99.5 105Q235 584 318 584q80 0 144.5-37T570 442.5Q613 375 628 284m-423 0q0-50 20.5-88t56.5-59.5q36-21.5 83-21.5t88.5 21.5Q495 158 527 196t50 88q-18 50-50 88.5t-73.5 60Q412 454 365 454t-83-21.5q-36-21.5-56.5-60T205 284m224 523h164L462 627H305l124 180z" horiz-adv-x="806" vert-adv-y="1000"/><glyph glyph-name="uni0103" unicode="ă" d="M584 0l-24 208 27 76-27 75 24 210h173l-33-285L757 0H584m44 284q-16-90-58.5-157.5T462.5 22Q398-15 318-15q-83 0-147 37.5t-99.5 105Q36 195 36 284q0 90 35.5 157.5t99.5 105Q235 584 318 584q80 0 144.5-37T570 442.5Q613 375 628 284m-423 0q0-50 20.5-88t56.5-59.5q36-21.5 83-21.5t88.5 21.5Q495 158 527 196t50 88q-18 50-50 88.5t-73.5 60Q412 454 365 454t-83-21.5q-36-21.5-56.5-60T205 284m-33 523h127q7-39 33.5-60.5T399 725q40 0 66 21.5t35 60.5h125q-12-87-70.5-136.5T399 621q-96 0-154.5 49.5T172 807z" horiz-adv-x="806" vert-adv-y="1000"/><glyph glyph-name="uni1EAF" unicode="ắ" d="M584 0l-24 208 27 76-27 75 24 210h173l-33-285L757 0H584m44 284q-16-90-58.5-157.5T462.5 22Q398-15 318-15q-83 0-147 37.5t-99.5 105Q36 195 36 284q0 90 35.5 157.5t99.5 105Q235 584 318 584q80 0 144.5-37T570 442.5Q613 375 628 284m-423 0q0-50 20.5-88t56.5-59.5q36-21.5 83-21.5t88.5 21.5Q495 158 527 196t50 88q-18 50-50 88.5t-73.5 60Q412 454 365 454t-83-21.5q-36-21.5-56.5-60T205 284m198 713h155L457 823H332l71 174M172 807h127q7-39 33.5-60.5T399 725q40 0 66 21.5t35 60.5h125q-12-87-70.5-136.5T399 621q-96 0-154.5 49.5T172 807z" horiz-adv-x="806" vert-adv-y="1000"/><glyph glyph-name="uni1EB7" unicode="ặ" d="M584 0l-24 208 27 76-27 75 24 210h173l-33-285L757 0H584m44 284q-16-90-58.5-157.5T462.5 22Q398-15 318-15q-83 0-147 37.5t-99.5 105Q36 195 36 284q0 90 35.5 157.5t99.5 105Q235 584 318 584q80 0 144.5-37T570 442.5Q613 375 628 284m-423 0q0-50 20.5-88t56.5-59.5q36-21.5 83-21.5t88.5 21.5Q495 158 527 196t50 88q-18 50-50 88.5t-73.5 60Q412 454 365 454t-83-21.5q-36-21.5-56.5-60T205 284m194-510q-45 0-73.5 23.5T297-140q0 40 28.5 63.5T399-53q46 0 74-23.5t28-63.5q0-39-28-62.5T399-226M172 807h127q7-39 33.5-60.5T399 725q40 0 66 21.5t35 60.5h125q-12-87-70.5-136.5T399 621q-96 0-154.5 49.5T172 807z" horiz-adv-x="806" vert-adv-y="1000"/><glyph glyph-name="uni1EB1" unicode="ằ" d="M584 0l-24 208 27 76-27 75 24 210h173l-33-285L757 0H584m44 284q-16-90-58.5-157.5T462.5 22Q398-15 318-15q-83 0-147 37.5t-99.5 105Q36 195 36 284q0 90 35.5 157.5t99.5 105Q235 584 318 584q80 0 144.5-37T570 442.5Q613 375 628 284m-423 0q0-50 20.5-88t56.5-59.5q36-21.5 83-21.5t88.5 21.5Q495 158 527 196t50 88q-18 50-50 88.5t-73.5 60Q412 454 365 454t-83-21.5q-36-21.5-56.5-60T205 284m177 712l71-174H328L227 996h155M172 807h127q7-39 33.5-60.5T399 725q40 0 66 21.5t35 60.5h125q-12-87-70.5-136.5T399 621q-96 0-154.5 49.5T172 807z" horiz-adv-x="806" vert-adv-y="1000"/><glyph glyph-name="uni1EB3" unicode="ẳ" d="M584 0l-24 208 27 76-27 75 24 210h173l-33-285L757 0H584m44 284q-16-90-58.5-157.5T462.5 22Q398-15 318-15q-83 0-147 37.5t-99.5 105Q36 195 36 284q0 90 35.5 157.5t99.5 105Q235 584 318 584q80 0 144.5-37T570 442.5Q613 375 628 284m-423 0q0-50 20.5-88t56.5-59.5q36-21.5 83-21.5t88.5 21.5Q495 158 527 196t50 88q-18 50-50 88.5t-73.5 60Q412 454 365 454t-83-21.5q-36-21.5-56.5-60T205 284m185 525l-32 47q56 20 56 50 0 32-55 32-14 0-30.5-2t-31.5-6v89q18 5 45 9t58 4q71 0 110-25t39-71q0-44-40.5-76.5T390 809m-218-2h127q7-39 33.5-60.5T399 725q40 0 66 21.5t35 60.5h125q-12-87-70.5-136.5T399 621q-96 0-154.5 49.5T172 807z" horiz-adv-x="806" vert-adv-y="1000"/><glyph glyph-name="uni1EB5" unicode="ẵ" d="M584 0l-24 208 27 76-27 75 24 210h173l-33-285L757 0H584m44 284q-16-90-58.5-157.5T462.5 22Q398-15 318-15q-83 0-147 37.5t-99.5 105Q36 195 36 284q0 90 35.5 157.5t99.5 105Q235 584 318 584q80 0 144.5-37T570 442.5Q613 375 628 284m-423 0q0-50 20.5-88t56.5-59.5q36-21.5 83-21.5t88.5 21.5Q495 158 527 196t50 88q-18 50-50 88.5t-73.5 60Q412 454 365 454t-83-21.5q-36-21.5-56.5-60T205 284m-18 558q5 77 38 122t98 45q24 0 44-8t37-18.5q17-10.5 32-19t29-8.5q19 0 30.5 14.5T511 1008h100q-4-76-37.5-121.5T474 841q-24 0-43.5 8.5t-36.5 19Q377 879 362 887t-30 8q-19 0-30-14t-16-39h-99m-15-35h127q7-39 33.5-60.5T399 725q40 0 66 21.5t35 60.5h125q-12-87-70.5-136.5T399 621q-96 0-154.5 49.5T172 807z" horiz-adv-x="806" vert-adv-y="1000"/><glyph glyph-name="uni01CE" unicode="ǎ" d="M584 0l-24 208 27 76-27 75 24 210h173l-33-285L757 0H584m44 284q-16-90-58.5-157.5T462.5 22Q398-15 318-15q-83 0-147 37.5t-99.5 105Q36 195 36 284q0 90 35.5 157.5t99.5 105Q235 584 318 584q80 0 144.5-37T570 442.5Q613 375 628 284m-423 0q0-50 20.5-88t56.5-59.5q36-21.5 83-21.5t88.5 21.5Q495 158 527 196t50 88q-18 50-50 88.5t-73.5 60Q412 454 365 454t-83-21.5q-36-21.5-56.5-60T205 284m281 343H312L169 807h136l131-135h-75l131 135h137L486 627z" horiz-adv-x="806" vert-adv-y="1000"/><glyph glyph-name="unie2" unicode="â" d="M584 0l-24 208 27 76-27 75 24 210h173l-33-285L757 0H584m44 284q-16-90-58.5-157.5T462.5 22Q398-15 318-15q-83 0-147 37.5t-99.5 105Q36 195 36 284q0 90 35.5 157.5t99.5 105Q235 584 318 584q80 0 144.5-37T570 442.5Q613 375 628 284m-423 0q0-50 20.5-88t56.5-59.5q36-21.5 83-21.5t88.5 21.5Q495 158 527 196t50 88q-18 50-50 88.5t-73.5 60Q412 454 365 454t-83-21.5q-36-21.5-56.5-60T205 284m106 523h175l143-180H493L361 762h75L305 627H168l143 180z" horiz-adv-x="806" vert-adv-y="1000"/><glyph glyph-name="uni1EA5" unicode="ấ" d="M584 0l-24 208 27 76-27 75 24 210h173l-33-285L757 0H584m44 284q-16-90-58.5-157.5T462.5 22Q398-15 318-15q-83 0-147 37.5t-99.5 105Q36 195 36 284q0 90 35.5 157.5t99.5 105Q235 584 318 584q80 0 144.5-37T570 442.5Q613 375 628 284m-423 0q0-50 20.5-88t56.5-59.5q36-21.5 83-21.5t88.5 21.5Q495 158 527 196t50 88q-18 50-50 88.5t-73.5 60Q412 454 365 454t-83-21.5q-36-21.5-56.5-60T205 284m429 652h155L688 762H563l71 174M311 807h175l143-180H493L361 762h75L305 627H168l143 180z" horiz-adv-x="806" vert-adv-y="1000"/><glyph glyph-name="uni1EAD" unicode="ậ" d="M584 0l-24 208 27 76-27 75 24 210h173l-33-285L757 0H584m44 284q-16-90-58.5-157.5T462.5 22Q398-15 318-15q-83 0-147 37.5t-99.5 105Q36 195 36 284q0 90 35.5 157.5t99.5 105Q235 584 318 584q80 0 144.5-37T570 442.5Q613 375 628 284m-423 0q0-50 20.5-88t56.5-59.5q36-21.5 83-21.5t88.5 21.5Q495 158 527 196t50 88q-18 50-50 88.5t-73.5 60Q412 454 365 454t-83-21.5q-36-21.5-56.5-60T205 284m194-510q-45 0-73.5 23.5T297-140q0 40 28.5 63.5T399-53q46 0 74-23.5t28-63.5q0-39-28-62.5T399-226M311 807h175l143-180H493L361 762h75L305 627H168l143 180z" horiz-adv-x="806" vert-adv-y="1000"/><glyph glyph-name="uni1EA7" unicode="ầ" d="M584 0l-24 208 27 76-27 75 24 210h173l-33-285L757 0H584m44 284q-16-90-58.5-157.5T462.5 22Q398-15 318-15q-83 0-147 37.5t-99.5 105Q36 195 36 284q0 90 35.5 157.5t99.5 105Q235 584 318 584q80 0 144.5-37T570 442.5Q613 375 628 284m-423 0q0-50 20.5-88t56.5-59.5q36-21.5 83-21.5t88.5 21.5Q495 158 527 196t50 88q-18 50-50 88.5t-73.5 60Q412 454 365 454t-83-21.5q-36-21.5-56.5-60T205 284m433 652l71-174H584L483 936h155M311 807h175l143-180H493L361 762h75L305 627H168l143 180z" horiz-adv-x="806" vert-adv-y="1000"/><glyph glyph-name="uni1EA9" unicode="ẩ" d="M584 0l-24 208 27 76-27 75 24 210h173l-33-285L757 0H584m44 284q-16-90-58.5-157.5T462.5 22Q398-15 318-15q-83 0-147 37.5t-99.5 105Q36 195 36 284q0 90 35.5 157.5t99.5 105Q235 584 318 584q80 0 144.5-37T570 442.5Q613 375 628 284m-423 0q0-50 20.5-88t56.5-59.5q36-21.5 83-21.5t88.5 21.5Q495 158 527 196t50 88q-18 50-50 88.5t-73.5 60Q412 454 365 454t-83-21.5q-36-21.5-56.5-60T205 284m390 470l-32 48q56 20 56 49 0 32-55 32-14 0-30.5-2t-31.5-6v89q18 6 45 10t59 4q70 0 109.5-25.5T755 881q0-43-41-75.5T595 754m-284 53h175l143-180H493L361 762h75L305 627H168l143 180z" horiz-adv-x="806" vert-adv-y="1000"/><glyph glyph-name="uni1EAB" unicode="ẫ" d="M584 0l-24 208 27 76-27 75 24 210h173l-33-285L757 0H584m44 284q-16-90-58.5-157.5T462.5 22Q398-15 318-15q-83 0-147 37.5t-99.5 105Q36 195 36 284q0 90 35.5 157.5t99.5 105Q235 584 318 584q80 0 144.5-37T570 442.5Q613 375 628 284m-423 0q0-50 20.5-88t56.5-59.5q36-21.5 83-21.5t88.5 21.5Q495 158 527 196t50 88q-18 50-50 88.5t-73.5 60Q412 454 365 454t-83-21.5q-36-21.5-56.5-60T205 284m-18 559q5 76 38 121.5t98 45.5q24 0 44-8t37-19q17-11 32-19t29-8q19 0 30.5 14t15.5 38h99q-4-76-37-121t-99-45q-24 0-43.5 8T394 869q-17 11-32 19t-30 8q-19 0-30-14t-16-39h-99m124-36h175l143-180H493L361 762h75L305 627H168l143 180z" horiz-adv-x="806" vert-adv-y="1000"/><glyph glyph-name="uni0201" unicode="ȁ" d="M584 0l-24 208 27 76-27 75 24 210h173l-33-285L757 0H584m44 284q-16-90-58.5-157.5T462.5 22Q398-15 318-15q-83 0-147 37.5t-99.5 105Q36 195 36 284q0 90 35.5 157.5t99.5 105Q235 584 318 584q80 0 144.5-37T570 442.5Q613 375 628 284m-423 0q0-50 20.5-88t56.5-59.5q36-21.5 83-21.5t88.5 21.5Q495 158 527 196t50 88q-18 50-50 88.5t-73.5 60Q412 454 365 454t-83-21.5q-36-21.5-56.5-60T205 284m268 523l110-180H440L322 807h151m-227 0l110-180H213L95 807h151z" horiz-adv-x="806" vert-adv-y="1000"/><glyph glyph-name="unie4" unicode="ä" d="M584 0l-24 208 27 76-27 75 24 210h173l-33-285L757 0H584m44 284q-16-90-58.5-157.5T462.5 22Q398-15 318-15q-83 0-147 37.5t-99.5 105Q36 195 36 284q0 90 35.5 157.5t99.5 105Q235 584 318 584q80 0 144.5-37T570 442.5Q613 375 628 284m-423 0q0-50 20.5-88t56.5-59.5q36-21.5 83-21.5t88.5 21.5Q495 158 527 196t50 88q-18 50-50 88.5t-73.5 60Q412 454 365 454t-83-21.5q-36-21.5-56.5-60T205 284m45 350q-43 0-69.5 22.5T154 717q0 38 26.5 60t69.5 22q43 0 69.5-22t26.5-60q0-38-26.5-60.5T250 634m299 0q-43 0-69.5 22.5T453 717q0 38 26.5 60t69.5 22q43 0 69.5-22t26.5-60q0-38-26.5-60.5T549 634z" horiz-adv-x="806" vert-adv-y="1000"/><glyph glyph-name="uni01DF" unicode="ǟ" d="M584 0l-24 208 27 76-27 75 24 210h173l-33-285L757 0H584m44 284q-16-90-58.5-157.5T462.5 22Q398-15 318-15q-83 0-147 37.5t-99.5 105Q36 195 36 284q0 90 35.5 157.5t99.5 105Q235 584 318 584q80 0 144.5-37T570 442.5Q613 375 628 284m-423 0q0-50 20.5-88t56.5-59.5q36-21.5 83-21.5t88.5 21.5Q495 158 527 196t50 88q-18 50-50 88.5t-73.5 60Q412 454 365 454t-83-21.5q-36-21.5-56.5-60T205 284m45 350q-43 0-69.5 22.5T154 717q0 38 26.5 60t69.5 22q43 0 69.5-22t26.5-60q0-38-26.5-60.5T250 634m299 0q-43 0-69.5 22.5T453 717q0 38 26.5 60t69.5 22q43 0 69.5-22t26.5-60q0-38-26.5-60.5T549 634M169 850v104h460V850H169z" horiz-adv-x="806" vert-adv-y="1000"/><glyph glyph-name="uni0227" unicode="ȧ" d="M584 0l-24 208 27 76-27 75 24 210h173l-33-285L757 0H584m44 284q-16-90-58.5-157.5T462.5 22Q398-15 318-15q-83 0-147 37.5t-99.5 105Q36 195 36 284q0 90 35.5 157.5t99.5 105Q235 584 318 584q80 0 144.5-37T570 442.5Q613 375 628 284m-423 0q0-50 20.5-88t56.5-59.5q36-21.5 83-21.5t88.5 21.5Q495 158 527 196t50 88q-18 50-50 88.5t-73.5 60Q412 454 365 454t-83-21.5q-36-21.5-56.5-60T205 284m194 350q-45 0-73.5 23.5T297 720q0 40 28.5 63.5T399 807q46 0 74-23.5t28-63.5q0-39-28-62.5T399 634z" horiz-adv-x="806" vert-adv-y="1000"/><glyph glyph-name="uni1EA1" unicode="ạ" d="M584 0l-24 208 27 76-27 75 24 210h173l-33-285L757 0H584m44 284q-16-90-58.5-157.5T462.5 22Q398-15 318-15q-83 0-147 37.5t-99.5 105Q36 195 36 284q0 90 35.5 157.5t99.5 105Q235 584 318 584q80 0 144.5-37T570 442.5Q613 375 628 284m-423 0q0-50 20.5-88t56.5-59.5q36-21.5 83-21.5t88.5 21.5Q495 158 527 196t50 88q-18 50-50 88.5t-73.5 60Q412 454 365 454t-83-21.5q-36-21.5-56.5-60T205 284m194-510q-45 0-73.5 23.5T297-140q0 40 28.5 63.5T399-53q46 0 74-23.5t28-63.5q0-39-28-62.5T399-226z" horiz-adv-x="806" vert-adv-y="1000"/><glyph glyph-name="uni01E1" unicode="ǡ" d="M584 0l-24 208 27 76-27 75 24 210h173l-33-285L757 0H584m44 284q-16-90-58.5-157.5T462.5 22Q398-15 318-15q-83 0-147 37.5t-99.5 105Q36 195 36 284q0 90 35.5 157.5t99.5 105Q235 584 318 584q80 0 144.5-37T570 442.5Q613 375 628 284m-423 0q0-50 20.5-88t56.5-59.5q36-21.5 83-21.5t88.5 21.5Q495 158 527 196t50 88q-18 50-50 88.5t-73.5 60Q412 454 365 454t-83-21.5q-36-21.5-56.5-60T205 284m194 350q-45 0-73.5 23.5T297 720q0 40 28.5 63.5T399 807q46 0 74-23.5t28-63.5q0-39-28-62.5T399 634M169 850v104h460V850H169z" horiz-adv-x="806" vert-adv-y="1000"/><glyph glyph-name="unie0" unicode="à" d="M584 0l-24 208 27 76-27 75 24 210h173l-33-285L757 0H584m44 284q-16-90-58.5-157.5T462.5 22Q398-15 318-15q-83 0-147 37.5t-99.5 105Q36 195 36 284q0 90 35.5 157.5t99.5 105Q235 584 318 584q80 0 144.5-37T570 442.5Q613 375 628 284m-423 0q0-50 20.5-88t56.5-59.5q36-21.5 83-21.5t88.5 21.5Q495 158 527 196t50 88q-18 50-50 88.5t-73.5 60Q412 454 365 454t-83-21.5q-36-21.5-56.5-60T205 284m158 523l124-180H330L199 807h164z" horiz-adv-x="806" vert-adv-y="1000"/><glyph glyph-name="uni1EA3" unicode="ả" d="M584 0l-24 208 27 76-27 75 24 210h173l-33-285L757 0H584m44 284q-16-90-58.5-157.5T462.5 22Q398-15 318-15q-83 0-147 37.5t-99.5 105Q36 195 36 284q0 90 35.5 157.5t99.5 105Q235 584 318 584q80 0 144.5-37T570 442.5Q613 375 628 284m-423 0q0-50 20.5-88t56.5-59.5q36-21.5 83-21.5t88.5 21.5Q495 158 527 196t50 88q-18 50-50 88.5t-73.5 60Q412 454 365 454t-83-21.5q-36-21.5-56.5-60T205 284m163 329l-33 50q30 10 46.5 23.5T398 717q0 17-15.5 25.5T337 751q-18 0-34.5-2t-33.5-6v94q19 5 47.5 9t60.5 4q74 0 115.5-27t41.5-75q0-48-39.5-81.5T368 613z" horiz-adv-x="806" vert-adv-y="1000"/><glyph glyph-name="uni0203" unicode="ȃ" d="M584 0l-24 208 27 76-27 75 24 210h173l-33-285L757 0H584m44 284q-16-90-58.5-157.5T462.5 22Q398-15 318-15q-83 0-147 37.5t-99.5 105Q36 195 36 284q0 90 35.5 157.5t99.5 105Q235 584 318 584q80 0 144.5-37T570 442.5Q613 375 628 284m-423 0q0-50 20.5-88t56.5-59.5q36-21.5 83-21.5t88.5 21.5Q495 158 527 196t50 88q-18 50-50 88.5t-73.5 60Q412 454 365 454t-83-21.5q-36-21.5-56.5-60T205 284m420 343H499q-8 39-34 60.5T399 709q-40 0-66.5-21.5T298 627H172q13 87 71.5 136T399 812q96 0 154.5-49T625 627z" horiz-adv-x="806" vert-adv-y="1000"/><glyph glyph-name="uni0251" unicode="ɑ" d="M584 0l-24 208 27 76-27 75 24 210h173l-33-285L757 0H584m44 284q-16-90-58.5-157.5T462.5 22Q398-15 318-15q-83 0-147 37.5t-99.5 105Q36 195 36 284q0 90 35.5 157.5t99.5 105Q235 584 318 584q80 0 144.5-37T570 442.5Q613 375 628 284m-423 0q0-50 20.5-88t56.5-59.5q36-21.5 83-21.5t88.5 21.5Q495 158 527 196t50 88q-18 50-50 88.5t-73.5 60Q412 454 365 454t-83-21.5q-36-21.5-56.5-60T205 284z" horiz-adv-x="806" vert-adv-y="1000"/><glyph glyph-name="uni0252" unicode="ɒ" d="M222 0H49l33 284-33 285h173l24-210-27-75 27-76L222 0m-44 284q16 91 59 158.5T344 547q64 37 144 37 84 0 147.5-37.5t99.5-105Q771 374 771 284q0-89-36-156.5t-99.5-105Q572-15 488-15q-80 0-144 37T237.5 126.5Q195 194 178 284m424 0q0 50-20.5 88.5t-57 60Q488 454 442 454q-47 0-89-21.5t-73.5-60Q248 334 230 284q18-50 49.5-88t73.5-59.5q42-21.5 89-21.5 46 0 82.5 21.5t57 59.5q20.5 38 20.5 88z" horiz-adv-x="806" vert-adv-y="1000"/><glyph glyph-name="uni0101" unicode="ā" d="M584 0l-24 208 27 76-27 75 24 210h173l-33-285L757 0H584m44 284q-16-90-58.5-157.5T462.5 22Q398-15 318-15q-83 0-147 37.5t-99.5 105Q36 195 36 284q0 90 35.5 157.5t99.5 105Q235 584 318 584q80 0 144.5-37T570 442.5Q613 375 628 284m-423 0q0-50 20.5-88t56.5-59.5q36-21.5 83-21.5t88.5 21.5Q495 158 527 196t50 88q-18 50-50 88.5t-73.5 60Q412 454 365 454t-83-21.5q-36-21.5-56.5-60T205 284m-36 375v104h460V659H169z" horiz-adv-x="806" vert-adv-y="1000"/><glyph glyph-name="uni0105" unicode="ą" d="M584 0l-24 208 27 76-27 75 24 210h173l-33-285L757 0H584m44 284q-16-90-58.5-157.5T462.5 22Q398-15 318-15q-83 0-147 37.5t-99.5 105Q36 195 36 284q0 90 35.5 157.5t99.5 105Q235 584 318 584q80 0 144.5-37T570 442.5Q613 375 628 284m-423 0q0-50 20.5-88t56.5-59.5q36-21.5 83-21.5t88.5 21.5Q495 158 527 196t50 88q-18 50-50 88.5t-73.5 60Q412 454 365 454t-83-21.5q-36-21.5-56.5-60T205 284M672 18l63-5V0h22q-36-10-63-22.5t-42.5-25Q636-60 636-74q0-28 61-28 17 0 32 1.5t28 4.5v-95q-13-5-41.5-9t-58.5-4q-66 0-106 26t-40 69q0 43 39.5 74T672 18z" horiz-adv-x="806" vert-adv-y="1000"/><glyph glyph-name="uni1E9A" unicode="ẚ" d="M584 0l-24 208 27 76-27 75 24 210h173l-33-285L757 0H584m44 284q-16-90-58.5-157.5T462.5 22Q398-15 318-15q-83 0-147 37.5t-99.5 105Q36 195 36 284q0 90 35.5 157.5t99.5 105Q235 584 318 584q80 0 144.5-37T570 442.5Q613 375 628 284m-423 0q0-50 20.5-88t56.5-59.5q36-21.5 83-21.5t88.5 21.5Q495 158 527 196t50 88q-18 50-50 88.5t-73.5 60Q412 454 365 454t-83-21.5q-36-21.5-56.5-60T205 284m194 333v73q37 0 57 15t20 42q0 28-20 43.5T399 806v72q81 0 127-35t46-96q0-60-46-95t-127-35z" horiz-adv-x="806" vert-adv-y="1000"/><glyph glyph-name="unie5" unicode="å" d="M584 0l-24 208 27 76-27 75 24 210h173l-33-285L757 0H584m44 284q-16-90-58.5-157.5T462.5 22Q398-15 318-15q-83 0-147 37.5t-99.5 105Q36 195 36 284q0 90 35.5 157.5t99.5 105Q235 584 318 584q80 0 144.5-37T570 442.5Q613 375 628 284m-423 0q0-50 20.5-88t56.5-59.5q36-21.5 83-21.5t88.5 21.5Q495 158 527 196t50 88q-18 50-50 88.5t-73.5 60Q412 454 365 454t-83-21.5q-36-21.5-56.5-60T205 284m193 333q-80 0-127 35t-47 96q0 60 47 95t127 35q82 0 128-35t46-95q0-61-46-96t-128-35m0 73q37 0 57.5 15t20.5 42q0 29-20 44t-58 15q-36 0-56.5-15T321 747q0-27 20.5-42t56.5-15z" horiz-adv-x="806" vert-adv-y="1000"/><glyph glyph-name="uni01FB" unicode="ǻ" d="M403 1034h155L457 860H332l71 174M584 0l-24 208 27 76-27 75 24 210h173l-33-285L757 0H584m44 284q-16-90-58.5-157.5T462.5 22Q398-15 318-15q-83 0-147 37.5t-99.5 105Q36 195 36 284q0 90 35.5 157.5t99.5 105Q235 584 318 584q80 0 144.5-37T570 442.5Q613 375 628 284m-423 0q0-50 20.5-88t56.5-59.5q36-21.5 83-21.5t88.5 21.5Q495 158 527 196t50 88q-18 50-50 88.5t-73.5 60Q412 454 365 454t-83-21.5q-36-21.5-56.5-60T205 284m194 333q-81 0-127.5 35T225 747q0 61 46.5 96T399 878q81 0 127-35t46-96q0-60-46-95t-127-35m0 73q37 0 57 15t20 42q0 28-20 43.5T399 806q-36 0-56.5-15.5T322 747q0-27 20.5-42t56.5-15z" horiz-adv-x="806" vert-adv-y="1000"/><glyph glyph-name="uni1E01" unicode="ḁ" d="M584 0l-24 208 27 76-27 75 24 210h173l-33-285L757 0H584m44 284q-16-90-58.5-157.5T462.5 22Q398-15 318-15q-83 0-147 37.5t-99.5 105Q36 195 36 284q0 90 35.5 157.5t99.5 105Q235 584 318 584q80 0 144.5-37T570 442.5Q613 375 628 284m-423 0q0-50 20.5-88t56.5-59.5q36-21.5 83-21.5t88.5 21.5Q495 158 527 196t50 88q-18 50-50 88.5t-73.5 60Q412 454 365 454t-83-21.5q-36-21.5-56.5-60T205 284m194-587q-80 0-127 35t-47 96q0 60 47 95t127 35q82 0 128-35t46-95q0-61-46-96t-128-35m0 73q37 0 57.5 15t20.5 42q0 29-20 44t-58 15q-36 0-56.5-15T322-173q0-27 20.5-42t56.5-15z" horiz-adv-x="806" vert-adv-y="1000"/><glyph glyph-name="uni2C65" unicode="ⱥ" d="M465 689h113L305-120H192l273 809m51-370q0 65-47 100.5T322 455q-58 0-118-14T90 398v124q64 32 130 47t140 15q98 0 169-29.5t110-87Q678 410 678 326V0H516v103l3 16v106l-3 20v74m-229 46q67 0 120-19.5t90-49q37-29.5 56.5-62T573 176q0-23-19.5-55.5T497 57q-37-31-90-51.5T287-15q-70 0-125.5 22.5T74 72.5Q42 115 42 175q0 59 32 101.5t88 65.5q56 23 125 23m50-104q-62 0-100-23.5T199 175q0-41 37.5-64T337 88q58 0 102 21t80 67q-35 43-80 64t-102 21z" horiz-adv-x="739" vert-adv-y="1000"/><glyph glyph-name="unie3" unicode="ã" d="M584 0l-24 208 27 76-27 75 24 210h173l-33-285L757 0H584m44 284q-16-90-58.5-157.5T462.5 22Q398-15 318-15q-83 0-147 37.5t-99.5 105Q36 195 36 284q0 90 35.5 157.5t99.5 105Q235 584 318 584q80 0 144.5-37T570 442.5Q613 375 628 284m-423 0q0-50 20.5-88t56.5-59.5q36-21.5 83-21.5t88.5 21.5Q495 158 527 196t50 88q-18 50-50 88.5t-73.5 60Q412 454 365 454t-83-21.5q-36-21.5-56.5-60T205 284m-45 353q5 79 39 126t101 47q26 0 51-8.5t47.5-19q22.5-10.5 42.5-19t37-8.5q21 0 35.5 14t18.5 39h105q-4-77-38-124.5T498 636q-27 0-52 8.5t-47.5 19q-22.5 10.5-42 19T320 691q-21 0-35-14t-19-40H160z" horiz-adv-x="806" vert-adv-y="1000"/><glyph glyph-name="uni0250" unicode="ɐ" d="M217 249q0-64 47.5-99.5T410 114q59 0 119 14t113 43V47Q578 14 512.5-.5T372-15q-97 0-168 29.5t-110 87Q55 159 55 243v326h158V465l-2-16V344l6-20v-75m225-41q-66 0-118.5 19T234 275.5q-37 29.5-56.5 61T158 395q0 23 19 55t56 63q37 31 89.5 51T442 584q71 0 127.5-22.5t89-64.5Q691 455 691 396q0-58-32.5-100T569 231q-57-23-127-23m-50 105q61 0 97 22.5t36 60.5q0 40-36.5 62T392 480q-57 0-102-20.5T212 396q34-42 79.5-62.5T392 313z" horiz-adv-x="719" vert-adv-y="1000"/><glyph glyph-name="unie6" unicode="æ" d="M953-15q-101 0-174.5 38.5T664.5 130Q624 198 624 284q0 89 37 156.5T765.5 546Q833 584 924 584q97 0 164.5-44t102-121.5Q1225 341 1222 242H713v98h419l-54-42q-3 52-23 89.5T999 445q-36 20-89 20-48 0-86-20t-59-57.5Q744 350 744 298q0-59 25.5-100.5t76.5-64Q897 111 971 111q62 0 122 16.5t113 49.5V68q-34-25-73-44t-83.5-29Q1005-15 953-15M570 0l-13 208 27 76-27 75 13 210h123l13-281L693 0H570m58 284q-16-90-58.5-157.5T462.5 22Q398-15 318-15q-83 0-147 37.5t-99.5 105Q36 195 36 284q0 90 35.5 157.5t99.5 105Q235 584 318 584q80 0 144.5-37T570 442.5Q613 375 628 284m-423 0q0-50 20.5-88t56.5-59.5q36-21.5 83-21.5t88.5 21.5Q495 158 527 196t50 88q-18 50-50 88.5t-73.5 60Q412 454 365 454t-83-21.5q-36-21.5-56.5-60T205 284z" horiz-adv-x="1258" vert-adv-y="1000"/><glyph glyph-name="uni01FD" unicode="ǽ" d="M953-15q-101 0-174.5 38.5T664.5 130Q624 198 624 284q0 89 37 156.5T765.5 546Q833 584 924 584q97 0 164.5-44t102-121.5Q1225 341 1222 242H713v98h419l-54-42q-3 52-23 89.5T999 445q-36 20-89 20-48 0-86-20t-59-57.5Q744 350 744 298q0-59 25.5-100.5t76.5-64Q897 111 971 111q62 0 122 16.5t113 49.5V68q-34-25-73-44t-83.5-29Q1005-15 953-15M570 0l-13 208 27 76-27 75 13 210h123l13-281L693 0H570m58 284q-16-90-58.5-157.5T462.5 22Q398-15 318-15q-83 0-147 37.5t-99.5 105Q36 195 36 284q0 90 35.5 157.5t99.5 105Q235 584 318 584q80 0 144.5-37T570 442.5Q613 375 628 284m-423 0q0-50 20.5-88t56.5-59.5q36-21.5 83-21.5t88.5 21.5Q495 158 527 196t50 88q-18 50-50 88.5t-73.5 60Q412 454 365 454t-83-21.5q-36-21.5-56.5-60T205 284m456 523h164L694 627H537l124 180z" horiz-adv-x="1258" vert-adv-y="1000"/><glyph glyph-name="uni01E3" unicode="ǣ" d="M953-15q-101 0-174.5 38.5T664.5 130Q624 198 624 284q0 89 37 156.5T765.5 546Q833 584 924 584q97 0 164.5-44t102-121.5Q1225 341 1222 242H713v98h419l-54-42q-3 52-23 89.5T999 445q-36 20-89 20-48 0-86-20t-59-57.5Q744 350 744 298q0-59 25.5-100.5t76.5-64Q897 111 971 111q62 0 122 16.5t113 49.5V68q-34-25-73-44t-83.5-29Q1005-15 953-15M570 0l-13 208 27 76-27 75 13 210h123l13-281L693 0H570m58 284q-16-90-58.5-157.5T462.5 22Q398-15 318-15q-83 0-147 37.5t-99.5 105Q36 195 36 284q0 90 35.5 157.5t99.5 105Q235 584 318 584q80 0 144.5-37T570 442.5Q613 375 628 284m-423 0q0-50 20.5-88t56.5-59.5q36-21.5 83-21.5t88.5 21.5Q495 158 527 196t50 88q-18 50-50 88.5t-73.5 60Q412 454 365 454t-83-21.5q-36-21.5-56.5-60T205 284m196 375v104h460V659H401z" horiz-adv-x="1258" vert-adv-y="1000"/><glyph glyph-name="uni62" unicode="b" d="M63 770h167V388l-23-45V219l23-46V0H63v770m108-486q16 91 59 158.5T337 547q64 37 144 37 83 0 147-37.5t100-105Q764 374 764 284q0-89-36-156.5t-100-105Q564-15 481-15q-80 0-144 37T230.5 126.5Q188 194 171 284m423 0q0 50-20.5 88.5t-56.5 60Q481 454 435 454q-47 0-89-21.5t-73.5-60Q241 334 223 284q18-50 49.5-88t73.5-59.5q42-21.5 89-21.5 46 0 82 21.5t56.5 59.5q20.5 38 20.5 88z" horiz-adv-x="799" vert-adv-y="1000"/><glyph glyph-name="uni1E03" unicode="ḃ" d="M63 770h167V388l-23-45V219l23-46V0H63v770m108-486q16 91 59 158.5T337 547q64 37 144 37 83 0 147-37.5t100-105Q764 374 764 284q0-89-36-156.5t-100-105Q564-15 481-15q-80 0-144 37T230.5 126.5Q188 194 171 284m423 0q0 50-20.5 88.5t-56.5 60Q481 454 435 454q-47 0-89-21.5t-73.5-60Q241 334 223 284q18-50 49.5-88t73.5-59.5q42-21.5 89-21.5 46 0 82 21.5t56.5 59.5q20.5 38 20.5 88M395 835q-45 0-73.5 23.5T293 922q0 39 28.5 63t73.5 24q46 0 74-24t28-63q0-40-28-63.5T395 835z" horiz-adv-x="799" vert-adv-y="1000"/><glyph glyph-name="uni1E05" unicode="ḅ" d="M63 770h167V388l-23-45V219l23-46V0H63v770m108-486q16 91 59 158.5T337 547q64 37 144 37 83 0 147-37.5t100-105Q764 374 764 284q0-89-36-156.5t-100-105Q564-15 481-15q-80 0-144 37T230.5 126.5Q188 194 171 284m423 0q0 50-20.5 88.5t-56.5 60Q481 454 435 454q-47 0-89-21.5t-73.5-60Q241 334 223 284q18-50 49.5-88t73.5-59.5q42-21.5 89-21.5 46 0 82 21.5t56.5 59.5q20.5 38 20.5 88M406-226q-45 0-73.5 23.5T304-140q0 40 28.5 63.5T406-53q46 0 74-23.5t28-63.5q0-39-28-62.5T406-226z" horiz-adv-x="799" vert-adv-y="1000"/><glyph glyph-name="uniA7B5" unicode="ꞵ" d="M62-165v627q0 98 43.5 170.5t125 112.5Q312 785 424 785q90 0 158.5-23.5t107.5-67Q729 651 729 591q0-74-59.5-123T506 406l19 16q138-4 210-58.5T807 214q0-68-39.5-119.5T657 14q-71-29-166-29-127 0-207 51T178 197l50 126q0-111 63-163.5T461 107q83 0 130 31.5t47 84.5q0 34-18 60t-56 41q-38 15-99 15h-87v114h52q65 0 101 27t36 72q0 50-42 78.5T413 659q-58 0-99.5-22T250 574q-22-41-22-98v-641H62z" horiz-adv-x="838" vert-adv-y="1000"/><glyph glyph-name="uni0253" unicode="ɓ" d="M63 540q0 123 63.5 184T335 785q46 0 87.5-7.5T496 759V633q-27 11-61.5 18t-71.5 7q-72 0-102.5-32.5T230 525V377l-23-45V208l23-46V0H63v540m701-267q0-86-35.5-151T629 21q-64-36-147-36-80 0-144.5 36t-107 101Q188 187 172 273q16 88 58.5 152.5t107 100Q402 561 482 561q83 0 147-36t99.5-101Q764 359 764 273m-169 0q0 47-20.5 82.5T518 411q-36 20-83 20t-88.5-20q-41.5-20-73-55.5T223 273q19-46 50.5-82t73-56q41.5-20 88.5-20t83 20q36 20 56.5 56t20.5 82z" horiz-adv-x="800" vert-adv-y="1000"/><glyph glyph-name="uni0298" unicode="ʘ" d="M467-15q-128 0-225 50T91 175q-54 90-54 210t54 210q54 90 151 140t225 50q129 0 225.5-50T843 595q54-90 54-210t-54-210Q789 85 692.5 35T467-15m0 127q81 0 139 33t90 94.5Q728 301 728 385t-32 145.5Q664 592 606 625t-139 33q-80 0-138.5-33t-90-94.5Q207 469 207 385t31.5-145.5q31.5-61.5 90-94.5T467 112m0 186q-36 0-61.5 25.5T380 385q0 37 25.5 62t61.5 25q37 0 62-25t25-62q0-36-25-61.5T467 298z" horiz-adv-x="934" vert-adv-y="1000"/><glyph glyph-name="uni1E07" unicode="ḇ" d="M63 770h167V388l-23-45V219l23-46V0H63v770m108-486q16 91 59 158.5T337 547q64 37 144 37 83 0 147-37.5t100-105Q764 374 764 284q0-89-36-156.5t-100-105Q564-15 481-15q-80 0-144 37T230.5 126.5Q188 194 171 284m423 0q0 50-20.5 88.5t-56.5 60Q481 454 435 454q-47 0-89-21.5t-73.5-60Q241 334 223 284q18-50 49.5-88t73.5-59.5q42-21.5 89-21.5 46 0 82 21.5t56.5 59.5q20.5 38 20.5 88M182-171v104h460v-104H182z" horiz-adv-x="799" vert-adv-y="1000"/><glyph glyph-name="uni0180" unicode="ƀ" d="M482-15q-80 0-144.5 36t-107 101Q188 187 172 273q16 88 58.5 152.5t107 100Q402 561 482 561q83 0 146.5-36T728 424q36-65 36-151t-36-151q-36-65-99.5-101T482-15m-47 130q47 0 83 20t56.5 56q20.5 36 20.5 82 0 47-20.5 82.5T518 411q-36 20-83 20t-88.5-20q-41.5-20-73-55.5T223 273q19-46 50.5-82t73-56q41.5-20 88.5-20M230 0H63v770h167V376l-23-44V208l23-47V0m285 606H-13v102h528V606z" horiz-adv-x="800" vert-adv-y="1000"/><glyph glyph-name="uni63" unicode="c" d="M716 232q-10-73-56.5-129T540 16q-73-31-163-31-102 0-179.5 37.5T76.5 128Q33 196 33 284q0 89 43.5 156.5t121 105.5Q275 584 377 584q90 0 163-31.5t119.5-87Q706 410 716 336H549q-13 58-59.5 89.5T377 457q-53 0-92.5-20.5t-60.5-59Q203 339 203 284q0-54 21-92.5t60.5-59Q324 112 377 112q67 0 113.5 33t58.5 87h167z" horiz-adv-x="743" vert-adv-y="1000"/><glyph glyph-name="uni0107" unicode="ć" d="M716 232q-10-73-56.5-129T540 16q-73-31-163-31-102 0-179.5 37.5T76.5 128Q33 196 33 284q0 89 43.5 156.5t121 105.5Q275 584 377 584q90 0 163-31.5t119.5-87Q706 410 716 336H549q-13 58-59.5 89.5T377 457q-53 0-92.5-20.5t-60.5-59Q203 339 203 284q0-54 21-92.5t60.5-59Q324 112 377 112q67 0 113.5 33t58.5 87h167M408 807h164L441 627H284l124 180z" horiz-adv-x="743" vert-adv-y="1000"/><glyph glyph-name="uni010D" unicode="č" d="M716 232q-10-73-56.5-129T540 16q-73-31-163-31-102 0-179.5 37.5T76.5 128Q33 196 33 284q0 89 43.5 156.5t121 105.5Q275 584 377 584q90 0 163-31.5t119.5-87Q706 410 716 336H549q-13 58-59.5 89.5T377 457q-53 0-92.5-20.5t-60.5-59Q203 339 203 284q0-54 21-92.5t60.5-59Q324 112 377 112q67 0 113.5 33t58.5 87h167M465 627H291L148 807h136l132-135h-76l131 135h137L465 627z" horiz-adv-x="743" vert-adv-y="1000"/><glyph glyph-name="unie7" unicode="ç" d="M716 232q-10-73-56.5-129T540 16q-73-31-163-31-102 0-179.5 37.5T76.5 128Q33 196 33 284q0 89 43.5 156.5t121 105.5Q275 584 377 584q90 0 163-31.5t119.5-87Q706 410 716 336H549q-13 58-59.5 89.5T377 457q-53 0-92.5-20.5t-60.5-59Q203 339 203 284q0-54 21-92.5t60.5-59Q324 112 377 112q67 0 113.5 33t58.5 87h167M340 12h88l-55-84-41 2q21 12 46.5 20t58.5 8q65 0 98-25.5t33-69.5q0-45-43.5-76T398-244q-74 0-124.5 29.5T208-139h107q9-12 27.5-22t55.5-10q33 0 49.5 10t16.5 27q0 16-13 26t-44 10q-18 0-32-4t-25-9h-89l79 123z" horiz-adv-x="743" vert-adv-y="1000"/><glyph glyph-name="uni1E09" unicode="ḉ" d="M716 232q-10-73-56.5-129T540 16q-73-31-163-31-102 0-179.5 37.5T76.5 128Q33 196 33 284q0 89 43.5 156.5t121 105.5Q275 584 377 584q90 0 163-31.5t119.5-87Q706 410 716 336H549q-13 58-59.5 89.5T377 457q-53 0-92.5-20.5t-60.5-59Q203 339 203 284q0-54 21-92.5t60.5-59Q324 112 377 112q67 0 113.5 33t58.5 87h167M340 12h88l-55-84-41 2q21 12 46.5 20t58.5 8q65 0 98-25.5t33-69.5q0-45-43.5-76T398-244q-74 0-124.5 29.5T208-139h107q9-12 27.5-22t55.5-10q33 0 49.5 10t16.5 27q0 16-13 26t-44 10q-18 0-32-4t-25-9h-89l79 123m68 795h164L441 627H284l124 180z" horiz-adv-x="743" vert-adv-y="1000"/><glyph glyph-name="uni0109" unicode="ĉ" d="M716 232q-10-73-56.5-129T540 16q-73-31-163-31-102 0-179.5 37.5T76.5 128Q33 196 33 284q0 89 43.5 156.5t121 105.5Q275 584 377 584q90 0 163-31.5t119.5-87Q706 410 716 336H549q-13 58-59.5 89.5T377 457q-53 0-92.5-20.5t-60.5-59Q203 339 203 284q0-54 21-92.5t60.5-59Q324 112 377 112q67 0 113.5 33t58.5 87h167M290 807h175l143-180H472L340 762h75L284 627H147l143 180z" horiz-adv-x="743" vert-adv-y="1000"/><glyph glyph-name="uni010B" unicode="ċ" d="M716 232q-10-73-56.5-129T540 16q-73-31-163-31-102 0-179.5 37.5T76.5 128Q33 196 33 284q0 89 43.5 156.5t121 105.5Q275 584 377 584q90 0 163-31.5t119.5-87Q706 410 716 336H549q-13 58-59.5 89.5T377 457q-53 0-92.5-20.5t-60.5-59Q203 339 203 284q0-54 21-92.5t60.5-59Q324 112 377 112q67 0 113.5 33t58.5 87h167M378 634q-45 0-73.5 23.5T276 720q0 40 28.5 63.5T378 807q46 0 74-23.5t28-63.5q0-39-28-62.5T378 634z" horiz-adv-x="743" vert-adv-y="1000"/><glyph glyph-name="uniAB53" unicode="ꭓ" d="M-28-165l271 415-1-80-254 399h175l178-288h-55l179 288h173L377 168l-8 100 285-433H475L282 143h57L148-165H-28z" horiz-adv-x="625" vert-adv-y="1000"/><glyph glyph-name="uni0188" unicode="ƈ" d="M732 737q43 0 74-9.5t58-20.5V585q-30 13-53 19t-47 6q-49 0-70.5-21T672 525q0-31 9.5-64t23.5-82l12-43H550q-12 58-58.5 89.5T378 457q-52 0-91.5-20.5t-61-59Q204 339 204 284q0-54 21.5-92.5t61-59Q326 112 378 112q67 0 114 33t58 87h167q-9-73-55.5-129T542 16q-73-31-165-31-101 0-178 37.5t-120.5 106Q35 197 35 286q0 87 41.5 154.5t115 105.5Q265 584 360 584q64 0 120-20t99-63l18-92q-32 44-45 77.5T539 560q0 88 52.5 132.5T732 737z" horiz-adv-x="773" vert-adv-y="1000"/><glyph glyph-name="uni2184" unicode="ↄ" d="M27 232h167q13-54 59-87t113-33q54 0 93 20.5t60 59q21 38.5 21 92.5 0 55-21 93.5t-60 59Q420 457 366 457q-66 0-112.5-31.5T194 336H27q10 74 56 129.5t119.5 87Q276 584 366 584q102 0 179-38t120.5-105.5Q709 373 709 284q0-88-43.5-156T545 22.5Q468-15 366-15q-90 0-163.5 31T83 103q-46 56-56 129z" horiz-adv-x="743" vert-adv-y="1000"/><glyph glyph-name="uni023C" unicode="ȼ" d="M451 689h113L291-120H178l273 809m265-457q-9-73-55.5-129T541 16q-73-31-164-31-101 0-178.5 37.5T77.5 128Q34 196 34 284q0 89 43.5 156.5t121 105.5Q276 584 377 584q91 0 164-31.5t119.5-87Q707 410 716 336H549q-12 58-58.5 89.5T377 457q-52 0-91.5-20.5t-61-59Q203 339 203 284q0-54 21.5-92.5t61-59Q325 112 377 112q67 0 114 33t58 87h167z" horiz-adv-x="744" vert-adv-y="1000"/><glyph glyph-name="uni64" unicode="d" d="M587 0l-24 215 32 68-31 83 45 404h173l-55-474L760 0H587m41 284q-16-90-58.5-157.5T462.5 22Q398-15 318-15q-83 0-147 37.5t-99.5 105Q36 195 36 284q0 90 35.5 157.5t99.5 105Q235 584 318 584q80 0 144.5-37T570 442.5Q613 375 628 284m-423 0q0-50 20.5-88t56.5-59.5q36-21.5 83-21.5t88.5 21.5Q495 158 527 196t50 88q-18 50-50 88.5t-73.5 60Q412 454 365 454t-83-21.5q-36-21.5-56.5-60T205 284z" horiz-adv-x="808" vert-adv-y="1000"/><glyph glyph-name="unif0" unicode="ð" d="M391-15q-108 0-188.5 34T77 114.5Q32 176 32 256q0 78 42 137t116.5 92Q265 518 363 518q65 0 124-19.5T594 431l-23-1q-31 63-76 121T392.5 661.5Q335 714 266 760l166 25q107-80 175-160.5T707.5 462Q740 380 740 294q0-88-41-158T580.5 25.5Q503-15 391-15m-3 127q58 0 100 17t64.5 49.5Q575 211 575 254q0 44-22.5 76T488 379.5Q446 397 388 397q-57 0-99-17.5t-64.5-49Q202 299 202 254q0-43 22.5-75.5T289 129q42-17 99-17M257 555v90l443 86v-90l-443-86z" horiz-adv-x="777" vert-adv-y="1000"/><glyph glyph-name="uni0238" unicode="ȸ" d="M627 284q-16-90-58.5-157.5T462 22q-64-37-144-37-83 0-146.5 37.5T72 127.5Q36 195 36 284q0 90 36 157.5t99.5 105Q235 584 318 584q79 0 143.5-37T569 442.5Q612 375 627 284m-422 0q0-50 20.5-88t56.5-59.5q36-21.5 83-21.5t88.5 21.5Q495 158 527 196t49 88q-17 50-49 88.5t-73.5 60Q412 454 365 454t-83-21.5q-36-21.5-56.5-60T205 284m365 486h166V388l-23-45V219l23-46V0H570v178l23 66v102l-23 34v390m108-486q17 91 59.5 158.5T844 547q64 37 144 37 83 0 146.5-37.5t99.5-105q36-67.5 36-157.5 0-89-36-156.5t-99.5-105Q1071-15 988-15q-80 0-143.5 37T738 126.5Q695 194 678 284m423 0q0 50-20.5 88.5t-56.5 60Q988 454 941 454t-88.5-21.5q-41.5-21.5-73-60T729 284q19-50 50.5-88t73-59.5Q894 115 941 115t83 21.5q36 21.5 56.5 59.5t20.5 88z" horiz-adv-x="1305" vert-adv-y="1000"/><glyph glyph-name="uni010F" unicode="ď" d="M587 0l-24 215 32 68-31 83 45 404h173l-55-474L760 0H587m41 284q-16-90-58.5-157.5T462.5 22Q398-15 318-15q-83 0-147 37.5t-99.5 105Q36 195 36 284q0 90 35.5 157.5t99.5 105Q235 584 318 584q80 0 144.5-37T570 442.5Q613 375 628 284m-423 0q0-50 20.5-88t56.5-59.5q36-21.5 83-21.5t88.5 21.5Q495 158 527 196t50 88q-18 50-50 88.5t-73.5 60Q412 454 365 454t-83-21.5q-36-21.5-56.5-60T205 284m634 544h148l-54-198H815l24 198z" horiz-adv-x="824" vert-adv-y="1000"/><glyph glyph-name="uni1E11" unicode="ḑ" d="M587 0l-24 215 32 68-31 83 45 404h173l-55-474L760 0H587m41 284q-16-90-58.5-157.5T462.5 22Q398-15 318-15q-83 0-147 37.5t-99.5 105Q36 195 36 284q0 90 35.5 157.5t99.5 105Q235 584 318 584q80 0 144.5-37T570 442.5Q613 375 628 284m-423 0q0-50 20.5-88t56.5-59.5q36-21.5 83-21.5t88.5 21.5Q495 158 527 196t50 88q-18 50-50 88.5t-73.5 60Q412 454 365 454t-83-21.5q-36-21.5-56.5-60T205 284m101-570l81 138 7-46q-42 0-68 20.5T300-120q0 34 25.5 54T394-46q43 0 68.5-20.5T488-122q0-24-11.5-44T436-225l-47-61h-83z" horiz-adv-x="807" vert-adv-y="1000"/><glyph glyph-name="uni1E13" unicode="ḓ" d="M587 0l-24 215 32 68-31 83 45 404h173l-55-474L760 0H587m41 284q-16-90-58.5-157.5T462.5 22Q398-15 318-15q-83 0-147 37.5t-99.5 105Q36 195 36 284q0 90 35.5 157.5t99.5 105Q235 584 318 584q80 0 144.5-37T570 442.5Q613 375 628 284m-423 0q0-50 20.5-88t56.5-59.5q36-21.5 83-21.5t88.5 21.5Q495 158 527 196t50 88q-18 50-50 88.5t-73.5 60Q412 454 365 454t-83-21.5q-36-21.5-56.5-60T205 284M306-42h175l143-180H488L356-87h75L300-222H163L306-42z" horiz-adv-x="807" vert-adv-y="1000"/><glyph glyph-name="uni0111" unicode="đ" d="M318-15q-82 0-146 36T72 122q-36 65-36 151t36 151q36 65 100 101t146 36q80 0 144.5-35.5t107.5-100Q613 361 628 273q-16-86-58.5-151T463 21q-64-36-145-36m47 130q47 0 88.5 20t73.5 56q32 36 50 82-18 47-50 82.5T453.5 411Q412 431 365 431q-46 0-82.5-20t-57-55.5Q205 320 205 273q0-46 20.5-82t57-56q36.5-20 82.5-20M570 0v161l23 47v124l-23 44v394h167V0H570M285 606v102h528V606H285z" horiz-adv-x="800" vert-adv-y="1000"/><glyph glyph-name="uni1E0B" unicode="ḋ" d="M587 0l-24 215 32 68-31 83 45 404h173l-55-474L760 0H587m41 284q-16-90-58.5-157.5T462.5 22Q398-15 318-15q-83 0-147 37.5t-99.5 105Q36 195 36 284q0 90 35.5 157.5t99.5 105Q235 584 318 584q80 0 144.5-37T570 442.5Q613 375 628 284m-423 0q0-50 20.5-88t56.5-59.5q36-21.5 83-21.5t88.5 21.5Q495 158 527 196t50 88q-18 50-50 88.5t-73.5 60Q412 454 365 454t-83-21.5q-36-21.5-56.5-60T205 284m204 551q-45 0-73.5 23.5T307 922q0 39 28.5 63t73.5 24q46 0 74-24t28-63q0-40-28-63.5T409 835z" horiz-adv-x="807" vert-adv-y="1000"/><glyph glyph-name="uni1E0D" unicode="ḍ" d="M587 0l-24 215 32 68-31 83 45 404h173l-55-474L760 0H587m41 284q-16-90-58.5-157.5T462.5 22Q398-15 318-15q-83 0-147 37.5t-99.5 105Q36 195 36 284q0 90 35.5 157.5t99.5 105Q235 584 318 584q80 0 144.5-37T570 442.5Q613 375 628 284m-423 0q0-50 20.5-88t56.5-59.5q36-21.5 83-21.5t88.5 21.5Q495 158 527 196t50 88q-18 50-50 88.5t-73.5 60Q412 454 365 454t-83-21.5q-36-21.5-56.5-60T205 284m189-510q-45 0-73.5 23.5T292-140q0 40 28.5 63.5T394-53q46 0 74-23.5t28-63.5q0-39-28-62.5T394-226z" horiz-adv-x="807" vert-adv-y="1000"/><glyph glyph-name="uni0257" unicode="ɗ" d="M737 0H569v161l24 47v124l-24 44v192q0 106 52 161.5T781 785q37 0 68.5-6.5T904 762V639q-17 9-39 14.5t-43 5.5q-45 0-65-22.5T737 568V0M628 284q-16-90-58.5-157.5T462.5 22Q398-15 318-15q-83 0-147 37.5t-99.5 105Q36 195 36 284q0 90 35.5 157.5t99.5 105Q235 584 318 584q80 0 144.5-37T570 442.5Q613 375 628 284m-423 0q0-50 20.5-88t56.5-59.5q36-21.5 83-21.5t88.5 21.5Q495 158 527 196t50 88q-18 50-50 88.5t-73.5 60Q412 454 365 454t-83-21.5q-36-21.5-56.5-60T205 284z" horiz-adv-x="799" vert-adv-y="1000"/><glyph glyph-name="uni1E0F" unicode="ḏ" d="M587 0l-24 215 32 68-31 83 45 404h173l-55-474L760 0H587m41 284q-16-90-58.5-157.5T462.5 22Q398-15 318-15q-83 0-147 37.5t-99.5 105Q36 195 36 284q0 90 35.5 157.5t99.5 105Q235 584 318 584q80 0 144.5-37T570 442.5Q613 375 628 284m-423 0q0-50 20.5-88t56.5-59.5q36-21.5 83-21.5t88.5 21.5Q495 158 527 196t50 88q-18 50-50 88.5t-73.5 60Q412 454 365 454t-83-21.5q-36-21.5-56.5-60T205 284m-35-455v104h460v-104H170z" horiz-adv-x="807" vert-adv-y="1000"/><glyph glyph-name="uni0256" unicode="ɖ" d="M609 770h173l-55-474 24-221q7-63 29-90t75-27q26 0 50.5 5T948-27v-129q-27-11-62.5-17.5T816-180q-75 0-123.5 21T619-96.5Q594-55 587 6l-24 209 32 68-31 83 45 404m19-486q-16-90-58.5-157.5T462.5 22Q398-15 318-15q-83 0-147 37.5t-99.5 105Q36 195 36 284q0 90 35.5 157.5t99.5 105Q235 584 318 584q80 0 144.5-37T570 442.5Q613 375 628 284m-423 0q0-50 20.5-88t56.5-59.5q36-21.5 83-21.5t88.5 21.5Q495 158 527 196t50 88q-18 50-50 88.5t-73.5 60Q412 454 365 454t-83-21.5q-36-21.5-56.5-60T205 284z" horiz-adv-x="838" vert-adv-y="1000"/><glyph glyph-name="uni01F3" unicode="ǳ" d="M587 0l-24 215 32 68-31 83 45 404h173l-55-474L760 0H587m41 284q-16-90-58.5-157.5T462.5 22Q398-15 318-15q-83 0-147 37.5t-99.5 105Q36 195 36 284q0 90 35.5 157.5t99.5 105Q235 584 318 584q80 0 144.5-37T570 442.5Q613 375 628 284m-423 0q0-50 20.5-88t56.5-59.5q36-21.5 83-21.5t88.5 21.5Q495 158 527 196t50 88q-18 50-50 88.5t-73.5 60Q412 454 365 454t-83-21.5q-36-21.5-56.5-60T205 284M838 0v118l418 357 112-30H841v124h591V451L1014 94l-96 29h516V0H838z" horiz-adv-x="1471" vert-adv-y="1000"/><glyph glyph-name="uni01C6" unicode="ǆ" d="M587 0l-24 215 32 68-31 83 45 404h173l-55-474L760 0H587m41 284q-16-90-58.5-157.5T462.5 22Q398-15 318-15q-83 0-147 37.5t-99.5 105Q36 195 36 284q0 90 35.5 157.5t99.5 105Q235 584 318 584q80 0 144.5-37T570 442.5Q613 375 628 284m-423 0q0-50 20.5-88t56.5-59.5q36-21.5 83-21.5t88.5 21.5Q495 158 527 196t50 88q-18 50-50 88.5t-73.5 60Q412 454 365 454t-83-21.5q-36-21.5-56.5-60T205 284M837 0v118l418 357 112-30H841v124h590V451L1014 94l-96 29h515V0H837m386 627h-175L905 807h136l132-135h-75l131 135h137l-143-180z" horiz-adv-x="1471" vert-adv-y="1000"/><glyph glyph-name="uni65" unicode="e" d="M384-15q-101 0-180.5 37.5T78.5 128Q33 196 33 286q0 89 43.5 156T196 546.5Q272 584 369 584q99 0 170-43.5T648.5 418Q687 339 687 232H167v111h430l-65-40q-4 50-24.5 85T452 442q-35 19-82 19-51 0-88.5-20.5t-58-57Q203 347 203 298q0-59 26-101t76-64q50-22 121-22 64 0 129 18.5T672 182V70Q616 30 541.5 7.5T384-15z" horiz-adv-x="722" vert-adv-y="1000"/><glyph glyph-name="unie9" unicode="é" d="M384-15q-101 0-180.5 37.5T78.5 128Q33 196 33 286q0 89 43.5 156T196 546.5Q272 584 369 584q99 0 170-43.5T648.5 418Q687 339 687 232H167v111h430l-65-40q-4 50-24.5 85T452 442q-35 19-82 19-51 0-88.5-20.5t-58-57Q203 347 203 298q0-59 26-101t76-64q50-22 121-22 64 0 129 18.5T672 182V70Q616 30 541.5 7.5T384-15m13 822h164L430 627H273l124 180z" horiz-adv-x="722" vert-adv-y="1000"/><glyph glyph-name="uni0115" unicode="ĕ" d="M384-15q-101 0-180.5 37.5T78.5 128Q33 196 33 286q0 89 43.5 156T196 546.5Q272 584 369 584q99 0 170-43.5T648.5 418Q687 339 687 232H167v111h430l-65-40q-4 50-24.5 85T452 442q-35 19-82 19-51 0-88.5-20.5t-58-57Q203 347 203 298q0-59 26-101t76-64q50-22 121-22 64 0 129 18.5T672 182V70Q616 30 541.5 7.5T384-15M140 807h127q7-39 33.5-60.5T367 725q40 0 66 21.5t35 60.5h125q-12-87-70.5-136.5T367 621q-96 0-154.5 49.5T140 807z" horiz-adv-x="722" vert-adv-y="1000"/><glyph glyph-name="uni011B" unicode="ě" d="M384-15q-101 0-180.5 37.5T78.5 128Q33 196 33 286q0 89 43.5 156T196 546.5Q272 584 369 584q99 0 170-43.5T648.5 418Q687 339 687 232H167v111h430l-65-40q-4 50-24.5 85T452 442q-35 19-82 19-51 0-88.5-20.5t-58-57Q203 347 203 298q0-59 26-101t76-64q50-22 121-22 64 0 129 18.5T672 182V70Q616 30 541.5 7.5T384-15m70 642H280L137 807h136l132-135h-75l131 135h136L454 627z" horiz-adv-x="722" vert-adv-y="1000"/><glyph glyph-name="uni0229" unicode="ȩ" d="M384-15q-101 0-180.5 37.5T78.5 128Q33 196 33 286q0 89 43.5 156T196 546.5Q272 584 369 584q99 0 170-43.5T648.5 418Q687 339 687 232H167v111h430l-65-40q-4 50-24.5 85T452 442q-35 19-82 19-51 0-88.5-20.5t-58-57Q203 347 203 298q0-59 26-101t76-64q50-22 121-22 64 0 129 18.5T672 182V70Q616 30 541.5 7.5T384-15m-48 27h88l-55-84-41 2q21 12 46.5 20t58.5 8q65 0 98-25.5t33-69.5q0-45-43.5-76T394-244q-74 0-124.5 29.5T204-139h107q9-12 27.5-22t55.5-10q33 0 49.5 10t16.5 27q0 16-13 26t-44 10q-18 0-32-4t-25-9h-89l79 123z" horiz-adv-x="722" vert-adv-y="1000"/><glyph glyph-name="uni1E1D" unicode="ḝ" d="M384-15q-101 0-180.5 37.5T78.5 128Q33 196 33 286q0 89 43.5 156T196 546.5Q272 584 369 584q99 0 170-43.5T648.5 418Q687 339 687 232H167v111h430l-65-40q-4 50-24.5 85T452 442q-35 19-82 19-51 0-88.5-20.5t-58-57Q203 347 203 298q0-59 26-101t76-64q50-22 121-22 64 0 129 18.5T672 182V70Q616 30 541.5 7.5T384-15m-48 27h88l-55-84-41 2q21 12 46.5 20t58.5 8q65 0 98-25.5t33-69.5q0-45-43.5-76T394-244q-74 0-124.5 29.5T204-139h107q9-12 27.5-22t55.5-10q33 0 49.5 10t16.5 27q0 16-13 26t-44 10q-18 0-32-4t-25-9h-89l79 123M140 807h127q7-39 33.5-60.5T367 725q40 0 66 21.5t35 60.5h125q-12-87-70.5-136.5T367 621q-96 0-154.5 49.5T140 807z" horiz-adv-x="722" vert-adv-y="1000"/><glyph glyph-name="uniea" unicode="ê" d="M384-15q-101 0-180.5 37.5T78.5 128Q33 196 33 286q0 89 43.5 156T196 546.5Q272 584 369 584q99 0 170-43.5T648.5 418Q687 339 687 232H167v111h430l-65-40q-4 50-24.5 85T452 442q-35 19-82 19-51 0-88.5-20.5t-58-57Q203 347 203 298q0-59 26-101t76-64q50-22 121-22 64 0 129 18.5T672 182V70Q616 30 541.5 7.5T384-15M279 807h175l143-180H461L329 762h75L273 627H136l143 180z" horiz-adv-x="722" vert-adv-y="1000"/><glyph glyph-name="uni1EBF" unicode="ế" d="M384-15q-101 0-180.5 37.5T78.5 128Q33 196 33 286q0 89 43.5 156T196 546.5Q272 584 369 584q99 0 170-43.5T648.5 418Q687 339 687 232H167v111h430l-65-40q-4 50-24.5 85T452 442q-35 19-82 19-51 0-88.5-20.5t-58-57Q203 347 203 298q0-59 26-101t76-64q50-22 121-22 64 0 129 18.5T672 182V70Q616 30 541.5 7.5T384-15m218 951h155L656 762H531l71 174M279 807h175l143-180H461L329 762h75L273 627H136l143 180z" horiz-adv-x="722" vert-adv-y="1000"/><glyph glyph-name="uni1E19" unicode="ḙ" d="M384-15q-101 0-180.5 37.5T78.5 128Q33 196 33 286q0 89 43.5 156T196 546.5Q272 584 369 584q99 0 170-43.5T648.5 418Q687 339 687 232H167v111h430l-65-40q-4 50-24.5 85T452 442q-35 19-82 19-51 0-88.5-20.5t-58-57Q203 347 203 298q0-59 26-101t76-64q50-22 121-22 64 0 129 18.5T672 182V70Q616 30 541.5 7.5T384-15M284-42h175l143-180H466L334-87h75L278-222H141L284-42z" horiz-adv-x="722" vert-adv-y="1000"/><glyph glyph-name="uni1EC7" unicode="ệ" d="M384-15q-101 0-180.5 37.5T78.5 128Q33 196 33 286q0 89 43.5 156T196 546.5Q272 584 369 584q99 0 170-43.5T648.5 418Q687 339 687 232H167v111h430l-65-40q-4 50-24.5 85T452 442q-35 19-82 19-51 0-88.5-20.5t-58-57Q203 347 203 298q0-59 26-101t76-64q50-22 121-22 64 0 129 18.5T672 182V70Q616 30 541.5 7.5T384-15m-12-211q-45 0-73.5 23.5T270-140q0 40 28.5 63.5T372-53q46 0 74-23.5t28-63.5q0-39-28-62.5T372-226M279 807h175l143-180H461L329 762h75L273 627H136l143 180z" horiz-adv-x="722" vert-adv-y="1000"/><glyph glyph-name="uni1EC1" unicode="ề" d="M384-15q-101 0-180.5 37.5T78.5 128Q33 196 33 286q0 89 43.5 156T196 546.5Q272 584 369 584q99 0 170-43.5T648.5 418Q687 339 687 232H167v111h430l-65-40q-4 50-24.5 85T452 442q-35 19-82 19-51 0-88.5-20.5t-58-57Q203 347 203 298q0-59 26-101t76-64q50-22 121-22 64 0 129 18.5T672 182V70Q616 30 541.5 7.5T384-15m222 951l71-174H552L451 936h155M279 807h175l143-180H461L329 762h75L273 627H136l143 180z" horiz-adv-x="722" vert-adv-y="1000"/><glyph glyph-name="uni1EC3" unicode="ể" d="M384-15q-101 0-180.5 37.5T78.5 128Q33 196 33 286q0 89 43.5 156T196 546.5Q272 584 369 584q99 0 170-43.5T648.5 418Q687 339 687 232H167v111h430l-65-40q-4 50-24.5 85T452 442q-35 19-82 19-51 0-88.5-20.5t-58-57Q203 347 203 298q0-59 26-101t76-64q50-22 121-22 64 0 129 18.5T672 182V70Q616 30 541.5 7.5T384-15m179 769l-32 48q56 20 56 49 0 32-55 32-14 0-30.5-2t-31.5-6v89q18 6 45 10t59 4q70 0 109.5-25.5T723 881q0-43-41-75.5T563 754m-284 53h175l143-180H461L329 762h75L273 627H136l143 180z" horiz-adv-x="722" vert-adv-y="1000"/><glyph glyph-name="uni1EC5" unicode="ễ" d="M384-15q-101 0-180.5 37.5T78.5 128Q33 196 33 286q0 89 43.5 156T196 546.5Q272 584 369 584q99 0 170-43.5T648.5 418Q687 339 687 232H167v111h430l-65-40q-4 50-24.5 85T452 442q-35 19-82 19-51 0-88.5-20.5t-58-57Q203 347 203 298q0-59 26-101t76-64q50-22 121-22 64 0 129 18.5T672 182V70Q616 30 541.5 7.5T384-15M155 843q5 76 38 121.5t98 45.5q24 0 44-8t37-19q17-11 32-19t29-8q19 0 30.5 14t15.5 38h99q-4-76-37-121t-99-45q-24 0-43.5 8T362 869q-17 11-32 19t-30 8q-19 0-30-14t-16-39h-99m124-36h175l143-180H461L329 762h75L273 627H136l143 180z" horiz-adv-x="722" vert-adv-y="1000"/><glyph glyph-name="uni0205" unicode="ȅ" d="M384-15q-101 0-180.5 37.5T78.5 128Q33 196 33 286q0 89 43.5 156T196 546.5Q272 584 369 584q99 0 170-43.5T648.5 418Q687 339 687 232H167v111h430l-65-40q-4 50-24.5 85T452 442q-35 19-82 19-51 0-88.5-20.5t-58-57Q203 347 203 298q0-59 26-101t76-64q50-22 121-22 64 0 129 18.5T672 182V70Q616 30 541.5 7.5T384-15m57 822l111-180H408L290 807h151m-227 0l110-180H182L63 807h151z" horiz-adv-x="722" vert-adv-y="1000"/><glyph glyph-name="unieb" unicode="ë" d="M384-15q-101 0-180.5 37.5T78.5 128Q33 196 33 286q0 89 43.5 156T196 546.5Q272 584 369 584q99 0 170-43.5T648.5 418Q687 339 687 232H167v111h430l-65-40q-4 50-24.5 85T452 442q-35 19-82 19-51 0-88.5-20.5t-58-57Q203 347 203 298q0-59 26-101t76-64q50-22 121-22 64 0 129 18.5T672 182V70Q616 30 541.5 7.5T384-15M218 634q-43 0-69.5 22.5T122 717q0 38 26.5 60t69.5 22q43 0 69.5-22t26.5-60q0-38-26.5-60.5T218 634m299 0q-43 0-69.5 22.5T421 717q0 38 26.5 60t69.5 22q43 0 69.5-22t26.5-60q0-38-26.5-60.5T517 634z" horiz-adv-x="722" vert-adv-y="1000"/><glyph glyph-name="uni0117" unicode="ė" d="M384-15q-101 0-180.5 37.5T78.5 128Q33 196 33 286q0 89 43.5 156T196 546.5Q272 584 369 584q99 0 170-43.5T648.5 418Q687 339 687 232H167v111h430l-65-40q-4 50-24.5 85T452 442q-35 19-82 19-51 0-88.5-20.5t-58-57Q203 347 203 298q0-59 26-101t76-64q50-22 121-22 64 0 129 18.5T672 182V70Q616 30 541.5 7.5T384-15m-17 649q-45 0-73.5 23.5T265 720q0 40 28.5 63.5T367 807q46 0 74-23.5t28-63.5q0-39-28-62.5T367 634z" horiz-adv-x="722" vert-adv-y="1000"/><glyph glyph-name="uni1EB9" unicode="ẹ" d="M384-15q-101 0-180.5 37.5T78.5 128Q33 196 33 286q0 89 43.5 156T196 546.5Q272 584 369 584q99 0 170-43.5T648.5 418Q687 339 687 232H167v111h430l-65-40q-4 50-24.5 85T452 442q-35 19-82 19-51 0-88.5-20.5t-58-57Q203 347 203 298q0-59 26-101t76-64q50-22 121-22 64 0 129 18.5T672 182V70Q616 30 541.5 7.5T384-15m-12-211q-45 0-73.5 23.5T270-140q0 40 28.5 63.5T372-53q46 0 74-23.5t28-63.5q0-39-28-62.5T372-226z" horiz-adv-x="722" vert-adv-y="1000"/><glyph glyph-name="unie8" unicode="è" d="M384-15q-101 0-180.5 37.5T78.5 128Q33 196 33 286q0 89 43.5 156T196 546.5Q272 584 369 584q99 0 170-43.5T648.5 418Q687 339 687 232H167v111h430l-65-40q-4 50-24.5 85T452 442q-35 19-82 19-51 0-88.5-20.5t-58-57Q203 347 203 298q0-59 26-101t76-64q50-22 121-22 64 0 129 18.5T672 182V70Q616 30 541.5 7.5T384-15m-52 822l123-180H298L167 807h165z" horiz-adv-x="722" vert-adv-y="1000"/><glyph glyph-name="uni1EBB" unicode="ẻ" d="M384-15q-101 0-180.5 37.5T78.5 128Q33 196 33 286q0 89 43.5 156T196 546.5Q272 584 369 584q99 0 170-43.5T648.5 418Q687 339 687 232H167v111h430l-65-40q-4 50-24.5 85T452 442q-35 19-82 19-51 0-88.5-20.5t-58-57Q203 347 203 298q0-59 26-101t76-64q50-22 121-22 64 0 129 18.5T672 182V70Q616 30 541.5 7.5T384-15m-48 628l-33 50q30 10 46.5 23.5T366 717q0 17-15.5 25.5T305 751q-18 0-34.5-2t-33.5-6v94q19 5 47.5 9t60.5 4q74 0 115.5-27t41.5-75q0-48-39.5-81.5T336 613z" horiz-adv-x="722" vert-adv-y="1000"/><glyph glyph-name="uni0207" unicode="ȇ" d="M384-15q-101 0-180.5 37.5T78.5 128Q33 196 33 286q0 89 43.5 156T196 546.5Q272 584 369 584q99 0 170-43.5T648.5 418Q687 339 687 232H167v111h430l-65-40q-4 50-24.5 85T452 442q-35 19-82 19-51 0-88.5-20.5t-58-57Q203 347 203 298q0-59 26-101t76-64q50-22 121-22 64 0 129 18.5T672 182V70Q616 30 541.5 7.5T384-15m210 642H467q-7 39-33.5 60.5T367 709q-40 0-66-21.5T266 627H141q12 87 70.5 136T367 812q96 0 154.5-49T594 627z" horiz-adv-x="722" vert-adv-y="1000"/><glyph glyph-name="uni0113" unicode="ē" d="M384-15q-101 0-180.5 37.5T78.5 128Q33 196 33 286q0 89 43.5 156T196 546.5Q272 584 369 584q99 0 170-43.5T648.5 418Q687 339 687 232H167v111h430l-65-40q-4 50-24.5 85T452 442q-35 19-82 19-51 0-88.5-20.5t-58-57Q203 347 203 298q0-59 26-101t76-64q50-22 121-22 64 0 129 18.5T672 182V70Q616 30 541.5 7.5T384-15M137 659v104h460V659H137z" horiz-adv-x="722" vert-adv-y="1000"/><glyph glyph-name="uni1E17" unicode="ḗ" d="M384-15q-101 0-180.5 37.5T78.5 128Q33 196 33 286q0 89 43.5 156T196 546.5Q272 584 369 584q99 0 170-43.5T648.5 418Q687 339 687 232H167v111h430l-65-40q-4 50-24.5 85T452 442q-35 19-82 19-51 0-88.5-20.5t-58-57Q203 347 203 298q0-59 26-101t76-64q50-22 121-22 64 0 129 18.5T672 182V70Q616 30 541.5 7.5T384-15M137 659v104h460V659H137m270 334h193L431 832H260l147 161z" horiz-adv-x="722" vert-adv-y="1000"/><glyph glyph-name="uni1E15" unicode="ḕ" d="M384-15q-101 0-180.5 37.5T78.5 128Q33 196 33 286q0 89 43.5 156T196 546.5Q272 584 369 584q99 0 170-43.5T648.5 418Q687 339 687 232H167v111h430l-65-40q-4 50-24.5 85T452 442q-35 19-82 19-51 0-88.5-20.5t-58-57Q203 347 203 298q0-59 26-101t76-64q50-22 121-22 64 0 129 18.5T672 182V70Q616 30 541.5 7.5T384-15M141 659v104h460V659H141m178 334l146-161H295L126 993h193z" horiz-adv-x="722" vert-adv-y="1000"/><glyph glyph-name="uni0119" unicode="ę" d="M558-204q-70 0-112.5 25T403-111q0 30 20 56.5T488-4q-25-5-51.5-8T384-15q-101 0-180.5 37.5T78.5 128Q33 196 33 286q0 89 43.5 156T196 546.5Q272 584 369 584q99 0 170-43t109.5-121.5Q687 341 687 234H214q12-39 40.5-66.5t72-42Q370 111 425 111q72 0 134.5 18.5T672 182V70q-9-7-22.5-15.5T622 38q-44-27-66.5-53T533-64q0-38 65-38 16 0 31.5 1.5T658-96v-95q-13-5-41.5-9t-58.5-4M208 342h316q-13 56-53.5 87.5T371 461q-65 0-107.5-32T208 342z" horiz-adv-x="722" vert-adv-y="1000"/><glyph glyph-name="uni025B" unicode="ɛ" d="M51 423q0 69 74.5 115T357 584q102 0 171.5-26.5t107-71Q673 442 677 388H515q-9 30-45 53.5T359 465q-75 0-107-18.5T220 402q0-17 11.5-31.5t39.5-22q28-7.5 76-7.5h117V240H347q-54 0-85.5-7t-44-20.5Q205 199 205 178q0-34 36.5-54T363 104q86 0 124.5 21.5T533 185h164q-3-54-41.5-99.5t-112-73Q470-15 358-15 248-15 176.5 9.5T70 74q-35 40-35 89 0 44 26.5 75t86.5 47.5Q208 302 309 302v-18q-75 0-125.5 11.5T104 327q-29 20-41 45t-12 51z" horiz-adv-x="716" vert-adv-y="1000"/><glyph glyph-name="uni0283" unicode="ʃ" d="M380 785q43 0 77.5-6.5T527 761V639q-29 12-59 17.5t-63 5.5q-69 0-102.5-29T269 540V73q0-78-30-134.5T148.5-149Q88-180-4-180q-40 0-71.5 6.5T-139-156v126q27-12 55.5-18t59.5-6q67 0 96.5 27.5T102 62v470q0 78 30.5 134.5T225 754q62 31 155 31z" horiz-adv-x="332" vert-adv-y="1000"/><glyph glyph-name="uni01AA" unicode="ƪ" d="M565-48q26 0 49.5 5T656-32v-127q-27-10-61.5-15.5T525-180q-116 0-171 61T299 54v511q0 28-11 50.5t-31.5 35Q236 663 204 663q-44 0-65.5-22.5T117 582q0-39 24.5-62.5T206 496q41 0 71.5 24t47.5 67l70-41q-32-79-82.5-117.5T194 390q-60 0-107 26t-74.5 70.5Q-15 531-15 589q0 56 27 100t79 70q52 26 128 26 79 0 134-28.5t84-82Q466 621 466 546V68q0-58 23-87t76-29z" horiz-adv-x="556" vert-adv-y="1000"/><glyph glyph-name="uni0247" unicode="ɇ" d="M451 689h113L291-120H178l273 809M384-15q-101 0-180.5 37.5T78.5 128Q33 196 33 286q0 89 43.5 156T196 546.5Q272 584 369 584q99 0 170-43.5T648.5 418Q687 339 687 232H167v111h430l-65-40q-4 50-24.5 85T452 442q-35 19-82 19-51 0-88.5-20.5t-58-57Q203 347 203 298q0-59 26-101t76-64q50-22 121-22 64 0 129 18.5T672 182V70Q616 30 541.5 7.5T384-15z" horiz-adv-x="722" vert-adv-y="1000"/><glyph glyph-name="uni1EBD" unicode="ẽ" d="M384-15q-101 0-180.5 37.5T78.5 128Q33 196 33 286q0 89 43.5 156T196 546.5Q272 584 369 584q99 0 170-43.5T648.5 418Q687 339 687 232H167v111h430l-65-40q-4 50-24.5 85T452 442q-35 19-82 19-51 0-88.5-20.5t-58-57Q203 347 203 298q0-59 26-101t76-64q50-22 121-22 64 0 129 18.5T672 182V70Q616 30 541.5 7.5T384-15M128 637q5 79 39 126t101 47q26 0 51-8.5t47.5-19q22.5-10.5 42.5-19t37-8.5q21 0 35.5 14t18.5 39h105q-4-77-38-124.5T466 636q-27 0-52 8.5t-47.5 19q-22.5 10.5-42 19T288 691q-21 0-35-14t-19-40H128z" horiz-adv-x="722" vert-adv-y="1000"/><glyph glyph-name="uni1E1B" unicode="ḛ" d="M384-15q-101 0-180.5 37.5T78.5 128Q33 196 33 286q0 89 43.5 156T196 546.5Q272 584 369 584q99 0 170-43.5T648.5 418Q687 339 687 232H167v111h430l-65-40q-4 50-24.5 85T452 442q-35 19-82 19-51 0-88.5-20.5t-58-57Q203 347 203 298q0-59 26-101t76-64q50-22 121-22 64 0 129 18.5T672 182V70Q616 30 541.5 7.5T384-15M133-212q5 79 39 126t101 47q26 0 51-8.5t47.5-19Q394-77 414-85.5t37-8.5q21 0 35.5 14T505-41h105q-4-77-38-124.5T471-213q-27 0-52 8.5t-47.5 19q-22.5 10.5-42 19T293-158q-21 0-35-14t-19-40H133z" horiz-adv-x="722" vert-adv-y="1000"/><glyph glyph-name="uni01DD" unicode="ǝ" d="M338 584q102 0 181-38t124.5-105.5Q689 373 689 283q0-89-43.5-156T526 22.5Q450-15 353-15q-98 0-169.5 43.5T73.5 151Q35 230 35 336h520V226H125l66 40q4-50 24.5-85.5t55-54Q305 108 352 108q51 0 89 20.5t58.5 57Q520 222 520 271q0 59-26.5 101t-76 64Q368 458 297 458q-64 0-129-18.5T50 387v112q57 40 131.5 62.5T338 584z" horiz-adv-x="722" vert-adv-y="1000"/><glyph glyph-name="uni0259" unicode="ə" d="M337 584q102 0 181-38t124.5-105.5Q688 373 688 283q0-89-43-156T526 22.5Q450-15 352-15q-97 0-168.5 44T73 153.5Q34 234 34 343h521V229H124l63 37q4-51 25-87.5t56.5-56Q304 103 352 103q51 0 88.5 21.5t58 59Q519 221 519 271q0 59-26.5 101T417 436q-49 22-120 22-64 0-128.5-17.5T52 394v109q56 37 131.5 59T337 584z" horiz-adv-x="722" vert-adv-y="1000"/><glyph glyph-name="uni0292" unicode="ʒ" d="M59 569h598V448L339 222l-21 53h77q106 0 172.5-29.5T666 167q32-49 32-111 0-67-39-120.5T544-149q-76-31-188-31-107 0-183 33T55-56.5Q13 1 8 74h159q9-58 57-94.5T356-57q82 0 127.5 32.5T529 63q0 33-17.5 58.5t-57 40.5Q415 177 348 177H238v106l332 240 25-78H59v124z" horiz-adv-x="725" vert-adv-y="1000"/><glyph glyph-name="uni01EF" unicode="ǯ" d="M59 569h598V448L339 222l-21 53h77q106 0 172.5-29.5T666 167q32-49 32-111 0-67-39-120.5T544-149q-76-31-188-31-107 0-183 33T55-56.5Q13 1 8 74h159q9-58 57-94.5T356-57q82 0 127.5 32.5T529 63q0 33-17.5 58.5t-57 40.5Q415 177 348 177H238v106l332 240 25-78H59v124m392 58H276L133 807h136l132-135h-75l131 135h137L451 627z" horiz-adv-x="725" vert-adv-y="1000"/><glyph glyph-name="uni01B9" unicode="ƹ" d="M666 569V445H130l25 78 332-240V177H377q-66 0-106-15t-57.5-40.5Q196 96 196 63q0-55 45.5-87.5T369-57q84 0 132 36.5T558 74h159q-4-73-46.5-130.5T552-147q-76-33-183-33-111 0-187.5 31T66-64.5Q27-11 27 56q0 62 32 111t99 78.5Q225 275 330 275h77l-21-53L68 448v121h598z" horiz-adv-x="725" vert-adv-y="1000"/><glyph glyph-name="uni66" unicode="f" d="M437 659q-70 0-101-27.5T305 543V0H138v532q0 78 30.5 134.5t93 87.5Q324 785 417 785q43 0 77-6.5t69-17.5V635q-29 12-60 18t-66 6M19 400v126h532V400H19z" horiz-adv-x="563" vert-adv-y="1000"/><glyph glyph-name="uni1E1F" unicode="ḟ" d="M437 659q-70 0-101-27.5T305 543V0H138v532q0 78 30.5 134.5t93 87.5Q324 785 417 785q43 0 77-6.5t69-17.5V635q-29 12-60 18t-66 6M19 400v126h532V400H19m281 435q-45 0-73.5 23.5T198 921q0 40 28.5 63.5T300 1008q46 0 74-23.5t28-63.5q0-39-28-62.5T300 835z" horiz-adv-x="563" vert-adv-y="1000"/><glyph glyph-name="uni67" unicode="g" d="M569 141v99l6 21v124l-6 21v163h167V152q0-108-47.5-182T557-142q-84-38-195-38-78 0-143.5 20T90-99V32q61-47 127.5-67T352-55q105 0 161 49t56 147M310 52q-79 0-141.5 33T70 178q-36 60-36 140t36 139.5q36 59.5 98.5 93T310 584q60 0 109.5-18.5t89-48.5q39.5-30 66.5-65.5t41.5-71Q631 345 631 316q0-37-22.5-83T544 146q-42-41-101-67.5T310 52m55 118q65 0 117.5 35.5T575 318q-40 78-93 113.5T365 467q-51 0-87.5-18.5t-56-52Q202 363 202 318q0-44 19-77.5t56-52q37-18.5 88-18.5z" horiz-adv-x="796" vert-adv-y="1000"/><glyph glyph-name="uni01F5" unicode="ǵ" d="M569 141v99l6 21v124l-6 21v163h167V152q0-108-47.5-182T557-142q-84-38-195-38-78 0-143.5 20T90-99V32q61-47 127.5-67T352-55q105 0 161 49t56 147M310 52q-79 0-141.5 33T70 178q-36 60-36 140t36 139.5q36 59.5 98.5 93T310 584q60 0 109.5-18.5t89-48.5q39.5-30 66.5-65.5t41.5-71Q631 345 631 316q0-37-22.5-83T544 146q-42-41-101-67.5T310 52m55 118q65 0 117.5 35.5T575 318q-40 78-93 113.5T365 467q-51 0-87.5-18.5t-56-52Q202 363 202 318q0-44 19-77.5t56-52q37-18.5 88-18.5m61 637h164L459 627H302l124 180z" horiz-adv-x="796" vert-adv-y="1000"/><glyph glyph-name="uni0263" unicode="ɣ" d="M380-180q-85 0-134.5 36.5T196-45q0 29 11 56.5t35.5 62Q267 108 304 157l-4-65L11 569h182l207-364h-36l209 364h176L465 101l-9 56q38-49 61.5-83.5t35-62Q564-16 564-45q0-62-49-98.5T380-180m0 105q23 0 36 11t13 29q0 13-7 28t-21 35.5Q387 49 368 76h24q-20-27-33.5-47.5T338-7q-7-15-7-28 0-18 13-29t36-11z" horiz-adv-x="760" vert-adv-y="1000"/><glyph glyph-name="uni011F" unicode="ğ" d="M569 141v99l6 21v124l-6 21v163h167V152q0-108-47.5-182T557-142q-84-38-195-38-78 0-143.5 20T90-99V32q61-47 127.5-67T352-55q105 0 161 49t56 147M310 52q-79 0-141.5 33T70 178q-36 60-36 140t36 139.5q36 59.5 98.5 93T310 584q60 0 109.5-18.5t89-48.5q39.5-30 66.5-65.5t41.5-71Q631 345 631 316q0-37-22.5-83T544 146q-42-41-101-67.5T310 52m55 118q65 0 117.5 35.5T575 318q-40 78-93 113.5T365 467q-51 0-87.5-18.5t-56-52Q202 363 202 318q0-44 19-77.5t56-52q37-18.5 88-18.5M170 807h127q7-39 33.5-60.5T397 725q40 0 66 21.5t35 60.5h125q-12-87-70.5-136.5T397 621q-96 0-154.5 49.5T170 807z" horiz-adv-x="796" vert-adv-y="1000"/><glyph glyph-name="uni01E7" unicode="ǧ" d="M569 141v99l6 21v124l-6 21v163h167V152q0-108-47.5-182T557-142q-84-38-195-38-78 0-143.5 20T90-99V32q61-47 127.5-67T352-55q105 0 161 49t56 147M310 52q-79 0-141.5 33T70 178q-36 60-36 140t36 139.5q36 59.5 98.5 93T310 584q60 0 109.5-18.5t89-48.5q39.5-30 66.5-65.5t41.5-71Q631 345 631 316q0-37-22.5-83T544 146q-42-41-101-67.5T310 52m55 118q65 0 117.5 35.5T575 318q-40 78-93 113.5T365 467q-51 0-87.5-18.5t-56-52Q202 363 202 318q0-44 19-77.5t56-52q37-18.5 88-18.5m119 457H309L166 807h136l132-135h-75l131 135h137L484 627z" horiz-adv-x="796" vert-adv-y="1000"/><glyph glyph-name="uni011D" unicode="ĝ" d="M569 141v99l6 21v124l-6 21v163h167V152q0-108-47.5-182T557-142q-84-38-195-38-78 0-143.5 20T90-99V32q61-47 127.5-67T352-55q105 0 161 49t56 147M310 52q-79 0-141.5 33T70 178q-36 60-36 140t36 139.5q36 59.5 98.5 93T310 584q60 0 109.5-18.5t89-48.5q39.5-30 66.5-65.5t41.5-71Q631 345 631 316q0-37-22.5-83T544 146q-42-41-101-67.5T310 52m55 118q65 0 117.5 35.5T575 318q-40 78-93 113.5T365 467q-51 0-87.5-18.5t-56-52Q202 363 202 318q0-44 19-77.5t56-52q37-18.5 88-18.5m-56 637h175l143-180H491L359 762h75L303 627H166l143 180z" horiz-adv-x="796" vert-adv-y="1000"/><glyph glyph-name="uni0123" unicode="ģ" d="M569 141v99l6 21v124l-6 21v163h167V152q0-108-47.5-182T557-142q-84-38-195-38-78 0-143.5 20T90-99V32q61-47 127.5-67T352-55q105 0 161 49t56 147M310 52q-79 0-141.5 33T70 178q-36 60-36 140t36 139.5q36 59.5 98.5 93T310 584q60 0 109.5-18.5t89-48.5q39.5-30 66.5-65.5t41.5-71Q631 345 631 316q0-37-22.5-83T544 146q-42-41-101-67.5T310 52m55 118q65 0 117.5 35.5T575 318q-40 78-93 113.5T365 467q-51 0-87.5-18.5t-56-52Q202 363 202 318q0-44 19-77.5t56-52q37-18.5 88-18.5m123 691l-81-138-7 47q42 0 68-20t26-54q0-34-25.5-54.5T400 621q-43 0-68.5 21.5T306 697q0 25 11.5 45.5T358 801l47 60h83z" horiz-adv-x="796" vert-adv-y="1000"/><glyph glyph-name="uni0121" unicode="ġ" d="M569 141v99l6 21v124l-6 21v163h167V152q0-108-47.5-182T557-142q-84-38-195-38-78 0-143.5 20T90-99V32q61-47 127.5-67T352-55q105 0 161 49t56 147M310 52q-79 0-141.5 33T70 178q-36 60-36 140t36 139.5q36 59.5 98.5 93T310 584q60 0 109.5-18.5t89-48.5q39.5-30 66.5-65.5t41.5-71Q631 345 631 316q0-37-22.5-83T544 146q-42-41-101-67.5T310 52m55 118q65 0 117.5 35.5T575 318q-40 78-93 113.5T365 467q-51 0-87.5-18.5t-56-52Q202 363 202 318q0-44 19-77.5t56-52q37-18.5 88-18.5m31 464q-45 0-73.5 23.5T294 720q0 40 28.5 63.5T396 807q46 0 74-23.5t28-63.5q0-39-28-62.5T396 634z" horiz-adv-x="796" vert-adv-y="1000"/><glyph glyph-name="uni0260" unicode="ɠ" d="M310 52q-79 0-141.5 33T70 178q-36 60-36 140t36 139.5q36 59.5 98.5 93T310 584q60 0 109.5-18.5t89-48.5q39.5-30 66.5-65.5t41.5-71Q631 345 631 316q0-37-22.5-83T544 146q-42-41-101-67.5T310 52m55 118q65 0 117.5 35.5T575 318q-40 78-93 113.5T365 467q-51 0-87.5-18.5t-56-52Q202 363 202 318q0-44 19-77.5t56-52q37-18.5 88-18.5m476 615q46 0 87-8t74-18V637q-30 13-63 20t-70 7q-70 0-101.5-35T736 527V152q0-108-47.5-182T557-142q-84-38-195-38-78 0-143.5 20.5T90-97V31q61-47 127.5-67.5T352-57q105 0 161 49.5T569 141v99l6 21v104l-6 9v158q0 129 67.5 191T841 785z" horiz-adv-x="797" vert-adv-y="1000"/><glyph glyph-name="uni0294" unicode="ʔ" d="M240 255q0 54 18.5 87t56.5 60l95 66q38 26 52.5 45.5T477 561q0 45-34 70.5T337 657q-81 0-120-32t-52-93H1q13 117 96 185t242 68q95 0 164-25.5T609 685q37-49 37-119 0-54-24-98t-84-86l-87-61q-26-17-34.5-37t-8.5-52V0H240v255z" horiz-adv-x="657" vert-adv-y="1000"/><glyph glyph-name="uni0295" unicode="ʕ" d="M417 255V0H250v232q0 32-9 52t-35 37l-87 61q-60 42-84 86t-24 98q0 70 37 119t106 74.5Q223 785 318 785q159 0 242-68t96-185H492q-13 61-52 93t-120 32q-72 0-106-25.5T180 561q0-28 14.5-47.5T247 468l95-66q38-27 56.5-60t18.5-87z" horiz-adv-x="653" vert-adv-y="1000"/><glyph glyph-name="uni0242" unicode="ɂ" d="M242 61q0 51 17.5 85.5T319 210l90 63q27 19 42.5 33.5T473 335q6 14 6 32 0 40-34.5 65T339 457q-81 0-120-32.5T167 331H3q13 116 96 184.5T341 584q90 0 159.5-25.5T609 486q39-47 39-114 0-43-11.5-74t-35-56.5Q578 216 542 191l-81-57q-29-20-40-40.5T410 38V0H242v61z" horiz-adv-x="676" vert-adv-y="1000"/><glyph glyph-name="uni1E21" unicode="ḡ" d="M569 141v99l6 21v124l-6 21v163h167V152q0-108-47.5-182T557-142q-84-38-195-38-78 0-143.5 20T90-99V32q61-47 127.5-67T352-55q105 0 161 49t56 147M310 52q-79 0-141.5 33T70 178q-36 60-36 140t36 139.5q36 59.5 98.5 93T310 584q60 0 109.5-18.5t89-48.5q39.5-30 66.5-65.5t41.5-71Q631 345 631 316q0-37-22.5-83T544 146q-42-41-101-67.5T310 52m55 118q65 0 117.5 35.5T575 318q-40 78-93 113.5T365 467q-51 0-87.5-18.5t-56-52Q202 363 202 318q0-44 19-77.5t56-52q37-18.5 88-18.5M167 659v104h460V659H167z" horiz-adv-x="796" vert-adv-y="1000"/><glyph glyph-name="uni0261" unicode="ɡ" d="M569 141v99l6 21v124l-6 21v163h167V152q0-108-47.5-182T557-142q-84-38-195-38-78 0-143.5 20T90-99V32q61-47 127.5-67T352-55q105 0 161 49t56 147M310 52q-79 0-141.5 33T70 178q-36 60-36 140t36 139.5q36 59.5 98.5 93T310 584q60 0 109.5-18.5t89-48.5q39.5-30 66.5-65.5t41.5-71Q631 345 631 316q0-37-22.5-83T544 146q-42-41-101-67.5T310 52m55 118q65 0 117.5 35.5T575 318q-40 78-93 113.5T365 467q-51 0-87.5-18.5t-56-52Q202 363 202 318q0-44 19-77.5t56-52q37-18.5 88-18.5z" horiz-adv-x="796" vert-adv-y="1000"/><glyph glyph-name="uni01E5" unicode="ǥ" d="M281 61h536v-90H281v90m288 68v118l6 21v124l-6 21v156h167V146q0-106-47.5-178.5T557-142.5Q473-180 362-180q-78 0-143.5 20T90-99V25q61-47 127.5-67.5T352-63q105 0 161 48.5T569 129M310 79q-79 0-141.5 31.5T70 199q-36 57-36 132 0 76 36 133t98.5 88.5Q231 584 310 584q74 0 133-26t101-67q42-41 64.5-84t22.5-77q0-36-22.5-79.5T544 168q-42-39-101-64T310 79m55 118q65 0 117.5 32.5T575 331q-40 71-93 103.5T365 467q-51 0-87.5-17t-56-47Q202 373 202 331q0-40 19-70.5t56-47q37-16.5 88-16.5z" horiz-adv-x="832" vert-adv-y="1000"/><glyph glyph-name="uni021D" unicode="ȝ" d="M59 569h598V448L339 222l-21 53h77q106 0 172.5-29.5T666 167q32-49 32-111 0-67-39-120.5T544-149q-76-31-188-31-107 0-183 33T55-56.5Q13 1 8 74h159q9-58 57-94.5T356-57q82 0 127.5 32.5T529 63q0 33-17.5 58.5t-57 40.5Q415 177 348 177H238v106l332 240 25-78H59v124z" horiz-adv-x="725" vert-adv-y="1000"/><glyph glyph-name="uni68" unicode="h" d="M63 770h167V0H63v770m384-186q81 0 138-32.5t87-92.5q30-60 30-143V0H535v291q0 77-37 116.5T391 447q-49 0-85.5-21.5t-56-59.5Q230 328 230 275l-55 29q11 90 48.5 152t95.5 95q58 33 128 33z" horiz-adv-x="757" vert-adv-y="1000"/><glyph glyph-name="uni0127" unicode="ħ" d="M-13 708h531V606H-13v102m76 62h167V0H63v770m384-209q81 0 138-32t87-92q30-60 30-143V0H535v268q0 76-37 116t-107 40q-49 0-85.5-21t-56-59.5Q230 305 230 253l-55 29q11 90 48.5 152t95.5 94.5Q377 561 447 561z" horiz-adv-x="757" vert-adv-y="1000"/><glyph glyph-name="uni1E2B" unicode="ḫ" d="M63 770h167V0H63v770m384-186q81 0 138-32.5t87-92.5q30-60 30-143V0H535v291q0 77-37 116.5T391 447q-49 0-85.5-21.5t-56-59.5Q230 328 230 275l-55 29q11 90 48.5 152t95.5 95q58 33 128 33M165-42h127q7-39 33.5-60.5T392-124q40 0 66 21.5T493-42h125q-12-87-70.5-136.5T392-228q-96 0-154.5 49.5T165-42z" horiz-adv-x="757" vert-adv-y="1000"/><glyph glyph-name="uni021F" unicode="ȟ" d="M63 770h167V0H63v770m384-186q81 0 138-32.5t87-92.5q30-60 30-143V0H535v291q0 77-37 116.5T391 447q-49 0-85.5-21.5t-56-59.5Q230 328 230 275l-55 29q11 90 48.5 152t95.5 95q58 33 128 33m38 244H305L155 988h143l135-104h-76l135 104h143L485 828z" horiz-adv-x="757" vert-adv-y="1000"/><glyph glyph-name="uni1E29" unicode="ḩ" d="M63 770h167V0H63v770m384-186q81 0 138-32.5t87-92.5q30-60 30-143V0H535v291q0 77-37 116.5T391 447q-49 0-85.5-21.5t-56-59.5Q230 328 230 275l-55 29q11 90 48.5 152t95.5 95q58 33 128 33M109 12h88l-55-84-41 2q21 12 46.5 20t58.5 8q65 0 98-25.5t33-69.5q0-45-43.5-76T167-244q-74 0-124.5 29.5T-23-139H84q9-12 27.5-22t55.5-10q33 0 49.5 10t16.5 27q0 16-13 26t-44 10q-18 0-32-4t-25-9H30l79 123z" horiz-adv-x="757" vert-adv-y="1000"/><glyph glyph-name="uni0125" unicode="ĥ" d="M63 770h167V0H63v770m384-186q81 0 138-32.5t87-92.5q30-60 30-143V0H535v291q0 77-37 116.5T391 447q-49 0-85.5-21.5t-56-59.5Q230 328 230 275l-55 29q11 90 48.5 152t95.5 95q58 33 128 33m-140 424h175l143-180H489L357 963h75L301 828H164l143 180z" horiz-adv-x="757" vert-adv-y="1000"/><glyph glyph-name="uni1E27" unicode="ḧ" d="M63 770h167V0H63v770m384-186q81 0 138-32.5t87-92.5q30-60 30-143V0H535v291q0 77-37 116.5T391 447q-49 0-85.5-21.5t-56-59.5Q230 328 230 275l-55 29q11 90 48.5 152t95.5 95q58 33 128 33M243 835q-43 0-69 23t-26 61q0 37 26 59.5t69 22.5q44 0 70-22.5t26-59.5q0-38-26-61t-70-23m303 0q-43 0-69.5 23T450 919q0 37 26.5 59.5T546 1001q43 0 69.5-22.5T642 919q0-38-26.5-61T546 835z" horiz-adv-x="757" vert-adv-y="1000"/><glyph glyph-name="uni1E23" unicode="ḣ" d="M63 770h167V0H63v770m384-186q81 0 138-32.5t87-92.5q30-60 30-143V0H535v291q0 77-37 116.5T391 447q-49 0-85.5-21.5t-56-59.5Q230 328 230 275l-55 29q11 90 48.5 152t95.5 95q58 33 128 33m-52 251q-45 0-73.5 23.5T293 922q0 39 28.5 63t73.5 24q46 0 74-24t28-63q0-40-28-63.5T395 835z" horiz-adv-x="757" vert-adv-y="1000"/><glyph glyph-name="uni1E25" unicode="ḥ" d="M63 770h167V0H63v770m384-186q81 0 138-32.5t87-92.5q30-60 30-143V0H535v291q0 77-37 116.5T391 447q-49 0-85.5-21.5t-56-59.5Q230 328 230 275l-55 29q11 90 48.5 152t95.5 95q58 33 128 33m-65-810q-45 0-73.5 23.5T280-140q0 40 28.5 63.5T382-53q46 0 74-23.5t28-63.5q0-39-28-62.5T382-226z" horiz-adv-x="757" vert-adv-y="1000"/><glyph glyph-name="uniA727" unicode="ꜧ" d="M63 770h167V0H63v770m639-467V54q0-112-55.5-173T476-180q-35 0-69.5 5.5T344-159v127q19-6 42-11t50-5q53 0 76 29t23 87v210q0 76-37 116t-107 40q-49 0-85.5-21.5t-56-60Q230 314 230 262l-55 29q11 90 48.5 152t95.5 95q58 33 128 33 81 0 138-32.5t87-92.5q30-60 30-143z" horiz-adv-x="757" vert-adv-y="1000"/><glyph glyph-name="uni0267" unicode="ɧ" d="M63 540q0 123 63.5 184T335 785q46 0 87.5-7.5T496 759V633q-27 11-61.5 18t-71.5 7q-72 0-102.5-32T230 527V0H63v540m384 31q81 0 138-32.5t87-92.5q30-60 30-143V54q0-112-55.5-173T476-180q-35 0-69.5 5.5T344-159v127q19-6 42-11t50-5q53 0 76 29t23 87v210q0 76-37 116t-107 40q-49 0-85.5-21.5t-56-60Q230 314 230 262l-55 29q11 90 48.5 152t95.5 95q58 33 128 33z" horiz-adv-x="757" vert-adv-y="1000"/><glyph glyph-name="uni0266" unicode="ɦ" d="M447 571q81 0 138-32.5t87-92.5q30-60 30-143V0H535v278q0 76-37 116t-107 40q-49 0-85.5-21.5t-56-60Q230 314 230 262l-55 29q11 90 48.5 152t95.5 95q58 33 128 33M63 540q0 123 63.5 184T335 785q46 0 87.5-7.5T496 759V633q-27 11-61.5 18t-71.5 7q-72 0-102.5-32T230 527V0H63v540z" horiz-adv-x="757" vert-adv-y="1000"/><glyph glyph-name="uni1E96" unicode="ẖ" d="M63 770h167V0H63v770m384-186q81 0 138-32.5t87-92.5q30-60 30-143V0H535v291q0 77-37 116.5T391 447q-49 0-85.5-21.5t-56-59.5Q230 328 230 275l-55 29q11 90 48.5 152t95.5 95q58 33 128 33M158-171v104h460v-104H158z" horiz-adv-x="757" vert-adv-y="1000"/><glyph glyph-name="uni0265" unicode="ɥ" d="M685-165H517v734h168v-734M305-15q-79 0-135 32.5T84.5 110Q55 170 55 252v317h167V277q0-76 36-115.5T362 122q47 0 82 21t54 59.5q19 38.5 19 90.5l55-29q-9-89-46.5-151.5t-94.5-95Q374-15 305-15z" horiz-adv-x="747" vert-adv-y="1000"/><glyph glyph-name="uni69" unicode="i" d="M63 575l83-16 84 16V0H63v575m83 59q-45 0-73.5 23.5T44 720q0 40 28.5 63.5T146 807q46 0 74-23.5t28-63.5q0-39-28-62.5T146 634z" horiz-adv-x="293" vert-adv-y="1000"/><glyph glyph-name="uni0131" unicode="ı" d="M63 575l83-16 84 16V0H63v575z" horiz-adv-x="293" vert-adv-y="1000"/><glyph glyph-name="unied" unicode="í" d="M63 575l83-16 84 16V0H63v575m113 232h164L209 627H52l124 180z" horiz-adv-x="293" vert-adv-y="1000"/><glyph glyph-name="uni012D" unicode="ĭ" d="M-38 807H74q6-37 24.5-58t47.5-21q29 0 47.5 21t23.5 58h113q-7-85-56-135.5T146 621q-78 0-127 50.5T-38 807M63 575l83-16 84 16V0H63v575z" horiz-adv-x="293" vert-adv-y="1000"/><glyph glyph-name="uni01D0" unicode="ǐ" d="M63 575l83-16 84 16V0H63v575m171 52H59L-84 807H52l132-135h-75l131 135h137L234 627z" horiz-adv-x="293" vert-adv-y="1000"/><glyph glyph-name="uniee" unicode="î" d="M58 807h175l96-180H212l-87 128h41L79 627H-37l95 180m5-232l83-16 84 16V0H63v575z" horiz-adv-x="293" vert-adv-y="1000"/><glyph glyph-name="uni0209" unicode="ȉ" d="M229 807l90-180H205l-98 180h122m-169 0l91-180H38l-99 180H60m3-232l83-16 84 16V0H63v575z" horiz-adv-x="293" vert-adv-y="1000"/><glyph glyph-name="unief" unicode="ï" d="M54 634q-36 0-57.5 23T-25 720q0 41 21.5 64T54 807q37 0 57.5-23t20.5-64q0-40-20.5-63T54 634m192 0q-36 0-57.5 23T167 720q0 41 21.5 64t57.5 23q37 0 58-23t21-64q0-40-21-63t-58-23M63 575l83-16 84 16V0H63v575z" horiz-adv-x="293" vert-adv-y="1000"/><glyph glyph-name="uni1E2F" unicode="ḯ" d="M50 634q-37 0-58 23t-21 63q0 41 21 64t58 23q36 0 57-23t21-64q0-40-21-63t-57-23m192 0q-36 0-57.5 23T163 720q0 41 21.5 64t57.5 23q36 0 57.5-23t21.5-64q0-40-21.5-63T242 634M63 575l83-16 84 16V0H63v575m113 449h164L209 843H52l124 181z" horiz-adv-x="293" vert-adv-y="1000"/><glyph glyph-name="uni1ECB" unicode="ị" d="M63 575l83-16 84 16V0H63v575m83 59q-45 0-73.5 23.5T44 720q0 40 28.5 63.5T146 807q46 0 74-23.5t28-63.5q0-39-28-62.5T146 634m0-860q-45 0-73.5 23.5T44-140q0 40 28.5 63.5T146-53q46 0 74-23.5t28-63.5q0-39-28-62.5T146-226z" horiz-adv-x="293" vert-adv-y="1000"/><glyph glyph-name="uniec" unicode="ì" d="M63 575l83-16 84 16V0H63v575m48 232l124-180H78L-53 807h164z" horiz-adv-x="293" vert-adv-y="1000"/><glyph glyph-name="uni1EC9" unicode="ỉ" d="M63 575l83-16 84 16V0H63v575m52 38l-33 50q30 10 46.5 23.5T145 717q0 17-15.5 25.5T84 751q-18 0-34.5-2T16 743v94q19 5 47.5 9t60.5 4q74 0 115.5-27t41.5-75q0-48-39.5-81.5T115 613z" horiz-adv-x="293" vert-adv-y="1000"/><glyph glyph-name="uni020B" unicode="ȋ" d="M330 627H217q-5 37-24 57.5T146 705q-29 0-47.5-20.5T74 627H-38q8 85 56.5 135T146 812q79 0 128-50t56-135M63 575l83-16 84 16V0H63v575z" horiz-adv-x="293" vert-adv-y="1000"/><glyph glyph-name="uni0133" unicode="ĳ" d="M63 575l83-16 84 16V0H63v575m83 59q-45 0-73.5 23.5T44 720q0 40 28.5 63.5T146 807q46 0 74-23.5t28-63.5q0-39-28-62.5T146 634m210-59l83-16 84 16v-740H356v740m83 59q-45 0-73.5 23.5T337 720q0 40 28.5 63.5T439 807q46 0 74-23.5t28-63.5q0-39-28-62.5T439 634z" horiz-adv-x="585" vert-adv-y="1000"/><glyph glyph-name="uni012B" unicode="ī" d="M-18 659v104h328V659H-18m81-84l83-16 84 16V0H63v575z" horiz-adv-x="293" vert-adv-y="1000"/><glyph glyph-name="uni012F" unicode="į" d="M162 18l45-5V0h23q-41-16-67-34.5T137-74q0-28 51-28 17 0 32 1.5t28 4.5v-95q-13-5-41-9t-59-4q-63 0-102.5 25T6-112q0 44 38.5 74T162 18M63 575l83-16 84 16V0H63v575m83 59q-45 0-73.5 23.5T44 720q0 40 28.5 63.5T146 807q46 0 74-23.5t28-63.5q0-39-28-62.5T146 634z" horiz-adv-x="293" vert-adv-y="1000"/><glyph glyph-name="uni0269" unicode="ɩ" d="M225 569V204q0-49 22.5-69t66.5-20q33 0 58.5 8.5T424 146V13Q400 2 364.5-6.5T289-15q-79 0-130 26T83 83q-25 46-25 106v380h167z" horiz-adv-x="434" vert-adv-y="1000"/><glyph glyph-name="uni0268" unicode="ɨ" d="M20 392h319V289H20v103m76 183l83-16 84 16V0H96v575m83 59q-45 0-73.5 23.5T77 720q0 40 28.5 63.5T179 807q47 0 75-23.5t28-63.5q0-39-28-62.5T179 634z" horiz-adv-x="359" vert-adv-y="1000"/><glyph glyph-name="uni0129" unicode="ĩ" d="M-41 639q5 76 34 121t84 45q24 0 41.5-8t31.5-19q14-11 27.5-19t28.5-8q18 0 28.5 14t14.5 39h87q-4-76-33.5-121T219 638q-24 0-41.5 8.5t-32 19Q131 676 117.5 684T89 692q-16 0-27-13.5T47 639h-88m104-64l83-16 84 16V0H63v575z" horiz-adv-x="293" vert-adv-y="1000"/><glyph glyph-name="uni1E2D" unicode="ḭ" d="M-42-194q4 71 33.5 112.5T75-40q24 0 42-8t32-19q14-11 27.5-19t28.5-8q17 0 27.5 13.5T247-41h87q-4-70-33-112t-83-42q-24 0-42 8t-32.5 19Q129-157 116-149t-28 8q-17 0-27.5-14T46-194h-88M63 575l83-16 84 16V0H63v575m83 59q-45 0-73.5 23.5T44 720q0 40 28.5 63.5T146 807q46 0 74-23.5t28-63.5q0-39-28-62.5T146 634z" horiz-adv-x="293" vert-adv-y="1000"/><glyph glyph-name="uni6a" unicode="j" d="M63 575l83-16 84 16v-740H63v740m83 59q-45 0-73.5 23.5T44 720q0 40 28.5 63.5T146 807q46 0 74-23.5t28-63.5q0-39-28-62.5T146 634z" horiz-adv-x="293" vert-adv-y="1000"/><glyph glyph-name="uni0237" unicode="ȷ" d="M63 575l83-16 84 16v-740H63v740z" horiz-adv-x="293" vert-adv-y="1000"/><glyph glyph-name="uni01F0" unicode="ǰ" d="M63 575l83-16 84 16v-740H63v740m171 52H59L-84 807H52l132-135h-75l131 135h137L234 627z" horiz-adv-x="293" vert-adv-y="1000"/><glyph glyph-name="uni0135" unicode="ĵ" d="M67 807h175l96-180H220l-86 128h41L88 627H-29l96 180m-4-232l83-16 84 16v-740H63v740z" horiz-adv-x="293" vert-adv-y="1000"/><glyph glyph-name="uni029D" unicode="ʝ" d="M221-180q-70 0-121 24.5T21.5-88Q-6-45-6 10q0 58 27 101t75.5 67.5Q145 203 210 203q51 0 100-13t93.5-34.5q44.5-21.5 81-45.5T546 62V-63q-34 36-76 66t-87 52q-45 22-87 34t-77 12q-52 0-78-23t-26-61q0-33 22.5-55.5T204-61q48 0 73.5 27.5T303 41v531l84-16 83 16V58q0-72-30-125.5t-86-83Q298-180 221-180m166 814q-45 0-73.5 23.5T285 720q0 40 28.5 63.5T387 807q46 0 74-23.5t28-63.5q0-39-28-62.5T387 634z" horiz-adv-x="578" vert-adv-y="1000"/><glyph glyph-name="uni025F" unicode="ɟ" d="M21 392h318V289H21v103m75 183l84-16 83 16v-740H96v740z" horiz-adv-x="360" vert-adv-y="1000"/><glyph glyph-name="uni0284" unicode="ʄ" d="M22 203h328V100H22v103m354 582q43 0 77-6.5t70-17.5V635q-30 12-61 18t-66 6q-70 0-100.5-27.5T265 543v-708H98v697q0 78 30.5 134.5t92 87.5Q282 785 376 785z" horiz-adv-x="409" vert-adv-y="1000"/><glyph glyph-name="uni0249" unicode="ɉ" d="M21 392h318V289H21v103m75 183l84-16 83 16v-740H96v740m84 59q-45 0-73.5 23.5T78 720q0 40 28.5 63.5T180 807q46 0 74-23.5t28-63.5q0-39-28-62.5T180 634z" horiz-adv-x="360" vert-adv-y="1000"/><glyph glyph-name="uni6b" unicode="k" d="M230 138l-47 17 338 414h182L215 0H63v770h167V138m129 141l123 95L719 0H528L359 279z" horiz-adv-x="714" vert-adv-y="1000"/><glyph glyph-name="uni1E31" unicode="ḱ" d="M230 138l-47 17 338 414h182L215 0H63v770h167V138m129 141l123 95L719 0H528L359 279m60 710h193L443 828H272l147 161z" horiz-adv-x="715" vert-adv-y="1000"/><glyph glyph-name="uni01E9" unicode="ǩ" d="M230 138l-47 17 338 414h182L215 0H63v770h167V138m129 141l123 95L719 0H528L359 279m111 549H290L140 988h143l135-104h-76l135 104h143L470 828z" horiz-adv-x="715" vert-adv-y="1000"/><glyph glyph-name="uni0137" unicode="ķ" d="M230 138l-47 17 338 414h182L215 0H63v770h167V138m129 141l123 95L719 0H528L359 279m-66-565l81 138 7-46q-42 0-68 20.5T287-120q0 34 25.5 54T381-46q43 0 68.5-20.5T475-122q0-24-11.5-44T423-225l-47-61h-83z" horiz-adv-x="714" vert-adv-y="1000"/><glyph glyph-name="uni1E33" unicode="ḳ" d="M230 138l-47 17 338 414h182L215 0H63v770h167V138m129 141l123 95L719 0H528L359 279m22-505q-45 0-73.5 23.5T279-140q0 40 28.5 63.5T381-53q46 0 74-23.5t28-63.5q0-39-28-62.5T381-226z" horiz-adv-x="715" vert-adv-y="1000"/><glyph glyph-name="uni0138" unicode="ĸ" d="M230 569V213l291 356h182L214 0H62v569h168m129-290l122 95L719 0H528L359 279z" horiz-adv-x="714" vert-adv-y="1000"/><glyph glyph-name="uni0199" unicode="ƙ" d="M230 138l-47 17 341 414h179L215 0H63v540q0 123 63.5 184T335 785q46 0 87.5-7.5T496 759V633q-27 11-61.5 18t-71.5 7q-72 0-102.5-32T230 527V138m129 141l123 95L719 0H528L359 279z" horiz-adv-x="715" vert-adv-y="1000"/><glyph glyph-name="uni1E35" unicode="ḵ" d="M230 138l-47 17 338 414h182L215 0H63v770h167V138m129 141l123 95L719 0H528L359 279M157-171v104h460v-104H157z" horiz-adv-x="715" vert-adv-y="1000"/><glyph glyph-name="uni6c" unicode="l" d="M63 770h167V0H63v770z" horiz-adv-x="293" vert-adv-y="1000"/><glyph glyph-name="uni013A" unicode="ĺ" d="M63 770h167V0H63v770m113 238h164L209 828H52l124 180z" horiz-adv-x="293" vert-adv-y="1000"/><glyph glyph-name="uni019B" unicode="ƛ" d="M125 491l-29 89 455 152 29-90-455-151M-11 0l250 487h160L169 0H-11m194 785q71 0 128.5-38.5T406 631L711 0H530L272 577q-19 42-44 63.5T161 662q-45 0-83.5-14T3 611v115q41 30 82.5 44.5T183 785z" horiz-adv-x="714" vert-adv-y="1000"/><glyph glyph-name="uni019A" unicode="ƚ" d="M31 454h349V351H31v103m91 316h167V0H122v770z" horiz-adv-x="410" vert-adv-y="1000"/><glyph glyph-name="uni026C" unicode="ɬ" d="M158 558q55 0 92.5-23.5t57.5-64q20-40.5 20-91.5V259h-67v114q0 52-26 75.5T175 472q-27 0-41-12.5T120 426q0-22 19.5-38t66.5-16q22 0 45 4t49 8l63 19q47 14 99 39t109 62V392q-47-29-99.5-52.5T366 302l-58-14q-25-5-52.5-8t-54.5-3q-89 0-139.5 38.5T11 422q0 59 37.5 97.5T158 558m80 212h167V0H238v770z" horiz-adv-x="586" vert-adv-y="1000"/><glyph glyph-name="uni013E" unicode="ľ" d="M63 770h167V0H63v770m233 58h148l-54-198H272l24 198z" horiz-adv-x="309" vert-adv-y="1000"/><glyph glyph-name="uni1E3D" unicode="ḽ" d="M63 770h167V0H63v770M59-42h175l143-180H241L109-87h75L53-222H-84L59-42z" horiz-adv-x="293" vert-adv-y="1000"/><glyph glyph-name="uni013C" unicode="ļ" d="M63 770h167V0H63v770M58-286l81 138 7-46q-42 0-68 20.5T52-120q0 34 25.5 54T146-46q43 0 68.5-20.5T240-122q0-24-11.5-44T188-225l-47-61H58z" horiz-adv-x="293" vert-adv-y="1000"/><glyph glyph-name="uni0140" unicode="ŀ" d="M63 770h167V0H63v770m316-474q-27 0-49.5 13T294 344.5Q281 367 281 394q0 28 13 50t35.5 35.5Q352 493 379 493q28 0 50-13.5t35-35.5q13-22 13-50 0-27-13-49.5T429 309q-22-13-50-13z" horiz-adv-x="465" vert-adv-y="1000"/><glyph glyph-name="uni1E37" unicode="ḷ" d="M63 770h167V0H63v770m83-996q-45 0-73.5 23.5T44-140q0 40 28.5 63.5T146-53q46 0 74-23.5t28-63.5q0-39-28-62.5T146-226z" horiz-adv-x="293" vert-adv-y="1000"/><glyph glyph-name="uni1E39" unicode="ḹ" d="M63 770h167V0H63v770m83-996q-45 0-73.5 23.5T44-140q0 40 28.5 63.5T146-53q46 0 74-23.5t28-63.5q0-39-28-62.5T146-226M-84 853v104h460V853H-84z" horiz-adv-x="293" vert-adv-y="1000"/><glyph glyph-name="uni01C9" unicode="ǉ" d="M63 770h167V0H63v770m282-195l83-16 84 16v-740H345v740m83 59q-45 0-73.5 23.5T326 720q0 40 28.5 63.5T428 807q46 0 74-23.5t28-63.5q0-39-28-62.5T428 634z" horiz-adv-x="574" vert-adv-y="1000"/><glyph glyph-name="uni1E3B" unicode="ḻ" d="M63 770h167V0H63v770m-88-941v104h342v-104H-25z" horiz-adv-x="293" vert-adv-y="1000"/><glyph glyph-name="uni1E9B" unicode="ẛ" d="M362 659q-71 0-101.5-27.5T230 543V0H63v532q0 78 30.5 134.5T186 754q62 31 155 31 43 0 77-6.5t70-17.5V635q-30 12-61 18t-65 6m-73 176q-45 0-73.5 23.5T187 921q0 40 28.5 63.5T289 1008q46 0 74-23.5t28-63.5q0-39-28-62.5T289 835z" horiz-adv-x="293" vert-adv-y="1000"/><glyph glyph-name="uni0142" unicode="ł" d="M30 428l339 103V415L30 312v116m86 342h167V0H116v770z" horiz-adv-x="398" vert-adv-y="1000"/><glyph glyph-name="uni6d" unicode="m" d="M36 569h167l36-217V0H72v377L36 569m406 15q76 0 130-32.5t82.5-92.5Q683 399 683 316V0H516v291q0 77-33.5 116.5T385 447q-45 0-78-21.5T256.5 366Q239 328 239 275l-55 29q10 90 46 152t90.5 95Q375 584 442 584m443 0q76 0 130.5-32.5t83-92.5q28.5-60 28.5-143V0H960v291q0 77-33.5 116.5T829 447q-45 0-78-21.5T700.5 366Q683 328 683 275l-55 29q10 90 46 152t90.5 95Q819 584 885 584z" horiz-adv-x="1182" vert-adv-y="1000"/><glyph glyph-name="uni1E3F" unicode="ḿ" d="M35 569h167l36-217V0H71v377L35 569m406 15q76 0 130-32.5t82.5-92.5Q682 399 682 316V0H515v291q0 77-33.5 116.5T384 447q-45 0-78-21.5T255.5 366Q238 328 238 275l-55 29q10 90 46 152t90.5 95Q374 584 441 584m443 0q76 0 130.5-32.5t83-92.5q28.5-60 28.5-143V0H959v291q0 77-33.5 116.5T828 447q-45 0-78-21.5T699.5 366Q682 328 682 275l-55 29q10 90 46 152t90.5 95Q818 584 884 584M638 807h164L671 627H514l124 180z" horiz-adv-x="1181" vert-adv-y="1000"/><glyph glyph-name="uni1E41" unicode="ṁ" d="M35 569h167l36-217V0H71v377L35 569m406 15q76 0 130-32.5t82.5-92.5Q682 399 682 316V0H515v291q0 77-33.5 116.5T384 447q-45 0-78-21.5T255.5 366Q238 328 238 275l-55 29q10 90 46 152t90.5 95Q374 584 441 584m443 0q76 0 130.5-32.5t83-92.5q28.5-60 28.5-143V0H959v291q0 77-33.5 116.5T828 447q-45 0-78-21.5T699.5 366Q682 328 682 275l-55 29q10 90 46 152t90.5 95Q818 584 884 584m-276 50q-45 0-73.5 23.5T506 720q0 40 28.5 63.5T608 807q46 0 74-23.5t28-63.5q0-39-28-62.5T608 634z" horiz-adv-x="1181" vert-adv-y="1000"/><glyph glyph-name="uni1E43" unicode="ṃ" d="M35 569h167l36-217V0H71v377L35 569m406 15q76 0 130-32.5t82.5-92.5Q682 399 682 316V0H515v291q0 77-33.5 116.5T384 447q-45 0-78-21.5T255.5 366Q238 328 238 275l-55 29q10 90 46 152t90.5 95Q374 584 441 584m443 0q76 0 130.5-32.5t83-92.5q28.5-60 28.5-143V0H959v291q0 77-33.5 116.5T828 447q-45 0-78-21.5T699.5 366Q682 328 682 275l-55 29q10 90 46 152t90.5 95Q818 584 884 584M598-226q-45 0-73.5 23.5T496-140q0 40 28.5 63.5T598-53q46 0 74-23.5t28-63.5q0-39-28-62.5T598-226z" horiz-adv-x="1181" vert-adv-y="1000"/><glyph glyph-name="uni0271" unicode="ɱ" d="M35 569h167l36-217V0H71v377L35 569m406 15q77 0 130.5-32.5t82-92.5Q682 399 682 316V0H515v291q0 77-33.5 116.5T385 447q-45 0-78-21.5T256 366q-18-38-18-91l-55 29q11 90 46.5 152t90 95Q374 584 441 584m685-268V54q0-112-55.5-173T900-180q-35 0-69.5 5.5T768-159v127q18-6 41.5-11t50.5-5q53 0 76 29t23 87v223q0 77-33.5 116.5T829 447q-45 0-78-21.5T700 366q-18-38-18-91l-55 29q11 90 46.5 152t90 95Q818 584 884 584q77 0 131-32.5t82.5-92.5q28.5-60 28.5-143z" horiz-adv-x="1181" vert-adv-y="1000"/><glyph glyph-name="uni026F" unicode="ɯ" d="M1146 0H979l-36 216v353h167V191l36-191M740-15q-76 0-130 32.5T527.5 110Q499 170 499 252v317h167V278q0-76 33.5-116t96.5-40q46 0 78.5 21t50.5 59.5q18 38.5 18 90.5l55-29q-10-89-46-151.5t-90.5-95Q807-15 740-15m-443 0q-77 0-130.5 32.5T84 110q-29 60-29 142v317h167V278q0-76 33.5-116t96.5-40q46 0 78.5 21t50.5 59.5q18 38.5 18 90.5l55-29q-10-89-46-151.5t-90-95Q364-15 297-15z" horiz-adv-x="1181" vert-adv-y="1000"/><glyph glyph-name="uni6e" unicode="n" d="M36 569h167l36-217V0H72v377L36 569m420 15q81 0 138-32.5t87-92.5q30-60 30-143V0H544v291q0 77-37 116.5T399 447q-48 0-84.5-21.5t-56-59.5Q239 328 239 275l-55 29q10 90 48 152t96 95q58 33 128 33z" horiz-adv-x="766" vert-adv-y="1000"/></font>
</defs>
</svg>
